<svg xmlns="http://www.w3.org/2000/svg" width="224" height="176" fill="none"><path d="M68.725 39.791c.163 1.12.399 2.054.653 2.958.041.147.194.222.328.184.138-.046.217-.186.184-.329l-.668-2.73a.26.26 0 0 0-.315-.208c-.081.016-.147.061-.182.124zm1.549 5.445c.304 1.106.671 1.991 1.067 2.861.058.135.219.195.354.137s.195-.22.137-.355l-1.067-2.604c-.053-.143-.203-.206-.341-.161-.073.021-.119.067-.15.121zm2.345 5.142c.45 1.085.944 1.908 1.463 2.703.082.128.249.16.369.074.116-.079.16-.249.074-.37L73.08 50.38c-.07-.132-.233-.172-.364-.102-.041.018-.075.06-.097.1zm3.087 4.736c.612 1.053 1.226 1.789 1.847 2.477.103.109.271.121.38.018a.26.26 0 0 0 .018-.38l-1.802-2.154c-.091-.113-.262-.137-.375-.046-.025.027-.051.054-.068.085zm3.802 4.192c.74.971 1.463 1.603 2.201 2.193.112.094.285.078.375-.046.093-.092.078-.285-.046-.376l-2.122-1.84c-.107-.102-.276-.093-.378.014l-.031.055zm4.415 3.519c-.066.117-.033.28.087.358l2.123 1.306c.442.238.6.193.67.068a.27.27 0 0 0-.103-.366l-2.401-1.452a.27.27 0 0 0-.373.079zm4.959 2.714c-.068.157-.003.317.126.379l2.662 1.022c.138.047.297-.018.341-.168.047-.138-.03-.294-.168-.341l-2.611-1.004c-.142-.059-.284-.005-.35.112zm5.361 1.777c-.058.214.027.355.17.394l2.802.515c.143.019.273-.083.304-.23.019-.144-.079-.281-.23-.304l-2.747-.505c-.127-.03-.242.028-.299.13zm19.413-30.333c-.066.117-.032.26.072.349.116.086.289.07.375-.046.504-.662 1.173-1.305 1.99-1.884.121-.087.145-.258.058-.378s-.257-.145-.378-.058c-.851.622-1.557 1.295-2.096 2-.004.008-.017.011-.021.019zm-1.18 2.545c-.221 1.017-.167 2.003.114 3.004a.26.26 0 0 0 .328.184c.146-.041.229-.19.184-.328-.257-.916-.307-1.817-.133-2.676.031-.147-.067-.284-.214-.316-.111-.021-.222.03-.279.131zm5.684-5.854c.043.363.196.439.331.381.911-.362 1.809-.516 2.649-.476.148.011.274-.103.285-.251s-.104-.274-.251-.285c-.921-.044-1.887.123-2.871.505-.066.025-.112.071-.143.126zm-18.323 34.4c-.037.267.078.393.217.4l2.847-.005c.149-.009.259-.132.25-.281s-.132-.259-.28-.25l-2.8.011c-.095-.013-.191.047-.234.125zm13.976-23.198c.497 1.019 1.115 1.767 1.834 2.5.103.109.267.109.377.006s.101-.272.006-.377a14.64 14.64 0 0 1-1.759-2.139c-.082-.128-.249-.16-.369-.074-.037.01-.067.045-.089.084zm9.776-10.846c-.071.125-.026.284.095.362.721.436 1.393 1.05 2.018 1.823.091.113.262.137.375.046.117-.099.136-.263.046-.375-.659-.822-1.389-1.479-2.153-1.949-.121-.078-.287-.038-.369.091zm-18.118 33.775c-.011.313.125.419.27.398l.929-.136 1.879-.384c.146-.041.233-.177.199-.32s-.177-.233-.319-.2l-1.842.374-.909.137c-.101.015-.167.06-.207.131zm12.255-18.881c.787.905 1.579 1.452 2.404 1.978.121.078.287.038.365-.083.075-.133.038-.287-.083-.365l-2.293-1.607c-.116-.086-.281-.066-.375.046l-.018.031zm-6.763 17.565c.035.359.18.43.319.385l2.641-1.066c.127-.062.195-.219.129-.359-.058-.135-.219-.195-.359-.129l-2.592 1.052c-.061.017-.107.063-.138.118zm16.215-28.182l1.028 2.839c.045.139.194.222.332.176s.222-.194.176-.333c-.299-.95-.65-1.846-1.064-2.664a.26.26 0 0 0-.355-.117c-.049.014-.091.052-.117.099zm-4.692 13.65c-.067.137-.022.296.111.371l2.563 1.234c.134.055.285-.014.356-.139.054-.134-.003-.289-.132-.352l-2.528-1.225c-.137-.067-.3-.014-.37.111zm-6.398 12.167c.077.393.24.433.372.363l2.403-1.539c.12-.087.148-.246.066-.374-.087-.12-.254-.153-.374-.066-.756.542-1.554 1.05-2.358 1.513-.05.034-.087.064-.109.103zm12.791-20.441c.131 1.194.182 2.148.125 2.928a.28.28 0 0 0 .246.293c.148.011.274-.103.293-.247.059-.82.01-1.814-.159-2.886a.27.27 0 0 0-.306-.223c-.094.02-.164.072-.199.135zm-8.181 17.18c.125.419.292.431.409.333.728-.62 1.417-1.281 2.075-1.96.105-.115.093-.277-.007-.374-.107-.101-.272-.101-.373.006l-2.037 1.93c-.033.023-.054.041-.067.065zm7.766-11.584a22.75 22.75 0 0 1-.978 2.679c-.055.134.002.289.139.356.13.062.286-.014.356-.14.386-.873.715-1.788.974-2.691.039-.143-.042-.291-.185-.33-.122-.038-.245.016-.306.126zm-3.862 7.495c.188.434.353.414.443.29a25.71 25.71 0 0 0 1.613-2.364c.09-.124.029-.291-.091-.37-.129-.082-.287-.038-.369.091a22.9 22.9 0 0 1-1.582 2.309c-.005.028-.01.036-.014.044zm3.052-2.532c-.069.177 0 .329.146.38l2.691.915c.138.047.286-.034.333-.173a.27.27 0 0 0-.172-.333l-2.668-.902c-.126-.05-.269.003-.33.113zm5.405 1.679c-.066.21.027.354.17.393l2.769.63c.147.031.284-.067.315-.214s-.067-.284-.214-.315l-2.745-.617c-.123-.038-.238.021-.295.122zm5.541 1.108c-.051.238.046.376.19.394l2.822.352c.148.011.277-.091.288-.239a.26.26 0 0 0-.239-.288l-2.794-.346c-.107-.029-.214.034-.267.128zm5.62.545c-.045.263.07.389.217.4l1.654.055a.26.26 0 1 0 .009-.529l-1.641-.058c-.093 0-.191.047-.239.133z" fill="#0f0f0f"/><path d="M187.064 46.031c0 12.714-10.291 23.017-22.99 23.017s-22.99-10.302-22.99-23.016 10.29-23.017 22.99-23.017 22.99 10.302 22.99 23.017z" fill="#e7fae0"/><path d="M156.53 43.912c-.931-.932-2.436-.932-3.367 0l-.914.924c-.931.932-.931 2.439 0 3.371l6.708 6.716c.932.932 2.436.932 3.368 0l13.81-13.485c.931-.932.931-2.439 0-3.371l-.914-.924c-.931-.933-2.436-.933-3.367 0l-11.213 10.885-4.111-4.116z" fill="#027333"/><path d="M164.279 66.662c-9.412 0-17.75-6.662-19.81-15.852-.036-.144.054-.287.206-.323.143-.036.286.054.322.206 2.015 8.939 10.129 15.431 19.291 15.431 10.9 0 19.775-8.877 19.775-19.798 0-10.912-8.866-19.798-19.775-19.798a19.62 19.62 0 0 0-16.944 9.585c-.072.125-.233.17-.368.09-.125-.072-.17-.242-.089-.368 3.717-6.16 10.219-9.845 17.401-9.845 11.195 0 20.312 9.119 20.312 20.336s-9.126 20.336-20.321 20.336z" fill="#0f0f0f"/><g fill="#efd2c1"><path d="M103.177 84.337s-.949.816-2.517.565-2.624-2.26-2.498-3.999 1.263-3.838 2.991-3.712c1.728.117 2.508.897 2.508.897s7.657-5.398 8.785-10.517c0 0 4.631 1.578 7.362 5.855l1.388 1.282s2.087 3.909-.009 7.864c0 0 .251 8.581-6.108 10.365l.108 8.069s-2.982 2.762-8.114.969c0 0 2.552-4.035 2.149-7.882-.564-5.532-6.045-9.755-6.045-9.755z"/><path d="M119.996 73.588s-3.905-5.227-7.55-6.025c0 0-1.352 4.582-4.711 7.083s-4.075 3.443-4.075 3.443-1.182-1.067-2.319-.906c-1.137.17-3.672 1.237-3.054 4.519s2.481 3.273 3.054 3.201c.573-.081 1.684-.565 1.684-.565s5.158 3.452 6.072 8.76c.904 5.308-2.069 10.473-5.553 12.006s-7.604 1.103-9.95-.367l-5.194 1.999s-1.943-2.833-2.105-5.487c-.152-2.654 2.319-5.577 4.147-6.608s6.287-3.282 6.395-3.766-.502-4.214-1.469-9.352c-.958-5.147-1.764-8.428-1.764-8.428s.287-5.703 6.762-7.908c6.484-2.206 14.67-1.524 17.213-.403 2.543 1.13 4.147 3.793 3.618 9.63l-1.2-.825z"/></g><path d="M105.924 95.476c.628 3.805-5.627 8.454-9.03 10.304.942.634 4.581.264 6.282 0l2.748-2.774 2.748-3.567.785-3.963-.392-2.774-1.178-2.378-1.571-3.17-3.14-2.774-1.178.793c1.178 1.849 3.298 6.499 3.926 10.304zm15.132 0l-1.395-6.451 1.003-2.664 1.963 5.152c.392.793.785 2.774.785 3.963s-.393 3.567-.785 4.359c-.314.634-1.963 1.321-2.748 1.585l-2.004-.078 3.181-5.866zm-11.206-28.93l-9.03 10.304 1.178.396 1.57.793 4.711-3.567 2.356-3.17 1.57-3.567.393-.793-2.748-.396zm9.814 7.133l-1.57-1.981-.393-2.774-1.963-2.774-.785-1.981 3.002.686 1.317 1.295 1.57 2.378.392 3.963-.2 1.84-1.37-.652z" fill="#313131"/><path d="M117.148 70.468s-3.376-2.878-7.013-3.667c0 0-1.504 4.869-4.863 7.37l-3.931 3.004s-.905-.233-1.747.556c-.582.538-1.684 1.085-1.442 3.954.161 1.937 1.702 2.779 2.507 3.21.511.278 1.173 0 1.173 0s3.896 2.421 4.81 7.738c.904 5.308-2.069 10.473-5.553 12.006s-5.239 1.569-7.586.099l-5.042 1.829s-2.284-1.426-2.284-4.95c0-2.654 2.302-5.442 4.836-7.379 1.666-1.273 5.642-3.129 5.75-3.605.107-.484-.421-3.963-1.388-9.101-.958-5.147-1.701-8.222-1.701-8.222s.305-6.079 5.624-7.774c6.529-2.08 13.29-2.34 15.834-1.21s3.699 3.506 3.717 7.881l-1.702-1.74zm2.58 18.246s-.304 2.34-4.639 4.107l.108 8.034 1.943.484s4.003.467 4.433-3.514c.43-3.99-.824-8.088-1.845-9.11z" fill="#0f0f0f"/><path d="M107.01 79.811c0 2.815 1.361 5.093 3.036 5.093s3.036-2.277 3.036-5.093-1.361-5.093-3.036-5.093-3.036 2.277-3.036 5.093zm8.534-.611c0 1.192.242 2.286.654 3.156l1.433.17-.708.942c.475.52 1.048.825 1.666.825 1.675 0 3.036-2.278 3.036-5.093s-1.361-5.093-3.036-5.093c-1.684 0-3.045 2.278-3.045 5.093z" fill="#e1e1e1"/><g fill="#0f0f0f"><path d="M100.74 82.831c.179-.054 2.015-1.354 2.015-1.354.045-.484-1.872-2.412-1.872-2.412a.31.31 0 0 0-.447 0c-.125.126-.126.323 0 .448l1.647 1.668-1.531 1.076c-.143.099-.179.296-.072.439.063.081.153.134.26.134zm9.896-8.455c.286-.179.851-.986 2.105-.493.17.063.349-.018.412-.179a.32.32 0 0 0-.18-.412c-1.397-.547-2.31.152-2.606.592-.089.143-.053.341.09.439.062.036.125.054.179.054zm5.761 10.214c.806-.645 1.595-1.937 1.63-1.99-.17-.385-1.943-.699-1.943-.699-.188-.574-.86-2.905-.86-6.223a.251.251 0 1 0-.501 0c0 3.909.904 6.429.94 6.537.188.161 1.746.439 1.746.439-.268.413-.77 1.13-1.173 1.497-.107.09-.107.251-.018.359.036.054.108.081.179.081zm2.23-10.753c.358-.278.322-.475.179-.574-.072-.054-1.774-1.228-3.018-.144-.135.117-.144.314-.036.448.116.134.313.143.447.036.878-.762 2.231.179 2.239.188.063.018.126.045.189.045zm-5.859 19.575c5.373 0 8.311-3.587 8.732-10.67a.32.32 0 0 0-.296-.332c-.197 0-.322.126-.331.296-.403 6.77-3.054 10.069-8.097 10.069-.152 0-.304 0-.465-.009a.32.32 0 0 0-.331.305c-.009.17.134.323.304.332a8.76 8.76 0 0 0 .484.009zm-9.118-15.008c7.353-5.362 8.661-9.208 8.903-10.419 3.689 1.228 6.547 5.003 7.093 5.765.098.143.295.179.439.072.143-.099.17-.296.071-.439-.824-1.148-3.815-4.985-7.782-6.115-.403.332-.654 4.465-8.912 10.571-.143.108-.17.305-.062.439.062.081.161.126.25.126z"/><path d="M101.349 85.254a3.13 3.13 0 0 0 2.221-.977c.126-.126.117-.323-.009-.448s-.322-.117-.447.009c-.475.484-1.057.762-1.675.78-.744.036-1.487-.314-2.06-.977-.555-.646-.878-1.524-.913-2.466-.045-1.058.287-2.062.913-2.771.484-.556 1.119-.87 1.773-.897 1.12-.036 1.961.502 2.472 1.587.072.152.269.224.421.152.161-.072.224-.26.152-.421-.618-1.309-1.728-1.982-3.063-1.946-.833.027-1.621.43-2.23 1.112-.725.825-1.119 1.999-1.066 3.21.045 1.085.421 2.089 1.066 2.851.672.771 1.532 1.201 2.445 1.201zM88.453 106.88c.358-.296.314-.494.17-.583-.116-.072-2.911-1.865-1.925-6.331 1.003-4.546 10.12-8.886 10.21-8.921-1.218-10.778-2.705-17.162-2.839-17.762.161-2.717 1.415-4.878 3.726-6.438 5.965-4.017 16.846-2.797 19.327-1.865.26.045 4.782.834 3.779 9.684a.32.32 0 0 0 .278.35c.152.027.331-.108.349-.278 1.084-9.495-4.03-10.338-4.254-10.365-3.117-1.166-14.025-1.955-19.828 1.955-2.49 1.677-3.842 4.026-4.003 6.967.027.152 1.558 6.554 3.009 17.278-1.415.69-9.368 4.752-10.353 9.262-1.084 4.914 2.176 6.985 2.212 7.003.027.036.089.045.143.045z"/><path d="M119.279 84.105c.797 0 1.55-.502 2.132-1.408.654-1.013 1.021-2.475 1.021-4.008s-.376-2.995-1.03-4.017c-.358-.565-.806-.977-1.281-1.201a1.98 1.98 0 0 0-.842-.188c-1.764 0-3.152 2.376-3.152 5.407 0 1.488.313 2.807.904 3.811a.26.26 0 0 0 .35.09.26.26 0 0 0 .089-.35c-.546-.933-.833-2.152-.833-3.551 0-2.654 1.209-4.896 2.642-4.896a1.43 1.43 0 0 1 .627.143c.385.179.752.529 1.066 1.013.609.942.949 2.304.949 3.739s-.34 2.797-.94 3.73c-.484.753-1.084 1.175-1.702 1.175-.582 0-1.057-.278-1.495-.87-.081-.117-.242-.135-.35-.054-.116.081-.134.242-.053.35.537.726 1.155 1.085 1.898 1.085zm-19.89 22.488c2.069 0 3.896-.556 5.087-1.614 3.538-3.112 5.266-6.492 5.141-10.034-.215-6.151-5.884-10.553-6.126-10.733-.144-.108-.341-.081-.448.063s-.081.341.063.439c.053.045 5.678 4.412 5.884 10.258.116 3.344-1.541 6.546-4.926 9.531-1.603 1.408-4.487 1.839-7.541 1.103-1.021-.242-2.033-.609-3.018-1.085-.152-.071-.349-.009-.421.144-.072.161-.009.35.152.421a15.75 15.75 0 0 0 3.144 1.13c1.03.251 2.042.377 3.009.377z"/><path d="M110.395 102.862c3.063 0 4.818-1.56 4.917-1.65.098-.233.098-8.383.098-8.383 0-.17-.143-.314-.313-.314a.32.32 0 0 0-.314.314v8.007c-.555.448-3.26 2.331-7.586.825-.161-.054-.349.027-.403.197-.053.161.027.341.197.404 1.263.43 2.401.6 3.404.6zm.358-18.139c1.809 0 3.278-2.43 3.278-5.407 0-2.986-1.469-5.407-3.278-5.407s-3.278 2.43-3.278 5.407c0 3.031 1.442 5.407 3.278 5.407zm0-10.311c1.532 0 2.777 2.197 2.777 4.905 0 2.699-1.245 4.904-2.777 4.904s-2.776-2.197-2.776-4.904c.009-2.708 1.254-4.905 2.776-4.905z"/><path d="M113.781 79.558c.251-.215.618-1.228 1.523-1.228.618 0 .851.906.851.915.035.135.161.215.304.188.134-.036.215-.17.188-.305-.018-.054-.322-1.3-1.334-1.309-1.272 0-1.747 1.345-1.765 1.399-.044.135.027.278.153.323.027.018.053.018.08.018zm-10.025-.932h3.815a.251.251 0 1 0 0-.502h-3.815a.251.251 0 1 0 0 .502zm11.333 10.895a.31.31 0 0 0 .313-.305c0-.17-.134-.323-.304-.323-3.359-.099-3.565-2.502-3.574-2.6-.009-.17-.161-.296-.34-.296-.17.009-.304.161-.295.332.008.027.241 3.076 4.2 3.192zm3.492 12.427c2.176-.135 3.699-.96 4.531-2.439 2.463-4.376-1.97-12.983-2.158-13.351-.08-.152-.268-.215-.421-.135a.32.32 0 0 0-.134.43c.045.09 4.469 8.662 2.167 12.741-.725 1.282-2.069 1.991-3.994 2.116a.32.32 0 0 0-.296.332.31.31 0 0 0 .305.305z"/></g><path d="M85.935 163.942l-15.547.099s-3.144-2.959-4.595-9.029c-1.451-6.079-1.684-12.813.287-19.995s5.347-13.736 12.431-21.178c7.075-7.433 14.858-9.092 14.858-9.092s2.526 1.712 5.803 1.533c3.278-.17 4.245-1.049 4.245-1.049s-.017 4.77 3.672 5.209c3.69.431 4.586-1.461 4.953-3.694.367-2.241.251-1.892.251-1.892s3.519 4.824 6.752 3.372 1.075-3.811.735-4.223-3.036-2.744-3.036-2.744l11.822 2.771c2.785.708 9.753 3.747 16.076 1.21s9.914-5.416 12.699-10.491 3.842-12.418 3.842-12.418l15.888 3.057s.143 7.254-2.687 14.4c-2.839 7.156-9.35 17.144-17.822 20.865s-9.225 4.447-14.168 4.447-9.458-.78-9.458-.78.717 3.784-.018 7.541-1.46 6.859-1.46 6.859v25.285h-21.751s-12.538.036-14.329-.063c0-1.282 2.833-4.546 4.135-6.554 0 0 1.665-6.841.618-13.674s-4.21-20.039-4.21-20.039-6.189 2.026-9.628 5.729c-3.332 3.596-4.863 9.513-4.165 15.198.824 6.671 4.084 9.388 9.18 12.517l-5.373 6.823z" fill="#c68c67"/><path d="M154.254 112.964c5.892-1.491 9.002 1.203 9.82 2.736l-3.366 2.854-6.771 3.806-6.375 1.744c-.225-3.092.8-9.649 6.692-11.14z" fill="#281509"/><path d="M97.293 160.347s-.931-.215-2.06-.063-4.272 1.856-5.911-.511l-3.385 4.169h9.18l2.177-3.595zm70.348-86.239l3.448-3.479s1.758-1.668 3.549-3.013c1.29-2.233 4.03-1.793 4.03-1.793s-.029.144.437 1.408c.107.197 1.343-.879 2.212-.422a4.33 4.33 0 0 1 1.397 1.193s1.433-.753 2.427-.045.591 2.295-.627 3.811-4.111 4.734-6.287 6.178l-1.128.708s-1.469.547-1.872 2.268c-.403 1.731-.457 3.847-.457 3.847l-12.001-2.143s.457-2.349.072-4.026-2.436-3.317-3.574-4.115-2.946-1.982-2.212-3.631c.744-1.65 3.896-.215 5.965.753 2.069.977 3.905 2.824 4.621 2.502z" fill="#efd2c1"/><g fill="#0f0f0f"><path d="M85.858 164.362c.242-.117 5.812-6.967 5.812-6.967-2.714-2.125-5.66-4.214-7.46-7.083-1.048-1.659-1.585-3.587-1.746-6.241-.179-2.869-.018-5.317.475-7.496.994-4.348 3.591-7.782 7.729-10.194 1.818-1.058 3.618-1.838 5.347-2.314.17-.044.269-.224.224-.385-.045-.171-.215-.269-.385-.224-1.782.493-3.627 1.291-5.49 2.376-4.299 2.51-6.995 6.07-8.034 10.607-.51 2.232-.672 4.743-.492 7.675.17 2.762.734 4.779 1.845 6.536 1.8 2.87 4.666 4.959 7.281 6.627l-5.347 6.581c-.107.134-.09.332.045.439.054.036.125.063.197.063zm-15.629-.107c.331-.179.358-.376.242-.511a21.48 21.48 0 0 1-2.087-3.12c-2.436-4.376-3.564-9.773-3.376-16.032.537-17.368 11.392-30.189 20.527-35.892 2.633-1.641 5.293-2.851 7.908-3.587.394-.116.493-.286.448-.457s-.224-.251-.394-.215c-2.893.816-5.615 2.044-8.293 3.721-9.269 5.783-20.276 18.793-20.831 36.412-.197 6.375.967 11.881 3.457 16.364a23.4 23.4 0 0 0 2.15 3.21c.072.071.161.107.251.107z"/><path d="M103.59 158.687c.143 0 .277-.107.313-.251.036-.17-.071-.341-.25-.376l-3.646-.888c2.562-14.014-3.716-33.319-3.779-33.516a.3.3 0 0 0-.394-.197c-.17.053-.26.233-.197.403.063.197 6.377 19.6 3.708 33.471-.027.153.063.314.206.359.054.018 1.388.457 3.976.986.018.009.036.009.063.009zm-11.813 2.555a3.44 3.44 0 0 0 1.075-.17c1.523-.476 2.741-.592 4.075-.413.188.018.332-.098.358-.269a.32.32 0 0 0-.269-.358c-1.433-.198-2.732-.072-4.344.43-1.89.583-3.054-.834-3.099-.888-.107-.134-.304-.161-.448-.054-.134.108-.161.305-.054.449.018.018 1.03 1.273 2.705 1.273zm39.675 3.102c.162 0 .305-.126.314-.287 0-.018.152-26.917.636-28.531 3.215-10.751-.744-17.305-5.463-23.608-.108-.144-.305-.171-.439-.063-.144.107-.171.305-.063.439 4.612 6.169 8.499 12.571 5.365 23.044-.502 1.667-.654 28.575-.663 28.656-.018.17.116.323.286.341.009.009.018.009.027.009zm-23.045-53.385c.734 0 1.397-.206 1.961-.609 1.585-1.13 2.051-3.524 2.185-4.788 1.245 1.434 4.496 4.617 7.353 2.519.743-.556 1.12-1.228 1.093-2.017-.063-2.412-3.914-4.968-4.075-5.075-.144-.099-.341-.054-.439.09s-.054.34.089.439c.036.027 3.735 2.475 3.789 4.564.018.574-.26 1.067-.842 1.488-3.027 2.242-6.941-2.968-6.986-3.021-.08-.108-.224-.153-.349-.117-.125.045-.215.161-.215.296 0 .036-.072 3.739-1.979 5.093-.788.565-1.818.636-3.054.224-3.708-1.237-3.072-4.564-3.045-4.699.036-.17-.072-.34-.251-.376-.17-.036-.34.081-.376.251-.009.036-.762 4.008 3.466 5.425.609.215 1.164.313 1.675.313zm54.498-28.324a.31.31 0 0 0 .313-.278c.018-.17.475-4.071-.761-5.416-1.54-1.677-2.723-2.555-3.771-3.246-1.173-.78-1.755-1.659-1.54-2.349.17-.565.904-.933 1.746-.924 1.971.027 4.989 2.035 7.192 3.497 2.132 1.417 7.559.036 7.783-.027.17-.045.269-.215.224-.385s-.206-.278-.385-.224c-1.496.386-5.669 1.184-7.058.26-2.615-1.739-5.597-3.721-7.756-3.748-1.182.018-2.104.52-2.364 1.372-.143.466-.26 1.704 1.791 3.067 1.012.672 2.159 1.515 3.654 3.147.86.942.726 3.865.6 4.914-.018.17.099.332.278.35.027-.009.036-.009.054-.009z"/><path d="M95.107 164.256c2.947-5.003 4.729-6.617 4.738-6.635.134-.117.143-.314.027-.448s-.314-.144-.448-.027c-.072.071-1.872 1.685-4.603 6.635a.32.32 0 0 0 .125.43c.063.036.107.045.161.045zm79.861-79.353c.009.17-.134.314-.313.323a.31.31 0 0 1-.314-.305c0-.215-.116-5.335 2.418-6.465 2.427-1.085 8.374-6.841 8.679-9.208.071-.547-.197-.852-.43-1.013-.529-.368-1.389-.359-2.141.036-1.451.771-6.502 5.147-6.735 5.263 0 0-3.62.937-2.947.209.245-.265.092-.326.485-.432.688-.184 1.977-.3 2.319-.405.538-.165 5.159-4.447 6.583-5.2.958-.502 2.059-.502 2.794.009.519.368.77.959.689 1.614-.349 2.735-6.707 8.661-9.045 9.701-2.149.968-2.042 5.819-2.042 5.873z"/><path d="M171.092 74.43c3.233-2.851 8.436-7.272 9.537-7.361 1.353-.09 1.792 1.031 1.801 1.04.062.161.242.251.403.188s.251-.242.188-.404c-.206-.556-.967-1.578-2.436-1.444-1.675.135-8.884 6.689-9.699 7.433a.32.32 0 0 0-.018.448.29.29 0 0 0 .224.099zM61.783 164.363h88.153a.31.31 0 0 0 .314-.314c0-.17-.143-.314-.314-.314H61.783c-.17 0-.313.144-.313.314a.31.31 0 0 0 .313.314z"/><path fill-rule="evenodd" d="M178.437 66.236c.385.281.663.733.796 1.065l.665-.266c-.165-.415-.513-.994-1.039-1.378-.549-.401-1.289-.581-2.14-.154-.498.249-1.261.872-2.12 1.627l-2.189 1.989-.699.642-2.867 2.529-1.15.864c-.34.225-.592.35-.753.39a.36.36 0 0 0-.261.435c.048.192.242.309.434.261.286-.072.623-.255.975-.487.36-.238.77-.549 1.208-.907l2.898-2.556.704-.647 2.173-1.975c.877-.772 1.569-1.325 1.967-1.525.582-.291 1.036-.172 1.398.092z"/><path d="M140.2 125.546c3.331 0 6.654-.574 10.048-1.739a.32.32 0 0 0 .197-.404c-.053-.161-.232-.26-.403-.197-5.776 1.973-11.374 2.224-17.097.771-.17-.054-.34.054-.385.224a.32.32 0 0 0 .233.386c2.481.637 4.944.959 7.407.959z"/><path d="M177.405 85.378c.009.152.215 15.109-9.977 26.926-2.25 3.087-8.874 9.717-17.368 11.539-.427.092-1.681.196-1.681.196l1.589-.807.273-.1c9.544-3.827 14.655-7.779 16.945-11.348 9.072-10.688 9.565-24.128 9.583-26.136l-15.297-2.95c-.976 8.769-4.917 15.906-11.123 20.102-5.204 3.524-11.419 4.6-17.061 2.986-13.882-3.99-18.19-4.492-18.235-4.492a.32.32 0 0 1-.277-.35c.018-.17.179-.305.349-.278.17.018 4.38.502 18.342 4.519 5.463 1.569 11.49.511 16.532-2.905 6.126-4.151 9.995-11.244 11.258-20.264l15.888 3.058c.152.027.26.152.26.305z"/></g></svg>
