<svg xmlns="http://www.w3.org/2000/svg" width="224" height="176" fill="none"><style><![CDATA[.B{fill:#0f0f0f}.C{fill:#81bc89}.D{fill:#9f5c2c}.E{fill:#027333}]]></style><path d="M151.204 68.816l-3.558 10.727s-3.298-10.87-12.569-14.397c-9.286-3.528-14.377-2.485-14.377-2.485s2.748-1.871 2.401-4.256c-.362-2.385-4.354-4.271-4.354-4.271l-15.201.543s-3.558 1.314-3.79 3.942c-.217 2.628 1.895 4.056 1.895 4.056s-8.157-.414-12.887 1.728c-4.73 2.128-11.296 4.699-14.796 15.154-3.5 10.441-3.847 22.311-3.847 22.311l-15.925 3.999s-4.513 2.7-3.818 4.399l3.254 17.783s3.471 14.883 14.637 14.869 14.044-8.142 14.044-8.142-3.182 23.325-5.684 29.366h68.775s-5.077-19.239-6.625-34.736c0 0-1.547-11.984-.81-16.726 0 0 1.461 12.883 10.732 15.04s14.913-2.999 18.167-10.584 5.178-21.439 5.843-25.595l3.009-19.068s.462-3.142-10.921-4.756c-11.397-1.585-12.684-1.314-13.595 1.1z" fill="#c68c67"/><path d="M70.121 102.284c-.391-.557-.694-18.14 6.971-29.766 7.724-11.726 24.863-10.17 25.022-10.155.333.629.13.8-.072.771-.174-.014-16.836-1.514-24.299 9.798-7.535 11.427-7.232 28.781-7.232 28.952-.376.4-.391.4-.391.4z" class="B"/><path d="M70.707 107.863s-2.962-5.638-2.77-6.967 2.609-4.386 3.812-5.534c1.218-1.15 1.098-3.289-.246-3.92s-3.335.209-5.191 2.029c-1.858 1.805-4.134 4.567-5.017 4.58 0 0-7.071-4.608-9.99-5.155s-4.285-.618-4.934.596c0 0-2.388.279-2.832 1.981 0 0-2.061-.286-2.721.986s.5 3.575 2.984 5.065 6.254 3.357 8.953 3.875 4.121 6.324 4.121 6.324 8.89-.83 13.83-3.859z" class="D"/><g class="B"><path d="M70.814 108.414c-1.048-3.069-3.003-7.44-2.417-8.493.767-1.408 1.654-2.279 2.515-3.106l.941-.946c1.776-1.943 1.24-3.327.934-3.823-.597-.964-1.927-1.382-3.209-1.029-2.323.632-4.98 3.547-7.123 5.885-1.425 1.549-6.102 1.843-7.797 1.849-.218-.015-.395.168-.396.383.648.389 6.864.371 8.572-1.511 2.157-2.354 4.827-5.297 6.935-5.873.955-.26 1.929.022 2.348.697.467.743.157 1.808-.847 2.901l-.913.916c-.861.827-1.831 1.775-2.663 3.287-.949 1.734 2.124 7.523 2.746 8.657.081.138.216.216.375.206z"/><path d="M56.903 112.121c.271-.06.404-.254.362-.466-.059-.254-1.369-6.111-4.43-6.62-2.958-.487-10.751-3.662-11.791-7.303-.147-.492-.044-.927.283-1.263.463-.473 1.278-.653 2.146-.449 1.764.404 8.374 3.653 8.434 3.693.32.023 6.668-1.134 9.717 1.737-2.581-3.487-8.485-2.644-9.474-2.482-.927-.457-6.756-3.283-8.492-3.689-1.132-.258-2.232-.003-2.886.668-.517.533-.689 1.26-.482 2.019 1.209 4.246 9.828 7.426 12.405 7.851 2.109.354 3.455 4.478 3.799 6.03.04.169.206.288.408.275z"/><path d="M57.723 99.32c-.921-1.288-10.467-6.299-12.3-5.94-1.635.274-2.19 1.583-2.251 2.231.783.008.951-1.233 2.385-1.481 1.218-.219 7.974 3.049 11.96 5.146.06.039.133.049.206.044z"/><path d="M61.509 98.437c.007-.816-3.959-3.043-4.899-3.471l-1.569-.76c-2.005-1.005-4.504-2.265-6.271-2.24-2.434.01-2.828 1.58-2.853 1.653.775.109 1.062-.868 2.858-.881 1.578-.027 4.078 1.247 5.918 2.162l1.599.773c.909.401 4.966 2.694 5.011 2.719.06.039.133.049.206.044zm36.93-58.401s-3.066-11.669 2.618-13.283c0 0 2.285-2.442 4.426-3.371 0 0-5.323-6.442-4.007-9.955s5.063-4.385 9.59-4.442c4.527-.043 9.517 1.314 9.806 4.771s-4.252 9.527-4.252 9.527 6.639 1.685 6.943 7.142c.303 5.47-.463 9.084-.463 9.084l-1.533 1.114-22.029 1.314-1.099-1.9z"/></g><path d="M121.294 47.907s6.089 1.843 6.205-3.828c0 0-.256-1.686-1.511-2.809-2.406-1.584-4.01-1.848-4.545-1.32l-.534-.264s-3.679.579-8.828-2.992-7.998-6.099-7.998-6.099-2.488 5.928-3.515 7.37l-.015 2.771s-4.932-1.514-5.828 3.342c0 0 .014 3.871 3.153 4.171s2.994-.571 2.994-.571.723 5.97 4.107 7.699l-.332 4.385s2.386 2.157 6.913 1.628 5.93-1.728 5.93-1.728l-.26-4.285s3.283-2.143 4.064-7.47z" class="D"/><path d="M53.821 105.854l1.403.315 1.345 5.484s-5.872.172-6.19-1.399c-.333-1.571 3.442-4.4 3.442-4.4zm14.636-3.572l1.374 5.228s5.236-2.685 4.021-4.685-5.395-.543-5.395-.543zm88.517-35.479s-.781 4.428-1.605 4.956c-.81.528-4.599-1.7-3.949-3.514.637-1.8 5.554-1.443 5.554-1.443zm14.422 2.287s-1.953 3.971-1.78 5.585c0 0 5.743.029 6.09-2.185.275-1.757-4.31-3.399-4.31-3.399z" class="B"/><path d="M123.58 39.95s.487-4.381-.164-9.183c-.303-5.47-6.942-7.142-6.942-7.142s4.541-6.07 4.252-9.527c-.246-2.914-3.847-4.342-7.695-4.685 2.04 2.3 6.119 8.184-.217 13.612 0 0 6.104 2.385 5.178 9.198-.94 6.813-10.719.862-10.719.862a109.21 109.21 0 0 0 7.753 5.28l6.148 1.32 2.406.264z" fill="#313131"/><g class="B"><path d="M105.615 40.636c.318-.043.521.086.607 1.185.102 1.243-.231 1.457-.506 1.443s-.564-.386-.549-1.271c.014-.871.043-1.285.448-1.357zm10.687.102c.319-.043.521.1.579 1.214.072 1.243-.26 1.443-.55 1.428-.274-.014-.549-.414-.52-1.285.043-.886.072-1.3.491-1.357zm-17.53 7.983c-1.475-.086-2.56-.614-3.341-1.485-.781-.886-1.186-2.014-1.099-3.185a4.36 4.36 0 0 1 1.504-3.028c.897-.771 2.01-1.185 3.225-1.085a4.49 4.49 0 0 1 1.375.3c-.651.571-1.027.486-1.418.457-.969-.043-1.924.257-2.661.9a3.57 3.57 0 0 0-1.23 2.5 3.58 3.58 0 0 0 .911 2.628 3.72 3.72 0 0 0 2.531 1.228 3.88 3.88 0 0 0 1.923-.4c-.303 1-1.012 1.171-1.721 1.171zm-.896-1.972c-.231-.686 2.097-2.471 2.097-2.471l-2.618-1.914c.463-.614 3.5 1.6 3.5 1.6 0 .614-2.734 2.7-2.734 2.7-.072.057-.159.086-.246.086zm25.557 1.971c-.709 0-1.418-.171-2.054-.486.955-.386 1.605-.243 2.285-.286a3.66 3.66 0 0 0 2.531-1.228c.651-.728.969-1.657.912-2.628s-.507-1.857-1.244-2.5-1.678-.943-2.662-.9a3.43 3.43 0 0 0-1.2.286c.159-.9.651-1.014 1.157-1.057a4.5 4.5 0 0 1 3.225 1.085c.896.771 1.418 1.857 1.505 3.028.072 1.171-.319 2.3-1.1 3.185s-1.88 1.4-3.066 1.485c-.101.014-.188.014-.289.014zm.896-1.97c-.231-.086-2.979-2.171-2.979-2.171 0-.614 3.037-2.828 3.037-2.828.463.614-2.155 2.528-2.155 2.528l2.329 1.785c0 .628-.116.686-.232.686zm28.479 81.929a18.94 18.94 0 0 1-1.272-.043c-6.697-.514-13.813-5.656-13.669-18.539.651 12.355 7.391 17.282 13.741 17.768a16.49 16.49 0 0 0 1.186.043c13.22 0 16.358-17.783 17.414-23.739l5.135-31.494c.738.343-2.777 22.667-4.354 31.623-1.113 6.113-4.324 24.381-18.181 24.381zm-10.456-23.839c-.245-.014-.405-.214-.39-.414.492-5.428 1.519-10.441 2.285-13.698 3.038-12.855 6.784-22.525 6.813-22.61.694.371-3.038 9.984-6.061 22.796-.766 3.228-1.779 8.213-2.271 13.598-.014.185-.188.328-.376.328z"/><path d="M111.097 57.362c-1.953 0-4.759-.371-6.986-2.128-1.721-1.343-2.864-3.514-3.486-6.627-.419-2.057-.506-8.541-.463-10.655.608-.371.781-.2.781.014-.043 2.271.073 8.584.449 10.498.578 2.928 1.634 4.942 3.196 6.17 2.054 1.614 4.672 1.957 6.509 1.957.39.586.217.771 0 .771z"/><path d="M111.096 57.362c.421-.177-.485-.609 0-.761 2.445.118 4.914-.723 6.509-1.968 1.562-1.228 2.618-3.257 3.196-6.17.362-1.828.434-6.356.391-8.941.81 1.8.796 6.984.376 9.098-.622 3.114-1.765 5.285-3.486 6.627-2.227 1.742-5.019 2.114-6.986 2.114z"/><path d="M121.062 39.91c-7.406 0-15.028-6.87-16.966-8.741-.492 1.543-1.851 5.499-3.24 7.056.289-.652-.528.383-.187-.598.855-2.457 2.867-7.26 2.877-7.301.752-.071 9.85 9.156 18.007 8.798-.144.771-.318.786-.491.786zm-16.358 19.98c-.246-.029-.405-.214-.391-.428l.275-4.114c.781.043.723 2.014.506 4.185a.4.4 0 0 1-.39.357zm12.784-.184c-.578-2.442-.636-4.299-.636-4.328.781 0 .839 1.828 1.027 3.899l-.391.428zM98.512 40.695c-.477-.6-2.792-8.184-.419-12.155.68-1.143 1.692-1.885 2.994-2.2.477-.628 2.676-3.328 6.451-3.971 5.366-.943 13.856.386 15.939 6.213.925 2.614.94 5.599.014 11.412.13-5.785.13-8.684-.752-11.155-1.924-5.413-9.966-6.599-15.071-5.713-3.862.671-6.003 3.742-6.032 3.771-1.417.414-2.27 1.014-2.878 2.028-2.198 3.685.101 11.184.116 11.27-.289.5-.318.5-.362.5zM76.629 164.53c1.62-4.5 9.228-43.693 6.711-54.934-2.56-11.455 1.548-22.867 1.591-22.981.694.371-3.341 11.584-.825 22.81 2.531 11.341-5.149 50.905-7.13 54.89-.072.129-.203.215-.347.215zm68.776 0c-2.329-4.185-10.009-43.75-7.478-55.105 2.503-11.241-1.518-22.439-1.562-22.553.781-.143 4.874 11.269 2.329 22.724-2.502 11.241 5.091 50.434 7.058 54.377-.231.542-.289.557-.347.557zM169.34 75.1c-1.981 0-4.209-.214-6.508-.629-5.684-1.014-10.573-3.085-11.644-4.928-.318-.557-.26-1-.159-1.286.767-2.085 3.833-2.085 6.263-1.742-1.866.5-4.903.329-5.525 2-.072.186-.029.4.101.643.955 1.628 5.728 3.585 11.108 4.556 3.211.571 6.292.743 8.679.5 2.169-.229 3.543-.814 3.673-1.543.131-.686-1.142-2.014-3.804-3.214 2.546.3 4.831 1.9 4.571 3.357-.202 1.143-1.721 1.9-4.354 2.171-.752.086-1.547.114-2.401.114z"/></g><path d="M156.096 71.81l1.429-6.315s-2.731-3.004-1.516-9.238 5.422-5.143 5.422-5.143 2.259-6.239 2.845-9.512 2.498-7.294 5.268-6.894 3.361 4.719 2.695 8.139-2.242 8.441-2.242 8.441 2.983-2.798 4.157-2.767 3.603.876 4.306 2.302a12.97 12.97 0 0 1 .988 2.871s2.384 1.133 2.564 3.441-1.339 4.838-7.336 8.835c0 0-.838 3.142-4.213 3.728l-.656 5.507s-4.049-.183-7.279-1.148l-6.432-2.246z" class="D"/><g class="B"><path d="M169.802 52.126c2.632-5.985 4.092-13.517 1.94-16.491-.65-.913-1.582-1.342-2.768-1.301-3.467.161-4.531 4.672-5.655 9.457-.604 2.588-1.232 5.262-2.26 7.14 1.764-1.612 2.404-4.344 3.02-6.975 1.051-4.482 2.056-8.718 4.902-8.85.925-.043 1.621.282 2.116.974 1.672 2.324.962 8.849-1.696 15.521.299.515.344.527.401.525z"/><path d="M156.113 72.197c.363-.303 1.792-6.618 1.792-6.618-1.12-1.049-2.982-8.698-.224-12.901 1.419-2.168 9.854-1.059 14.716 1.36 2.105 1.046 3.126 2.142 2.804 3.001-.477 1.266-1.434 2.169-2.828 2.691-2.634.966-6.601.364-10.078-1.547 3.296 2.678 7.51 3.311 10.357 2.263 1.594-.589 2.746-1.672 3.3-3.142.348-.917.065-2.334-3.181-3.956-4.892-2.432-13.893-3.886-15.718-1.085-2.839 4.322-1.245 11.826.072 13.352l-1.381 6.113c.296.458.326.471.369.469z"/><path d="M166.155 64.893c.52-.024 1.052-.106 1.61-.246 2.046-.538 4.105-1.721 6.516-3.735a24.71 24.71 0 0 0 3.905-4.128c.695-.947 1.612-2.391 1.45-4.014-.051-.469-.188-.935-.398-1.383-.815-1.664-2.705-3.363-4.641-3.273-1.226.086-2.02.766-2.786 1.417l-2.839 2.463c1.38-.207 2.104-.841 3.093-1.674.947-.802 1.615-1.376 2.511-1.432 1.603-.075 3.235 1.38 3.954 2.833a3.38 3.38 0 0 1 .328 1.129c.106 1.039-.306 2.145-1.301 3.478a23.16 23.16 0 0 1-3.782 3.994c-2.313 1.938-4.287 3.074-6.204 3.577-1.145.296-2.229.318-3.155.032-.485-.149-1.15-.447-1.611-1.026-.923-1.158-.365-2.542.05-3.262-1.553 1.159-1.557 2.618-.666 3.734.462.593 1.163 1.032 1.986 1.294.603.186 1.272.255 1.98.222z"/><path d="M168.495 68.489l.75-.063c2.086-.297 4.287-1.229 6.915-2.939 1.602-1.047 3.08-2.26 4.377-3.635.815-.853 1.897-2.176 1.922-3.821.007-.472-.073-.94-.226-1.419-.369-1.098-1.176-2.562-2.786-3.259 1.044 1.295 1.725 2.551 2.059 3.507a3.29 3.29 0 0 1 .185 1.164c-.024 1.045-.568 2.1-1.714 3.311a22.61 22.61 0 0 1-4.238 3.514c-2.53 1.648-4.631 2.546-6.601 2.824-1.165.169-2.257.048-3.144-.34-.458-.193-1.083-.565-1.475-1.204s-.471-1.108-.269-1.746c-.999.618-.894 1.329-.393 2.149.392.639 1.025 1.168 1.823 1.517.812.334 1.775.489 2.815.441z"/><path d="M169.779 75.592c.361-.317 1.235-5.505 1.235-5.505 1.839-.615 3.007-1.97 4.248-3.93-1.857 1.488-2.956 2.769-4.699 3.264-.275.313-1.182 5.717-1.182 5.717.354.455.383.454.398.453zM69.454 143.333c-2.951 0-5.612-.771-7.926-2.299-5.916-3.9-8.215-11.798-9.054-16.155-.362-1.842-.781-4.413-1.229-7.127l-1.258-7.441c.535-.486.723-.343.767-.129l1.273 7.456 1.229 7.113c.825 4.242 3.038 11.926 8.722 15.669 3.139 2.071 6.957 2.656 11.325 1.756 2.415-.5 8.143-2.456 9.199-9.869-.391 8.213-7.029 10.212-9.04 10.626-1.389.258-2.719.4-4.006.4zm11.861-18.955l-7.709-21.21c.766-.172 4.455 9.541 8.085 20.71-.304.5-.347.5-.376.5z"/><path d="M54.412 112.039c-2.343 0-4.05-.5-4.411-1.671 1.186 1.228 6.393 1.442 13.133-.572 5.236-1.556 9.749-4.042 10.501-5.77.116-.257.116-.471.029-.643-.767-1.514-3.24-1.214-5.163-.714-.203.072-.42-.071-.477-.271 3.486-1.329 5.525-.943 6.335.643.13.271.246.714-.015 1.299-.853 1.943-5.467 4.557-10.992 6.213-3.081.886-6.378 1.486-8.939 1.486zm-4.036-1.402c-.781-1.628 1.374-3.771 3.616-5.114-1.953 2.057-3.457 3.9-3.24 4.614-.304.486-.347.5-.376.5zm52.548-71.184c.332-2.414 2.994-2.971 4.585-2.614.246.671.043.8-.174.757-1.301-.286-3.529.2-4.05 1.614-.057.143-.202.243-.361.243zm8.722 12.552c-.911 0-1.649-.229-1.707-.257.261-.729 2.155-.143 3.37-.957.637-.428.998-1.2 1.071-2.285.694 1.385.217 2.342-.637 2.928-.651.443-1.417.571-2.097.571zm-3.284-3.713c-.391-.214-1.606-1.314-1.635-2.457-.014-.428.145-.814.449-1.114.347-.357.766-.529 1.229-.529.507 0 .984.214 1.331.443.231-2.128.405-5.099-.029-5.742 1.432.757.839 5.57.723 6.527-.853.029-1.461-.457-2.01-.457-.246 0-.477.1-.68.3-.202 1.243.593 2.085.897 2.357-.073.628-.174.671-.275.671zm-5.641-19.184c-.318-.157-1.576-1.914-1.576-1.914.636-.443 1.894 1.3 1.894 1.3-.159.6-.231.614-.318.614zm44.926 50.823c-1.158-2.614-3.891-6.956-3.906-6.999-7.463-11.327-22.838-9.898-22.997-9.884.087-.786 15.925-2.257 23.648 9.47.116.186 2.806 4.471 3.616 6.899-.289.514-.318.514-.361.514zm-42.178-56.148c-.535-.414-6.118-6.899-4.093-11.284 1.143-2.457 4.426-3.699 9.749-3.699s8.591 1.228 9.705 3.671c1.996 4.356-3.689 10.798-3.934 11.07-.536-.571 5.004-6.856 3.225-10.755-.969-2.128-4.006-3.214-8.996-3.214-5.005 0-8.042 1.1-9.04 3.242-1.823 3.928 3.616 10.255 3.674 10.327-.102.6-.189.643-.29.643zm5.598 37.979c-7.348 0-7.883-3.442-7.897-3.585.781-.071 1.302 2.814 7.897 2.814 6.581 0 6.928-2.871 6.928-2.9.767.214.434 3.671-6.928 3.671zm-7.217 2.43c-2.879-1.271-4.498-3.328-4.498-5.57 0-1.314.766-3.142 4.397-4.428-2.315 1.643-3.616 2.885-3.616 4.428 0 1.928 1.446 3.742 3.876 4.842.13.643 0 .728-.159.728z"/><path d="M111.428 65.547a24.39 24.39 0 0 1-3.153-.186c1.056-.643 2.083-.586 3.153-.586 7.333 0 11.282-3.171 11.282-6.156 0-1.557-1.49-2.914-4.209-3.828 3.312.3 4.99 1.928 4.99 3.828 0 3.357-4.223 6.927-12.063 6.927zm-9.43 3.329c-.246-.014-.405-.2-.391-.414.333-4.328-.448-5.999-.462-6.027.737-.257 1.576 1.5 1.229 6.085 0 .2-.174.357-.376.357z"/><path d="M120.641 68.873c-.737-4.928.116-6.656.145-6.727.694.357-.087 2 .246 6.313l-.391.414z"/></g><g filter="url(#B)"><rect x="39" y="70" width="147.829" height="98.552" rx="8" fill="#fff"/><rect x="39" y="70" width="147.829" height="98.552" rx="8" fill="url(#C)" fill-opacity=".9"/><rect x="41" y="72" width="143.829" height="94.552" rx="6" stroke="#027333" stroke-width="4"/><rect x="73" y="83" width="80" height="8" rx="4" class="C"/><rect x="93" y="106" width="30.181" height="4.106" rx="2.053" class="E"/><rect x="93" y="114.214" width="85.427" height="4.106" rx="2.053" class="C"/><rect x="93" y="134.87" width="9.719" height="4.106" rx="2.053" class="E"/><rect x="93" y="143.083" width="18.927" height="4.106" rx="2.053" class="C"/><rect x="126.25" y="134.87" width="9.719" height="4.106" rx="2.053" class="E"/><rect x="126.25" y="143.083" width="18.927" height="4.106" rx="2.053" class="C"/><rect x="159.5" y="134.87" width="9.719" height="4.106" rx="2.053" class="E"/><rect x="159.5" y="143.083" width="18.927" height="4.106" rx="2.053" class="C"/><rect x="49" y="155" width="129" height="4" rx="2" fill="#426c86"/><mask id="A" maskUnits="userSpaceOnUse" x="49" y="106" width="36" height="45" mask-type="alpha"><rect x="49.488" y="106" width="35.512" height="44.509" rx="2" fill="#fff"/></mask><g mask="url(#A)"><path fill="#fff" d="M49.488 106H85v44.508H49.488z"/><path d="M96.405 150.219l-2.513 7.621s-2.33-7.723-8.879-10.229c-6.559-2.507-10.156-1.766-10.156-1.766s1.941-1.329 1.696-3.024c-.255-1.695-3.075-3.034-3.075-3.034l-10.738.385s-2.513.934-2.677 2.801c-.153 1.867 1.338 2.882 1.338 2.882s-5.762-.294-9.103 1.228c-3.341 1.512-7.98 3.339-10.452 10.767-2.472 7.418-2.718 15.851-2.718 15.851l-11.249 2.842s-3.188 1.918-2.697 3.125l2.299 12.635s2.452 10.574 10.34 10.564 9.921-5.785 9.921-5.785-2.248 16.572-4.015 20.865h48.582s-3.586-13.67-4.679-24.68c0 0-1.093-8.514-.572-11.884 0 0 1.032 9.154 7.581 10.686s10.534-2.131 12.832-7.519 3.658-15.233 4.128-18.186l2.125-13.547s.327-2.233-7.714-3.38c-8.051-1.126-8.96-.933-9.604.782z" fill="#c68c67"/><path d="M59.132 129.771s-2.166-8.291 1.849-9.438c0 0 1.614-1.735 3.126-2.395 0 0-3.76-4.577-2.83-7.073s3.576-3.116 6.774-3.156c3.198-.031 6.723.933 6.927 3.389s-3.004 6.769-3.004 6.769 4.689 1.197 4.904 5.074c.215 3.887-.327 6.454-.327 6.454l-1.083.792-15.56.933-.777-1.349z" class="B"/><path d="M75.275 135.363s4.301 1.309 4.383-2.72c0 0-.181-1.198-1.068-1.995-1.7-1.126-2.833-1.313-3.21-.938l-.378-.188s-2.598.412-6.236-2.125l-5.65-4.334-2.483 5.237-.01 1.969s-3.484-1.076-4.117 2.374c0 0 .01 2.75 2.227 2.964s2.115-.406 2.115-.406.511 4.241 2.902 5.469l-.235 3.116s1.686 1.532 4.884 1.157 4.189-1.228 4.189-1.228l-.184-3.045s2.319-1.522 2.871-5.307z" class="D"/><path d="M76.89 129.711s.344-3.113-.116-6.524c-.215-3.887-4.904-5.074-4.904-5.074s3.208-4.313 3.004-6.769c-.174-2.07-2.718-3.085-5.435-3.328 1.441 1.633 4.322 5.814-.153 9.671 0 0 4.312 1.694 3.658 6.535-.664 4.841-7.572.613-7.572.613s2.455 1.875 5.476 3.751l4.343.938 1.7.187z" fill="#313131"/><path d="M64.2 130.197c.225-.031.368.061.429.842.072.883-.163 1.035-.358 1.025s-.398-.274-.388-.903c.01-.619.031-.913.317-.964z" class="B"/><path d="M71.751 130.268c.225-.031.368.071.409.862.051.883-.184 1.025-.388 1.015-.194-.01-.388-.294-.368-.913.031-.629.051-.924.347-.964z" class="B"/><path d="M59.367 135.941c-1.042-.061-1.808-.436-2.36-1.055-.552-.63-.838-1.431-.776-2.263.051-.833.429-1.594 1.063-2.152.634-.548 1.42-.842 2.278-.771a3.12 3.12 0 0 1 .971.213c-.46.406-.725.345-1.001.325a2.65 2.65 0 0 0-1.88.639 2.54 2.54 0 0 0-.868 1.776c-.041.69.184 1.35.644 1.867s1.093.822 1.788.873c.47.02.94-.071 1.359-.284-.215.71-.715.832-1.216.832z" class="B"/><path d="M58.735 134.541c-.163-.488 1.482-1.756 1.482-1.756l-1.849-1.36c.327-.436 2.473 1.137 2.473 1.137 0 .436-1.931 1.918-1.931 1.918-.051.04-.112.061-.174.061z" class="B"/><path d="M76.787 135.94a3.27 3.27 0 0 1-1.451-.345c.674-.274 1.134-.172 1.614-.203a2.58 2.58 0 0 0 1.788-.872c.46-.518.684-1.178.644-1.868s-.358-1.319-.879-1.776-1.185-.669-1.88-.639c-.296.02-.582.081-.848.203.112-.639.46-.72.817-.751.838-.051 1.645.223 2.278.771s1.001 1.32 1.063 2.152a3.12 3.12 0 0 1-.776 2.263c-.552.629-1.328.994-2.166 1.055-.072.01-.133.01-.204.01z" class="B"/><path d="M77.421 134.541c-.163-.061-2.105-1.543-2.105-1.543 0-.436 2.146-2.009 2.146-2.009.327.436-1.522 1.796-1.522 1.796l1.645 1.268c0 .447-.082.488-.163.488z" class="B"/><path d="M68.073 142.08c-1.379 0-3.361-.264-4.935-1.512-1.216-.954-2.023-2.496-2.462-4.709-.296-1.461-.358-6.068-.327-7.57.429-.264.552-.142.552.01-.031 1.614.051 6.099.317 7.459.409 2.08 1.154 3.511 2.258 4.384 1.451 1.147 3.3 1.39 4.598 1.39.276.416.153.548 0 .548z" class="B"/><path d="M68.073 142.083c.297-.126-.343-.433 0-.541 1.727.084 3.471-.513 4.598-1.398 1.103-.872 1.849-2.313 2.258-4.384.255-1.299.307-4.515.276-6.352.572 1.278.562 4.962.266 6.464-.439 2.212-1.247 3.755-2.462 4.709-1.573 1.238-3.545 1.502-4.935 1.502z" class="B"/><path d="M75.112 129.682c-5.231 0-10.616-4.881-11.985-6.211-.347 1.096-1.308 3.907-2.289 5.013.204-.463-.373.272-.132-.424.604-1.746 2.025-5.159 2.032-5.188.531-.05 6.958 6.505 12.72 6.252-.102.548-.225.558-.347.558z" class="B"/><path d="M63.556 143.878c-.174-.02-.286-.152-.276-.304l.194-2.923c.552.031.511 1.431.358 2.974-.02.152-.143.253-.276.253z" class="B"/><path d="M72.588 143.746c-.409-1.736-.45-3.055-.45-3.075.552 0 .593 1.299.725 2.77l-.276.305z" class="B"/><path d="M59.184 130.239c-.337-.426-1.972-5.814-.296-8.635.48-.812 1.195-1.34 2.115-1.563.337-.447 1.89-2.365 4.557-2.821 3.791-.67 9.788.274 11.259 4.414.654 1.857.664 3.978.01 8.108.092-4.11.092-6.17-.531-7.925-1.359-3.846-7.04-4.689-10.646-4.06-2.728.477-4.24 2.659-4.261 2.68-1.001.294-1.604.72-2.033 1.441-1.553 2.618.072 7.945.082 8.006-.204.356-.225.355-.256.355z" class="B"/><path d="M62.301 129.355c.235-1.715 2.115-2.111 3.239-1.857.174.477.031.568-.123.538-.919-.203-2.493.142-2.861 1.146-.041.102-.143.173-.255.173z" class="B"/><path d="M68.461 138.274c-.644 0-1.165-.163-1.206-.183.184-.517 1.522-.101 2.38-.68.45-.304.705-.852.756-1.623.491.984.153 1.664-.45 2.08-.46.315-1.001.406-1.481.406z" class="B"/><path d="M66.142 135.638c-.276-.152-1.134-.934-1.154-1.746-.01-.304.102-.578.317-.791.245-.254.541-.376.868-.376.358 0 .695.153.94.315.163-1.512.286-3.623-.02-4.08 1.011.538.593 3.958.511 4.638-.603.02-1.032-.325-1.42-.325-.174 0-.337.071-.48.213-.143.883.419 1.482.633 1.675-.051.446-.123.477-.194.477z" class="B"/><path d="M62.157 122.009c-.225-.112-1.114-1.36-1.114-1.36.45-.315 1.339.923 1.339.923-.112.427-.164.437-.225.437z" class="B"/><path d="M39.128 173.998c-.276-.396-.49-12.888 4.925-21.149 5.456-8.331 17.563-7.225 17.676-7.215.235.446.092.568-.051.548-.123-.01-11.893-1.076-17.165 6.961-5.323 8.119-5.108 20.449-5.108 20.571-.266.284-.276.284-.276.284z" class="B"/><path d="M93.89 158.115c-.817-1.857-2.748-4.942-2.758-4.973-5.272-8.047-16.133-7.032-16.245-7.022.061-.558 11.249-1.603 16.705 6.728.082.132 1.982 3.176 2.554 4.902-.204.365-.225.365-.255.365z" class="B"/><path d="M64.097 118.223c-.378-.294-4.322-4.901-2.891-8.017.807-1.745 3.126-2.628 6.886-2.628s6.069.873 6.856 2.608c1.41 3.095-2.605 7.672-2.779 7.865-.378-.406 3.535-4.871 2.278-7.642-.685-1.512-2.83-2.283-6.355-2.283-3.535 0-5.681.782-6.386 2.304-1.287 2.79 2.554 7.286 2.595 7.337-.072.426-.133.456-.204.456z" class="B"/><path d="M68.051 145.207c-5.19 0-5.568-2.446-5.578-2.547.552-.051.919 1.999 5.578 1.999 4.649 0 4.894-2.04 4.894-2.06.541.152.306 2.608-4.894 2.608z" class="B"/><path d="M62.953 146.932c-2.033-.903-3.178-2.365-3.178-3.958 0-.934.541-2.233 3.106-3.146-1.635 1.167-2.554 2.05-2.554 3.146 0 1.37 1.022 2.659 2.738 3.44.092.457 0 .518-.112.518z" class="B"/><path d="M68.307 147.898c-.787 0-1.532-.041-2.227-.132.746-.457 1.471-.416 2.227-.416 5.18 0 7.969-2.253 7.969-4.374 0-1.106-1.052-2.07-2.973-2.72 2.34.213 3.525 1.37 3.525 2.72 0 2.385-2.983 4.922-8.521 4.922z" class="B"/><path d="M61.646 150.262c-.174-.011-.286-.143-.276-.295.235-3.075-.317-4.262-.327-4.282.521-.183 1.114 1.065.868 4.323 0 .142-.123.254-.266.254z" class="B"/><path d="M74.815 150.259c-.521-3.501.082-4.729.102-4.78.49.254-.061 1.421.174 4.486l-.276.294z" class="B"/></g></g><defs><filter id="B" x="35" y="66" width="155.828" height="106.552" filterUnits="userSpaceOnUse" color-interpolation-filters="sRGB"><feFlood flood-opacity="0"/><feGaussianBlur stdDeviation="2"/><feComposite in2="SourceAlpha" operator="in"/><feBlend in="SourceGraphic"/></filter><linearGradient id="C" x1="41.132" y1="72.659" x2="184.133" y2="167.095" gradientUnits="userSpaceOnUse"><stop stop-color="#caebee"/><stop offset=".46" stop-color="#ecf3e1" stop-opacity=".67"/></linearGradient></defs></svg>
