<svg xmlns="http://www.w3.org/2000/svg" width="224" height="176" fill="none" xmlns:v="https://vecta.io/nano"><style><![CDATA[.B{fill:#0f0f0f}.C{fill:#dca37a}.D{fill:#313131}.E{fill:#47a5e6}.F{stroke:#0f0f0f}.G{stroke-width:2}.H{fill:#746500}]]></style><mask id="A" maskUnits="userSpaceOnUse" x="23" y="12" width="67" height="98" mask-type="alpha"><rect x="23.545" y="12.713" width="65.793" height="96.92" rx="8" fill="url(#D)"/></mask><g mask="url(#A)"><rect x="23.545" y="12.713" width="65.793" height="96.92" rx="8" fill="url(#D)"/><g opacity=".4" filter="url(#C)"><use href="#E" class="B"/><path d="M68.958 52.649s7.706 2.348 7.852-4.878c0 0-.324-2.149-1.913-3.58-3.045-2.019-5.074-2.355-5.751-1.682l-.677-.336s-4.655.738-11.171-3.812-10.122-7.772-10.122-7.772-3.148 7.554-4.448 9.392l-.018 3.531s-6.241-1.93-7.376 4.259c0 0 .018 4.933 3.99 5.315s3.789-.728 3.789-.728.915 7.609 5.198 9.811l-1.273 13.412s3.543 3.299 9.272 2.626 8.373-2.626 8.373-2.626l-.869-13.412s4.155-2.73 5.143-9.52z" class="C"/><path d="M71.851 42.507s.616-5.584-.207-11.702c-.384-6.971-8.786-9.101-8.786-9.101s5.747-7.736 5.381-12.141c-.311-3.713-4.869-5.534-9.737-5.97 2.581 2.931 7.742 10.43-.275 17.347 0 0 7.724 3.04 6.553 11.722-1.19 8.683-13.565 1.099-13.565 1.099s4.398 3.364 9.811 6.728l7.781 1.682 3.045.336z" class="D"/><path d="M70.776 62.465c-1.344-1.861-.56-6.84 0-9.096l-1.68-.212-1.05 2.327-1.26 3.596-3.361 3.385 1.26 8.038 6.091-.635h3.709c0-.776-2.365-5.542-3.709-7.404z" class="B"/><path d="M41.576 62.464c1.344-1.862.56-7.474 0-9.731l1.47-.635 1.26 3.385 1.26 3.596 3.361 3.385-1.26 8.038-6.092-.635h-3.848c0-.776 2.503-5.542 3.848-7.404z" class="B"/><use href="#F" class="B"/><path d="M62.641 43.506c.403-.055.659.127.732 1.547.092 1.584-.329 1.839-.696 1.82-.348-.018-.696-.528-.659-1.638.055-1.129.091-1.656.622-1.729z" class="B"/><path d="M40.456 53.684c-1.867-.109-3.24-.783-4.228-1.893-.988-1.129-1.501-2.567-1.391-4.059.092-1.493.769-2.858 1.904-3.859 1.135-.983 2.544-1.511 4.082-1.383a5.61 5.61 0 0 1 1.739.382c-.824.728-1.3.619-1.794.582-1.226-.055-2.434.328-3.368 1.147s-1.483 1.948-1.556 3.185.329 2.421 1.153 3.349 1.959 1.474 3.203 1.565c.842.036 1.684-.127 2.435-.51-.384 1.274-1.281 1.493-2.178 1.493z" class="B"/><use href="#G" class="B"/><path d="M71.666 53.682a5.87 5.87 0 0 1-2.599-.619c1.208-.492 2.032-.309 2.892-.364 1.245-.073 2.379-.637 3.203-1.565s1.226-2.112 1.153-3.349-.641-2.366-1.574-3.185-2.123-1.201-3.368-1.147c-.531.036-1.043.146-1.519.364.201-1.147.823-1.292 1.464-1.347a5.67 5.67 0 0 1 4.082 1.383c1.135.983 1.794 2.366 1.903 3.859a5.6 5.6 0 0 1-1.391 4.059c-.988 1.129-2.379 1.784-3.88 1.893-.128.018-.238.018-.366.018z" class="B"/><use href="#H" class="B"/><path d="M56.053 64.695c-2.471 0-6.022-.473-8.841-2.712-2.178-1.711-3.624-4.478-4.411-8.446-.531-2.621-.641-10.885-.586-13.579.769-.473.988-.255.988.018-.055 2.894.092 10.94.568 13.379.732 3.731 2.068 6.298 4.045 7.864 2.599 2.057 5.912 2.494 8.237 2.494.494.746.275.983 0 .983z" class="B"/><use href="#I" class="B"/><use href="#J" class="B"/><use href="#K" class="B"/><path d="M40.126 43.456c-.604-.764-3.533-10.43-.531-15.49.86-1.456 2.141-2.403 3.789-2.803.604-.801 3.386-4.241 8.164-5.06 6.791-1.201 17.535.491 20.171 7.918 1.171 3.331 1.19 7.135.018 14.544.165-7.372.165-11.067-.952-14.216-2.434-6.899-12.611-8.41-19.072-7.281-4.887.855-7.596 4.769-7.633 4.805-1.794.528-2.874 1.292-3.642 2.585-2.782 4.696.128 14.253.147 14.362-.366.637-.403.637-.458.637z" class="B"/><path d="M45.711 41.872c.421-3.076 3.789-3.786 5.802-3.331.311.856.055 1.019-.22.965-1.647-.364-4.466.255-5.125 2.057a.5.5 0 0 1-.458.309z" class="B"/><use href="#L" fill="#eee"/><path d="M57.055 59.377c-1.88 0-3.358-1.069-3.645-2.066-.158-.564-.086-1.098.23-1.517.459-.607 1.363-.91 2.324-.722.474.087.803.13 1.019.13.689-.289.789-.361 1.062-1.474.273-1.084 1.076-1.85 1.951-1.85.402 0 .789.159 1.134.462.517.448.775 1.358.689 2.442-.115 1.604-.933 3.034-2.167 3.829-.789.506-1.679.766-2.597.766zm-1.664-3.511c-.474 0-.875.159-1.076.434-.158.202-.187.462-.101.766.172.607 1.334 1.459 2.827 1.459.76 0 1.492-.217 2.152-.65 1.004-.65 1.664-1.835 1.765-3.164.072-.896-.158-1.517-.402-1.734-.646-.564-1.463-.029-1.707.954-.316 1.257-.502 1.532-.99 1.85-.402.26-.689.405-2.08.13-.115-.029-.258-.043-.387-.043z" class="B"/><path d="M52.595 53.134c-.494-.273-2.032-1.675-2.068-3.131-.018-.546.183-1.038.568-1.42a2.1 2.1 0 0 1 1.556-.673c.641 0 1.245.273 1.684.564.293-2.712.513-6.498-.037-7.317 1.812.965 1.062 7.099.915 8.319-1.08.036-1.849-.583-2.544-.583-.311 0-.604.127-.86.382-.256 1.584.751 2.658 1.135 3.004-.092.801-.22.855-.348.855z" class="B"/><use href="#M" class="B"/><path d="M9.012 90.518l-3.991 14.173 1.681.847.84 1.48-.84 2.962-2.311 1.904v6.134l3.571 1.693c.168 0-.63 2.538-1.05 3.807l-3.991 2.751-12.394 4.019-6.722.634-4.621-1.903 1.891 10.788 1.26 8.885 2.941 8.673 2.941 4.865 4.201 4.654 5.672 3.385 5.672.635 6.512-1.058 3.991-2.116 2.941-2.75 1.681-3.596.63-2.115.63-1.693-2.731 19.251-2.521 12.057-2.101 8.885h86.755l-2.311-9.731-2.941-12.057-1.68-12.481-1.68-11.424-1.05-11.634v-7.193l1.47 4.866 2.731 6.558 5.041 4.653 4.831 2.327 5.462.423 4.201-.423 3.781-1.692 4.832-4.231 4.201-6.134 3.781-10.789 2.311-12.481 3.991-27.5.63-6.346-21.216-1.692-9.453-4.654-3.991 12.904-2.101-3.596-3.991-5.923-1.47-1.904-4.411-3.385-5.041-2.115-5.252-1.692-5.462-.423H69.3l-3.571.423-4.831 2.616-8.823.212-5.462-2.828-7.562-.635-4.831.423-5.882 1.058-5.882 2.115-5.252 3.385-4.201 5.5-3.991 8.25z" class="E"/><path d="M54.011 100.335l-5.483-13.803a2 2 0 0 1-.085-1.211l2.019-8.303a2 2 0 0 1 1.835-1.524l5.058-.275a2 2 0 0 1 1.843 1.002l4.365 7.608a2 2 0 0 1 .12 1.744l-5.96 14.774c-.675 1.674-3.047 1.667-3.713-.01z" fill="#e1e1e1" stroke-linejoin="round" class="F G"/><use href="#N" class="B"/><path d="M12.432 198.222c2.05-5.734 11.678-55.681 8.493-70.007-3.24-14.598 1.959-29.142 2.013-29.287.879.473-4.228 14.762-1.043 29.069 3.203 14.453-6.516 64.874-9.024 69.952a.51.51 0 0 1-.439.273z" class="B"/><path d="M99.465 198.22c-2.947-5.333-12.666-55.754-9.463-70.225 3.167-14.325-1.922-28.596-1.977-28.741.988-.182 6.168 14.361 2.947 28.96-3.166 14.325 6.443 64.272 8.932 69.296-.293.692-.366.71-.439.71z" class="B"/><path d="M102.303 90.414c-1.464-3.331-4.923-8.865-4.941-8.919-9.445-14.434-32.69-10.883-32.891-10.864.11-1.001 23.94-4.608 33.715 10.337.146.237 3.551 5.697 4.576 8.792-.366.655-.403.655-.458.655z" class="B"/><path d="M48.931 21.902c-.677-.528-7.742-8.792-5.18-14.38 1.446-3.131 5.601-4.714 12.337-4.714S66.96 4.373 68.369 7.486c2.526 5.552-4.667 13.761-4.979 14.107-.677-.728 6.333-8.737 4.082-13.706-1.226-2.712-5.07-4.096-11.385-4.096-6.333 0-10.177 1.402-11.44 4.132-2.306 5.006 4.576 13.069 4.649 13.16-.128.764-.238.819-.366.819z" class="B"/><path d="M46.734 71.82s4.086 1.852 9.539 2.064c3.686.055 7.846-1.416 8.2-2.538l.236.499s8.792 11.081 1.365 12.951-10.004-5.835-10.004-5.835-3.006 8.328-9.135 5.377c0 0-4.035-2.103-2.874-6.66.786-2.375 1.258-2.375 2.672-5.858z" class="H"/><path d="M63.604 85.596c-4.425 0-6.637-3.961-7.429-5.817-1.011 2.022-3.837 6.642-8.03 5.501-1.584-.426-2.731-1.238-3.414-2.42-3.501-4.073 1.782-10.813 1.81-10.909.055-.22.287-.344.505-.289s.341.289.287.509c0 .027-5.16 6.774-1.892 10.29.56.99 1.543 1.664 2.909 2.035 4.52 1.183 7.456-5.858 7.483-5.927.86.344 3.005 7.399 9.368 6.037 1.734-.385 2.827-1.169 3.223-2.352 1.215-3.562-3.796-9.654-3.837-9.709-.136-.179-.123-.44.054-.578.177-.151.424-.124.574.055.218.261 5.353 6.505 3.987 10.507-.505 1.471-1.789 2.434-3.824 2.888-.628.11-1.215.179-1.775.179z" class="B"/><use href="#O" class="B"/><use href="#P" class="B"/></g><mask id="B" maskUnits="userSpaceOnUse" x="30" y="22" width="53" height="52" mask-type="alpha"><rect x="30.215" y="22.347" width="52.613" height="51.131" rx="5" fill="#d9d9d9"/></mask><g mask="url(#B)"><rect x="23.545" y="12.713" width="65.793" height="96.92" rx="8" fill="#fff"/><use href="#E" class="B"/><path d="M68.958 52.649s7.706 2.348 7.852-4.878c0 0-.324-2.149-1.913-3.58-3.045-2.019-5.074-2.355-5.751-1.682l-.677-.336s-4.655.738-11.171-3.812-10.122-7.773-10.122-7.773-3.148 7.554-4.448 9.392l-.018 3.531s-6.241-1.93-7.376 4.259c0 0 .018 4.933 3.99 5.315s3.789-.728 3.789-.728.915 7.609 5.198 9.811l-1.273 13.412s3.543 3.299 9.272 2.626 8.373-2.626 8.373-2.626l-.869-13.412s4.155-2.73 5.143-9.52z" class="C"/><path d="M71.851 42.507s.616-5.584-.207-11.702c-.384-6.971-8.786-9.101-8.786-9.101s5.747-7.736 5.381-12.141c-.311-3.713-4.869-5.534-9.737-5.97 2.581 2.931 7.742 10.43-.275 17.347 0 0 7.724 3.04 6.553 11.722-1.19 8.682-13.565 1.099-13.565 1.099s4.398 3.364 9.811 6.728l7.781 1.682 3.045.336z" class="D"/><path d="M70.776 62.465c-1.344-1.862-.56-6.84 0-9.096l-1.68-.212-1.05 2.327-1.26 3.596-3.361 3.385 1.26 8.038 6.091-.635h3.709c0-.776-2.365-5.542-3.709-7.404zm-29.2-.001c1.344-1.861.56-7.474 0-9.731l1.47-.635 1.26 3.385 1.26 3.596 3.361 3.385-1.26 8.039-6.092-.635h-3.848c0-.776 2.503-5.542 3.848-7.404z" class="B"/><use href="#F" y="0.001" class="B"/><path d="M62.641 43.506c.403-.055.659.127.732 1.547.092 1.584-.329 1.838-.696 1.82-.348-.018-.696-.528-.659-1.638.055-1.129.091-1.657.622-1.729zM40.456 53.684c-1.867-.109-3.24-.783-4.228-1.893-.988-1.129-1.501-2.566-1.391-4.059.092-1.493.769-2.858 1.904-3.859 1.135-.983 2.544-1.511 4.082-1.383a5.61 5.61 0 0 1 1.739.382c-.824.728-1.3.619-1.794.583-1.226-.055-2.434.328-3.368 1.147s-1.483 1.948-1.556 3.185.329 2.421 1.153 3.349 1.959 1.474 3.203 1.565c.842.036 1.684-.127 2.435-.51-.384 1.274-1.281 1.493-2.178 1.493z" class="B"/><use href="#G" class="B"/><path d="M71.666 53.682a5.87 5.87 0 0 1-2.599-.619c1.208-.491 2.032-.309 2.892-.364 1.245-.073 2.379-.637 3.203-1.565s1.226-2.111 1.153-3.349-.641-2.366-1.574-3.185-2.123-1.201-3.368-1.147c-.531.036-1.043.146-1.519.364.201-1.147.823-1.292 1.464-1.347a5.67 5.67 0 0 1 4.082 1.383c1.135.983 1.794 2.366 1.903 3.859a5.6 5.6 0 0 1-1.391 4.059c-.988 1.129-2.379 1.784-3.88 1.893-.128.018-.238.018-.366.018z" class="B"/><use href="#H" class="B"/><path d="M56.053 64.695c-2.471 0-6.022-.473-8.841-2.712-2.178-1.711-3.624-4.478-4.411-8.446-.531-2.621-.641-10.885-.586-13.579.769-.473.988-.255.988.018-.055 2.894.092 10.94.568 13.379.732 3.732 2.068 6.298 4.045 7.864 2.599 2.057 5.912 2.494 8.237 2.494.494.746.275.983 0 .983z" class="B"/><use href="#I" class="B"/><use href="#J" class="B"/><use href="#K" class="B"/><path d="M40.126 43.456c-.604-.764-3.533-10.43-.531-15.49.86-1.456 2.141-2.403 3.789-2.803.604-.801 3.386-4.241 8.164-5.06 6.791-1.201 17.535.491 20.171 7.918 1.171 3.331 1.19 7.135.018 14.544.165-7.372.165-11.067-.952-14.216-2.434-6.899-12.611-8.409-19.072-7.281-4.887.855-7.596 4.769-7.633 4.805-1.794.528-2.874 1.292-3.642 2.585-2.782 4.696.128 14.253.147 14.362-.366.637-.403.637-.458.637zm5.585-1.584c.421-3.076 3.789-3.786 5.802-3.331.311.855.055 1.019-.22.965-1.647-.364-4.466.255-5.125 2.057a.5.5 0 0 1-.458.309z" class="B"/><use href="#L" fill="#eee"/><path d="M57.055 59.378c-1.88 0-3.358-1.069-3.645-2.066-.158-.563-.086-1.098.23-1.517.459-.607 1.363-.91 2.324-.722.474.087.803.13 1.019.13.689-.289.789-.361 1.062-1.474.273-1.084 1.076-1.85 1.951-1.85.402 0 .789.159 1.134.462.517.448.775 1.358.689 2.442-.115 1.604-.933 3.034-2.167 3.829a4.78 4.78 0 0 1-2.597.766zm-1.664-3.511c-.474 0-.875.159-1.076.433-.158.202-.187.462-.101.766.172.607 1.334 1.459 2.827 1.459a3.88 3.88 0 0 0 2.152-.65c1.004-.65 1.664-1.835 1.765-3.165.072-.896-.158-1.517-.402-1.734-.646-.564-1.463-.029-1.707.954-.316 1.257-.502 1.532-.99 1.85-.402.26-.689.404-2.08.13a1.67 1.67 0 0 0-.387-.043zm-2.796-2.733c-.494-.273-2.032-1.675-2.068-3.131-.018-.546.183-1.038.568-1.42a2.1 2.1 0 0 1 1.556-.673c.641 0 1.245.273 1.684.564.293-2.712.513-6.498-.037-7.317 1.812.965 1.062 7.099.915 8.319-1.08.036-1.849-.582-2.544-.582-.311 0-.604.127-.86.382-.256 1.584.751 2.658 1.135 3.003-.092.801-.22.855-.348.855z" class="B"/><use href="#M" class="B"/><path d="M9.012 90.518l-3.991 14.173 1.681.847.84 1.48-.84 2.962-2.311 1.904v6.135l3.571 1.692c.168 0-.63 2.538-1.05 3.808l-3.991 2.75-12.394 4.019-6.722.634-4.621-1.903 1.891 10.788 1.26 8.885 2.941 8.673 2.941 4.865 4.201 4.654 5.672 3.385 5.672.635 6.512-1.058 3.991-2.116 2.941-2.75 1.681-3.596.63-2.115.63-1.692-2.731 19.25-2.521 12.058-2.101 8.884h86.755l-2.311-9.731-2.941-12.057-1.68-12.481-1.68-11.423-1.05-11.635v-7.193l1.47 4.866 2.731 6.558 5.041 4.653 4.831 2.327 5.462.424 4.201-.424 3.781-1.692 4.832-4.231 4.201-6.134 3.781-10.789 2.311-12.481 3.991-27.5.63-6.346-21.216-1.692-9.453-4.654-3.991 12.904-2.101-3.596-3.991-5.923-1.47-1.904-4.411-3.385-5.041-2.115-5.252-1.692-5.462-.423H69.3l-3.571.423-4.831 2.616-8.823.212-5.462-2.828-7.562-.635-4.831.423-5.882 1.058-5.882 2.115-5.252 3.385-4.201 5.5-3.991 8.25z" class="E"/><use href="#N" class="B"/><path d="M102.303 90.414c-1.464-3.331-4.923-8.865-4.941-8.919-9.445-14.435-32.69-10.883-32.891-10.864.11-1.001 23.94-4.608 33.715 10.337.146.237 3.551 5.697 4.576 8.792-.366.655-.403.655-.458.655z" class="B"/><path d="M46.734 71.82s4.086 1.852 9.539 2.064c3.686.055 7.846-1.416 8.2-2.538l.236.499s8.792 11.081 1.365 12.951-10.004-5.835-10.004-5.835-3.006 8.328-9.135 5.377c0 0-4.035-2.103-2.874-6.66.786-2.375 1.258-2.375 2.672-5.857z" class="H"/><path d="M63.604 85.596c-4.425 0-6.637-3.961-7.429-5.817-1.011 2.022-3.837 6.642-8.03 5.501-1.584-.426-2.731-1.238-3.414-2.42-3.501-4.074 1.782-10.813 1.81-10.909.055-.22.287-.344.505-.289s.341.289.287.509c0 .027-5.16 6.774-1.892 10.29.56.99 1.543 1.664 2.909 2.035 4.52 1.183 7.456-5.859 7.483-5.927.86.344 3.005 7.399 9.368 6.037 1.734-.385 2.827-1.169 3.223-2.352 1.215-3.562-3.796-9.654-3.837-9.709-.136-.179-.123-.44.054-.578.177-.151.424-.124.574.055.218.261 5.353 6.505 3.987 10.507-.505 1.471-1.789 2.434-3.824 2.888-.628.11-1.215.179-1.775.179z" class="B"/><use href="#O" class="B"/><use href="#P" class="B"/><path opacity=".95" d="M30.215 65.327h52.613" stroke="#fd5555" class="G"/><path opacity=".5" d="M30.215 66.068h52.613v1.41a6 6 0 0 1-6 6H36.215a6 6 0 0 1-6-6v-1.41z" fill="#fd5555"/><path d="M73.195 23.088h4.892a4 4 0 0 1 4 4v4.892m-8.892 40.757h4.892a4 4 0 0 0 4-4v-4.892M39.848 23.088h-4.892a4 4 0 0 0-4 4v4.892m8.896 40.757H34.96a4 4 0 0 1-4-4v-4.892" stroke-linecap="round" class="F G"/></g><rect x="25.045" y="14.213" width="62.793" height="93.92" rx="6.5" stroke-width="3" class="F"/></g><path d="M130.192 58.934s-2.4-1.806-4.3-10.127l-.547 5.629-17.341 1.352s-1.364-5.372.361-8.099 6.643-6.911 15.639-6.992l5.431.956c0 0-1.702-6.305-.781-8.915.932-2.622 1.83-4.289 6.456-2.739 4.557 1.527 4.452 5.291 3.438 7.703-1.154 2.739-4.44 5.547-4.44 5.547s3.24.792 3.286 3.216c.059 2.424.595 11.712 2.04 15.814 1.305 3.683 2.937 6.608 6.957 6.643 3.904.035 10.022.629 11.223 5.501.944 3.846-.501 5.594 3.123 7.855 2.902 1.806 3.566 3.158 3.484 9.836 0 0-2.027-4.032-3.134-5.442-1.119-1.41-5.478-4.79-7.016-5.139 0 0-.757-.023-4.242.711s-8.111 2.028-13.88.315-6.502-4.731-6.805-6.736-.082-6.503 1.853-9.533c0 0 3.344 0 3.403-5.198 0 0 .361-3.228-2.588-3.228-.582-.035-1.62 1.072-1.62 1.072z" class="D"/><path d="M165.786 92.321s7.26 15.476 9.906 24.729 5.791 20.965 4.964 28.051c-.816 7.085-2.389 13.821-14.835 13.914l1.352 4.429h-49.552l.152-5.734s-1.457 4.534-8.717 2.238c-7.249-2.296-22.247-21.874-22.247-21.874l1.259-.956.28.594h12.667l-5.593-8.565.886-.35s.117 1.247 1.841 1.935c0 0 2.365.07 5.943-.49 0 0 3.869 2.751 9.498 7.109l2.972-8.181-6.329-4.568-.547-13.833c.058-2.272.093-6.083 2.901-12.341s7.494-13.856 8.356-14.334l3.205-4.195s-1.189 3.112-.932 6.538c0 0-.268 5.431-.082 9.486s1.002 11.164 1.002 11.164 1.76-6.118 4.429-10.884l3.717-6.503s4.569-2.191 5.874-6.386c0 0 3.123.816 9.23-.291 6.106-1.119 8.67-3.123 13.506 1.935.024.012 3.112 3.45 4.895 7.365z" class="E"/><path d="M131.232 58.109s-1.305-1.9-3.776-9.055l-.559 5.629-17.34 1.352s-1.364-5.372.361-8.099 6.642-6.911 15.639-6.992l5.419.956c0 0-1.701-6.305-.769-8.915s1.83-4.289 6.456-2.739c4.557 1.527 4.452 5.291 3.438 7.703-1.154 2.739-4.452 5.547-4.452 5.547s3.24.792 3.298 3.216.594 11.712 2.04 15.814c1.305 3.683 2.936 6.608 6.957 6.643 3.904.035 10.022.629 11.222 5.501.944 3.846-.501 5.594 3.124 7.855 2.901 1.806 3.566 3.158 3.472 9.836 0 0-2.027-4.032-3.134-5.442-1.119-1.41-3.893-4.312-7.016-5.139 0 0-1.352-.303-4.836.431s-7.517 2.307-13.286.594-6.502-4.731-6.794-6.736c-.303-2.005-.081-6.503 1.853-9.533 0 0 3.345 0 3.403-5.197 0 0-.349-3.683-3.298-3.683-.559-.035-1.422.455-1.422.455z" class="B"/><path d="M173.974 106.772s-8.682 5.955-9.754 13.857c-1.072 7.912 1.748 8.647 0 11.572s-4.487 14.077 1.597 22.352c5.931 8.076 13.133 6.561 13.133 6.561l22.259-43.282-27.235-11.06z" fill="#f9f9f9"/><path d="M123.607 75.247l1.142 3.077-.524 1.41s-.734 3.31-1.632 4.58c0 0-3.379 1.282-4.918-1.795-1.538-3.088-1.06-6.584-1.06-6.584s1.725.431 4.918-.315c1.41-.338 2.074-.373 2.074-.373z" class="B"/><path d="M127.41 49.632c.023-.058.303 7.575 2.552 9.137.233.151 2.074-2.156 4.452-.641s1.62 4.906 1.049 6.211c-.56 1.305-2.063 2.762-4.534 1.958 0 0-1.783 3.683-1.934 6.34-.163 2.657-.187 4.685 1.189 6.643 0 0-.105 2.704-2.191 3.03-2.098.326-2.611-1.9-2.611-1.9l-1.759-4.988s-4.662 1.084-6.515.781c-1.841-.303-3.787-1.818-4.452-3.939-.652-2.121-1.573-4.242-1.911-8.228l-.85-8.204 16.932-1.282s.257-3.986.583-4.918zm-10.852 79.547l-2.972 8.181-4.149-1.55c-3.659-1.457-7.074-5.734-6.293-4.825s2.482 3.764 1.748 4.382c-1.142.944-3.449-.373-5.034-2.401l-1.713-2.226s-2.028-1.014-2.109-2.634.42-1.934 1.305-2.785 2.133-1.678 2.133-1.678-4.079-.757-6.969-1.771c-2.925-1.026-3.193-2.11-2.832-2.82s.932-.875 3.263-.595 12.038 2.739 12.096 2.762c1.235.443 11.526 7.96 11.526 7.96z" class="C"/><g fill="#463d00"><path d="M190.967 138.07c-.641-1.48-1.526-2.657-1.27-4.23.35-2.168 2.89-3.636 4.091-5.466 1.316-1.992 1.794-4.265.78-6.456-.757-1.643-2.051-3.041-3.403-4.347-.908-.874-1.888-1.783-2.214-2.936-.198-.7-.14-1.445-.07-2.168.432-3.997 4.802-13.18-1.293-15.348-3.275-1.165-5.419 4.37-5.839 6.27-.839 3.764.408 7.854-2.179 11.246-1.34 1.748-3.45 2.89-5.198 4.335-2.424 2.004-4.172 4.801-4.358 7.773-.163 2.669 2.028 4.778 1.911 7.365-.093 2.121-1.934 3.519-3.007 5.256-3.193 5.139 1.026 11.292 6.317 13.74 1.27.582 2.389.99 3.799 1.153l11.933-16.187z"/><path d="M201.747 127.341c-1.608-.711-3.554-.373-4.918 1.445-1.026 1.363-1.503 3.041-2.074 4.638-.618 1.701-1.434 3.426-3.077 4.312-1.643.897-3.648.885-5.302 1.794-2.156 1.177-4.067 2.821-5.443 4.86-2.121 3.146-2.866 7.283-1.596 10.861 1.515 4.3 6.281 7.319 10.826 6.678 3.589-.501 6.631-3.24 8.099-6.561s1.539-7.121.851-10.687c-.641-3.333 1.69-5.034 3.543-7.446 1.387-1.818 2.261-4.161 1.795-6.398-.35-1.679-1.411-2.925-2.704-3.496z"/></g><path d="M101.024 137.718H88.357l-13.483-20.976h12.493l13.658 20.976z" fill="#fff"/><path d="M77.191 120.487l2.82 4.335 5.512-.536c1.119-.035 3.857.152 4.126.968s-.501 1.701-1.457 1.992c0 0 2.692-.361 3.263.595.583.955-1.247 2.261-2.925 2.622 0 0 3.298-.804 3.822.466s-3.59 3.659-6.596 4.137c-3.007.49-3.309.268-4.743-.583-1.422-.85-3.356-4.684-3.752-5.617-.419-.944-.07-8.379-.07-8.379z" class="C"/><path d="M101.955 136.895l-.933.827-13.658-20.976-12.411-.094 1.317-.559h12.062l13.623 20.802z" fill="#fff"/><path d="M117.418 68.912l.905-.452h2.261l.452-.904.905-1.809h.904l.905.452v2.261l-1.357 1.809-2.261.905-1.809-.905-.905-1.357z" fill="#eee"/><g class="B"><path d="M120.239 71.361c-1.527 0-2.727-.862-2.961-1.666-.128-.454-.069-.886.187-1.224.373-.489 1.107-.734 1.888-.583.384.07.652.105.827.105.56-.233.641-.291.863-1.189.221-.874.874-1.492 1.585-1.492.326 0 .641.128.92.373.42.361.63 1.096.56 1.969-.094 1.294-.758 2.447-1.76 3.088-.641.408-1.364.618-2.109.618zm-1.352-2.832c-.385 0-.711.128-.874.35-.128.163-.152.373-.082.618.14.489 1.084 1.177 2.296 1.177a3.17 3.17 0 0 0 1.748-.524c.816-.524 1.352-1.48 1.433-2.552.059-.722-.128-1.224-.326-1.398-.524-.455-1.189-.023-1.387.769-.256 1.014-.408 1.235-.804 1.492-.326.21-.559.326-1.689.105-.094-.023-.21-.035-.315-.035zm55.087 42.495c-3.368-7.633-9.72-21.21-10.827-22.83-1.2-1.771-2.366-3.275-5.396-5.186-2.424-1.527-4.906-.944-8.041-.21-3.577.839-8.041 1.888-14.217.245-3.077-.816-5.151-2.424-6.188-4.766-2.261-5.104 1.177-11.84 1.328-12.132a.35.35 0 0 1 .467-.151c.174.093.232.303.151.466-.035.07-3.426 6.736-1.305 11.526.955 2.144 2.878 3.624 5.733 4.382 6.002 1.596 10.372.571 13.88-.257 3.298-.781 5.908-1.387 8.565.291 3.135 1.981 4.394 3.613 5.594 5.384 1.119 1.643 7.517 15.302 10.57 22.748.07.175-.012.385-.186.455-.047.035-.093.035-.128.035zm-10.297 48.385c-22.935 0-51.801-16.397-52.127-16.584-.152-.419 5.512-16.047 5.512-16.047.058-.163.245-.268.408-.221l45.578 11.444c.186.046.303.233.256.419s-.245.303-.419.257l-45.275-11.374-5.466 15.056c3.287 1.83 37.281 20.383 59.528 15.558.186-.047.372.082.407.268.047.187-.081.373-.268.42-2.564.559-5.314.804-8.134.804z"/><path d="M132.223 66.85c-.513 0-1.107-.093-1.771-.315-.187-.058-.28-.256-.222-.443s.256-.28.443-.21c1.317.454 2.436.361 3.321-.256 1.154-.816 1.667-2.401 1.678-3.613 0-.932-.198-3.962-2.995-4.032-1.713 0-2.645 1.818-2.657 1.841-.081.175-.291.245-.466.151-.175-.082-.244-.291-.151-.466.046-.093 1.142-2.226 3.228-2.226 2.797.07 3.752 2.482 3.752 4.731-.011 1.282-.524 3.146-1.969 4.172-.501.338-1.224.664-2.191.664zm1.001-2.268c-.163-.035-2.902-1.468-2.902-1.468-.093-.536 2.844-3.788 2.844-3.788.128-.14.349-.151.489-.023a.35.35 0 0 1 .024.489l-2.646 2.913 2.343 1.224a.35.35 0 0 1 .151.466c-.058.117-.175.186-.303.186zm-15.047 12.047a7.04 7.04 0 0 1-1.329-.117c-1.899-.338-3.309-1.538-4.312-3.648-1.538-3.228-1.934-6.817-2.319-10.302l-.676-6.619c.024-.187.21-.326.396-.291.187.023.327.21.292.396l.617 5.967c.431 3.892.828 7.435 2.319 10.547.898 1.888 2.145 2.96 3.811 3.263 1.002.186 2.156.117 3.625-.187 1.748-.373 3.146-.746 4.381-1.165.187-.058.385.035.443.221s-.035.385-.221.443c-1.271.431-2.681.804-4.464 1.189-.955.198-1.794.303-2.563.303zm-1.174-9.395c-.792-.082-3.274-.385-3.717-1.2a.69.69 0 0 1 0-.641c2.447-4.696 2.633-7.552 2.633-7.575.012-.186.164-.326.35-.326.21.012.361.175.35.361 0 .116-.175 3.007-2.716 7.855.105.28 1.609.676 3.135.827a.36.36 0 0 1 .315.385c-.012.186-.163.315-.35.315z"/><path d="M110.054 58.239c-.338-.14-.396-.35-.303-.513.035-.058.932-1.55 3.682-1.13.187.023.327.21.292.396-.024.186-.21.315-.396.291-2.261-.338-2.949.746-2.972.792a.4.4 0 0 1-.303.163zm13.03-.511c-.327-.21-1.562-1.795-4.545-1.142-.187.035-.373-.082-.408-.268-.047-.186.081-.373.268-.419 3.438-.746 4.906 1.189 4.964 1.27.117.152.082.373-.069.489a.38.38 0 0 1-.21.07zm-2.226 3.766c.268-.012.478-.245.454-.513l-.069-1.364c-.012-.268-.245-.478-.513-.455-.268.012-.478.245-.455.513l.07 1.364c.012.268.245.466.513.454zm-8.215.654c.268-.012.478-.245.455-.513l-.07-1.363c-.012-.268-.245-.478-.513-.455-.268.012-.478.245-.455.513l.07 1.364c.012.256.245.466.513.454zm53.141 30.52c-.221-.012-.361-.186-.349-.373.512-6.864-1.469-8.262-3.38-9.603-1.445-1.014-2.937-2.063-2.89-5.442.105-7.062-5.594-7.423-12.178-7.855-7.412-.478-8.298-16.106-8.344-22.806 0-.268-.047-.513-.129-.746-.349-.967-1.246-1.352-2.202-1.748-8.111-3.414-15.29-3.741-21.385-1.014-3.24 1.457-7.097 3.951-7.085 7.54.012 4.347.14 5.139.175 5.267-.094.478-.303.548-.478.455-.198-.105-.373-.198-.396-5.722-.012-3.135 2.587-5.967 7.493-8.169 6.27-2.82 13.635-2.494 21.897.99 1.049.443 2.18.921 2.634 2.179a2.97 2.97 0 0 1 .163.979c.035 5.069.676 21.664 7.633 22.107 6.421.408 13.006.839 12.901 8.554-.035 3.007 1.177 3.869 2.587 4.859 1.981 1.387 4.219 2.96 3.671 10.22-.011.186-.163.326-.338.326z"/></g><path d="M123.753 82.022l.905-3.166.904 2.261 1.357 1.357 2.261-.452.905-2.261 2.261 1.809 2.714.905 3.166.904-4.071 5.427-2.261.904-2.261-.452-1.809-1.809-1.357-2.714-.453 1.357-.904 1.809h-1.357l-.452-2.261.452-3.618z" class="H"/><g class="B"><path d="M131.125 90.057c-3.03-.291-4.09-2.529-4.533-4.533-.338 1.492-.944 2.937-2.028 3.03-.466.035-.862-.152-1.154-.548-1.048-1.398-.664-5.535.909-9.638.07-.175.269-.268.455-.198.175.07.268.268.198.454-1.608 4.207-1.771 7.936-1.002 8.962.151.198.338.291.536.268 1.072-.082 1.701-3.286 1.806-5.535.012-.21.163-.361.362-.35a.35.35 0 0 1 .326.361c-.012.221-.222 6.608 3.741 7.016 4.288.023 7.248-6.153 7.272-6.211a.34.34 0 0 1 .466-.163.35.35 0 0 1 .163.466c-.128.268-3.17 6.619-7.517 6.619zm27.373 47.526c-.373-.373-4.58-13.343-11.549-31.465a.36.36 0 0 1 .198-.454c.187-.07.385.023.455.198 6.98 18.145 11.188 31.127 11.234 31.255.058.187-.047.373-.222.431-.034.024-.069.035-.116.035zm-40.881 25.897c-.198 0-.349-.163-.349-.361l.466-17.189c0-.198.151-.361.361-.338.186 0 .338.163.338.361l-.466 17.189c0 .198-.163.338-.35.338zm49.474.069c-.338-.245-1.608-4.428-1.608-4.428a.346.346 0 0 1 .664-.198l1.282 4.183c.058.187-.047.373-.233.431-.035.012-.07.012-.105.012z"/><path d="M116.828 128.825c-.349-.233-6.432-9.078-5.442-17.806.944-8.356 6.748-25.569 12.528-31.302.14-.14.35-.14.489 0s.14.361 0 .489c-5.489 5.454-11.385 22.585-12.329 30.883-.956 8.472 4.976 17.096 5.046 17.189a.35.35 0 0 1-.082.478c-.081.046-.151.069-.21.069zm-15.853 9.245H88.389c-.291-.163-2.132-2.995-2.132-2.995-.105-.163-.058-.373.105-.478s.373-.058.478.105l1.736 2.68h11.758l-13.168-20.289H75.384l4.906 7.54c.105.163.058.373-.105.478s-.373.058-.478-.105l-5.256-8.076c.291-.536 12.901-.536 12.901-.536.291.163 13.914 21.14 13.914 21.14-.046.466-.163.536-.291.536z"/><path d="M100.976 138.074c-.396-.314-.349-.524-.198-.629l.688-.466-13.332-20.534H76.329l-1.457.629c-.175.082-.385-.011-.455-.186s.012-.385.187-.455l1.515-.652c.14-.024 12.201-.024 12.201-.024.291.164 13.914 21.14 13.914 21.14a.35.35 0 0 1-.093.478l-.967.653c-.059.023-.129.046-.199.046zm11.246 22.839c-.35 0-.723-.012-1.107-.035-7.436-.49-23.89-21.676-24.59-22.573.093-.501 1.387-1.329 1.387-1.329.163-.105.373-.058.478.105a.34.34 0 0 1-.105.478l-.979.618c2.063 2.633 17.178 21.571 23.844 22.013 2.657.163 4.58-.303 5.57-1.375.909-.979.746-2.121.734-2.179a.36.36 0 0 1 .292-.396c.21-.035.372.105.396.291.011.058.221 1.503-.898 2.739-.99 1.095-2.68 1.643-5.022 1.643zm-1.994-35.951c-.174 0-.326-.14-.349-.315 0-.023-.221-2.657-.559-14.031-.338-11.491 11.42-26.85 11.921-27.503.117-.151.338-.175.49-.058a.35.35 0 0 1 .058.49c-.116.151-12.108 15.814-11.77 27.06l.547 13.996c.012.187-.128.362-.314.373 0-.011-.012-.011-.024-.011zm60.45 38.646a.35.35 0 0 1-.35-.349.35.35 0 0 1 .35-.35l23.156-.116c.198 0 .349.151.349.349a.35.35 0 0 1-.349.35l-23.156.116z"/><use href="#Q"/><use href="#Q"/><path d="M188.763 136.105c-.454-.536-.617-.839-.757-1.142-.548-1.107-1.061-2.156-.851-3.484.233-1.48 1.387-2.622 2.494-3.73.629-.629 1.235-1.223 1.655-1.864.955-1.457 1.864-3.706.757-6.118-.746-1.62-2.039-2.995-3.333-4.242-1.025-.991-1.958-1.9-2.307-3.1-.222-.758-.164-1.527-.07-2.308.105-.955.419-2.191.757-3.507 1.142-4.417 2.552-9.918-1.829-11.468-.653-.233-1.271-.175-1.9.163-1.876 1.037-3.17 4.382-3.496 5.851-.292 1.293-.326 2.668-.361 3.997-.047 1.69-.094 3.449-.653 5.093-.07.186-.268.279-.443.221-.186-.058-.28-.256-.221-.443.536-1.55.571-3.17.617-4.883.035-1.363.07-2.773.373-4.137.28-1.247 1.585-5.058 3.835-6.305.804-.443 1.631-.513 2.47-.21 4.976 1.771 3.403 7.854 2.261 12.306-.327 1.282-.641 2.506-.746 3.403-.082.711-.128 1.398.058 2.039.292 1.014 1.166 1.865 2.005 2.669 1.456 1.41 2.808 2.844 3.601 4.568.978 2.145.699 4.487-.804 6.794-.467.7-1.108 1.352-1.749 1.982-1.025 1.025-2.085 2.086-2.295 3.344-.175 1.107.268 2.016.792 3.065.152.315.315.629.455.967.081.175 0 .385-.175.455-.035.011-.093.023-.14.023z"/><path d="M186.74 160.05c-4.312 0-8.496-2.937-9.929-6.992-1.247-3.531-.618-7.808 1.643-11.165 1.34-1.992 3.263-3.717 5.558-4.976.874-.478 1.83-.711 2.751-.944.909-.221 1.759-.431 2.54-.85 1.539-.839 2.308-2.483 2.914-4.126.105-.268.198-.548.291-.827.466-1.34.956-2.739 1.83-3.904.932-1.247 2.214-1.935 3.601-1.935.594 0 1.177.128 1.748.373 1.468.653 2.552 2.051 2.901 3.753.443 2.121-.232 4.556-1.864 6.677-.373.49-.769.944-1.154 1.399-1.503 1.759-2.808 3.274-2.33 5.768.78 4.067.489 7.832-.874 10.885-1.632 3.671-4.837 6.27-8.368 6.771-.396.058-.827.093-1.258.093zm11.21-35.031c-1.165 0-2.237.582-3.041 1.655-.816 1.083-1.282 2.424-1.737 3.717-.093.28-.198.56-.291.828-.653 1.783-1.492 3.554-3.228 4.51-.862.466-1.806.699-2.715.92-.921.222-1.795.443-2.588.874-2.202 1.212-4.043 2.855-5.325 4.755-2.145 3.181-2.739 7.225-1.562 10.547 1.34 3.787 5.244 6.526 9.277 6.526a8.18 8.18 0 0 0 1.188-.082c3.252-.454 6.317-2.948 7.831-6.363 1.294-2.925 1.585-6.549.828-10.477-.548-2.831.921-4.544 2.482-6.351.373-.443.769-.897 1.131-1.375 1.503-1.958 2.132-4.184 1.736-6.106-.303-1.492-1.247-2.704-2.506-3.263-.489-.199-.979-.315-1.48-.315z"/><path d="M173.158 163.644c-.256-.047-.372-.222-.337-.408l11.572-62.185c.035-.186.209-.314.408-.279.186.035.314.221.279.408l-11.572 62.184c-.035.163-.187.28-.35.28zm7.205.163c-.327-.128-.397-.338-.304-.513l17.912-33.971c.082-.174.292-.233.466-.139.164.093.233.303.14.466l-17.911 33.97c-.059.117-.175.187-.303.187zm-52.954-81.054a1.87 1.87 0 0 1-.898-.221c-1.06-.548-1.48-1.993-1.69-2.692l-1.538-4.289c-.07-.175.023-.385.198-.454.187-.07.385.023.455.198.011.023.99 2.529 1.491 4.137.233.816.606 2.063 1.399 2.482.326.175.711.186 1.165.035 1.911-.653 1.853-2.727 1.853-2.75-.012-.187.14-.35.338-.361.163.012.35.14.361.338 0 .023.07 2.622-2.319 3.438a2.67 2.67 0 0 1-.815.14zm-8.299 2.361a4.02 4.02 0 0 1-2.319-.711c-1.911-1.352-2.738-4.475-2.459-9.276.012-.186.164-.326.35-.326.21.012.361.175.35.361-.257 4.475.489 7.47 2.167 8.659 1.515 1.072 3.333.338 3.345.338.163-.07.373.012.455.187.069.175-.012.385-.187.454-.058.023-.769.315-1.702.315zm11.08-25.843c-1.748-.897-2.505-4.125-2.855-6.724l-.081 2.051c0 .186-.14.326-.327.338l-19.065 1.41c-.21 0-.361-.14-.373-.315a.35.35 0 0 1 .315-.373l18.739-1.387c.023-.862.105-3.275.466-5.303.035-.175.152-.291.373-.28.175.012.314.152.326.338.07 2.307.676 8.542 2.634 9.591.163.093.233.303.14.466-.047.128-.175.187-.292.187zm5.478-15.452c-.384-.256-.373-.478-.233-.606.059-.047 5.594-5.011 4.918-8.973-.268-1.55-1.48-2.762-3.601-3.624-2.995-1.212-5.291-1.2-6.643.023-1.806 1.631-1.957 5.419-.442 10.663.058.186-.058.373-.233.431-.187.058-.373-.058-.432-.233-1.619-5.594-1.398-9.533.641-11.374 1.562-1.422 4.114-1.468 7.366-.152 2.365.956 3.717 2.354 4.02 4.149.746 4.335-4.895 9.393-5.139 9.603-.059.07-.14.093-.222.093zm-11.526 63.897c-.186-.012-.326-.128-.349-.303-.012-.117-1.585-11.969-.781-20.336a.36.36 0 0 1 .384-.315.36.36 0 0 1 .315.385c-.606 6.316.151 14.649.559 18.32 1.527-5.221 4.965-11.421 7.727-15.931.093-.163.314-.21.478-.117.163.105.21.315.116.478-3.065 5-6.969 12.097-8.099 17.539-.047.163-.187.28-.35.28zM113.6 137.709c-4.126-1.154-6.771-2.75-8.449-4.114.279.688.407 1.352.163 1.795-.233.431-.711.606-1.422.548-3.018-.268-5.512-4.149-5.99-4.953-.385-.128-.478-.326-.408-.501.07-.187.268-.28.443-.21.513.28 3.088 4.708 6.025 4.965.291.023.641.011.746-.187.268-.501-.455-1.911-1.294-3.146-.524-.606-.757-1.014-.781-1.073-.093-.163-.035-.361.117-.454s.35-.07.466.07l.711.967c1.177 1.375 4.044 3.974 9.777 5.606.187.046.292.244.245.431a.37.37 0 0 1-.349.256zm-17.297-9.007c-.699-.781-.559-1.631-.501-1.876.233-1.107 1.806-2.354 2.773-3.03l-4.254-.979c-1.701-.419-2.564-.944-2.599-.967-.163-.105-.21-.315-.117-.478.105-.163.315-.21.478-.116.012 0 .816.501 2.401.885l5.046 1.119c-.676 1.142-2.832 2.657-3.041 3.706-.07.349-.093.874.116 1.189a.34.34 0 0 1-.105.477.29.29 0 0 1-.198.07zm20.044.69c-2.89-2.086-10.174-7.412-11.77-7.82l-.711-.186c-2.809-.734-9.405-2.471-12.341-2.739-.583-.058-1.026.024-1.212.21-.128.14-.35.14-.489.012a.35.35 0 0 1-.012-.49c.338-.361.944-.501 1.783-.419 2.995.268 9.615 2.016 12.447 2.75l.71.186c2.051.537 11.41 7.575 11.806 7.878.151.117.186.338.07.49-.07.081-.175.128-.28.128z"/><path d="M98.11 131.034c-.361-.292-1.445-2.553-.233-3.683 1.06-.991 3.182-2.063 3.275-2.098.175-.081.384-.023.466.152s.012.384-.152.466c-.023.012-2.121 1.072-3.111 1.993-.816.769.07 2.657.07 2.668a.35.35 0 0 1-.163.467c-.047.023-.093.035-.152.035zm-14.296 4.592c-.256 0-.501-.012-.722-.046-3.146-.408-5.209-4.639-5.99-6.235-.804-1.597-.221-8.018-.163-8.74.012-.187.14-.338.373-.315.186.023.326.186.315.373-.245 2.668-.489 7.213-.07 8.029.897 1.841 2.855 5.839 5.617 6.188 2.541.315 7.155-1.445 8.519-2.936.198-.222.431-.537.361-.805-.944-.757-2.575-.454-3.286-.279-.326.081-.501-.024-.548-.21a.34.34 0 0 1 .245-.419c1.736-.49 2.576-1.306 2.68-1.935.047-.28-.047-.501-.291-.664-.734-.501-2.307-.14-2.855.046-.187.059-.373-.035-.443-.209a.35.35 0 0 1 .21-.443c.606-.233 1.841-.898 1.748-1.492-.082-.548-1.946-1.328-6.06-.757l-4.451.407a.36.36 0 0 1-.315-.384c.012-.187.151-.338.373-.315 0 0 .909.07 4.289-.408 4.498-.629 6.677.222 6.852 1.341.07.489-.175.908-.536 1.258.524-.023 1.13.082 1.573.373.466.315.676.804.583 1.352-.082.454-.396 1.002-1.014 1.48.49.011.967.093 1.329.303.303.186.513.454.583.792.105.455-.082.933-.536 1.422-1.48 1.678-5.664 3.228-8.367 3.228z"/><path d="M80.412 129.207c-.373-.478-.245-.665-.058-.688l7.47-1.515c.186-.047.373.082.42.268s-.07.373-.268.42l-7.505 1.515h-.058zm1.07 3.1c-.373-.478-.245-.664-.058-.688l7.47-1.503c.186-.047.373.081.419.256.047.187-.07.373-.268.42l-7.505 1.515h-.058z"/></g><defs><filter id="C" x="-35.658" y=".808" width="184.02" height="199.414" filterUnits="userSpaceOnUse" color-interpolation-filters="sRGB"><feFlood flood-opacity="0"/><feBlend in="SourceGraphic"/><feGaussianBlur stdDeviation="1"/></filter><linearGradient id="D" x1="24.494" y1="15.328" x2="108.399" y2="40.405" gradientUnits="userSpaceOnUse"><stop stop-color="#f7f6dc"/><stop offset="1" stop-color="#e3ffe1"/></linearGradient><path id="E" d="M40.035 42.613s-3.88-14.872 3.313-16.928c0 0 2.892-3.113 5.601-4.296 0 0-6.736-8.209-5.07-12.687s6.406-5.588 12.135-5.661c5.729-.055 12.044 1.675 12.41 6.08s-5.381 12.141-5.381 12.141 8.401 2.148 8.786 9.101c.384 6.972-.586 11.577-.586 11.577l-1.94 1.42-27.876 1.675-1.391-2.421z"/><path id="F" d="M49.113 43.382c.403-.055.659.109.769 1.511.128 1.584-.293 1.857-.641 1.838s-.714-.491-.696-1.62c.018-1.11.055-1.638.567-1.729z"/><path id="G" d="M39.323 51.172c-.293-.874 2.654-3.149 2.654-3.149l-3.313-2.439c.586-.783 4.43 2.039 4.43 2.039 0 .783-3.459 3.44-3.459 3.44a.5.5 0 0 1-.311.109z"/><path id="H" d="M72.8 51.169c-.293-.109-3.771-2.767-3.771-2.767 0-.783 3.844-3.604 3.844-3.604.586.783-2.727 3.222-2.727 3.222l2.947 2.275c0 .801-.147.874-.293.874z"/><path id="I" d="M56.052 64.693c.532-.225-.614-.776 0-.969 3.093.15 6.218-.921 8.237-2.507 1.977-1.565 3.313-4.15 4.045-7.863.458-2.33.549-8.1.494-11.395 1.025 2.294 1.007 8.901.476 11.595-.787 3.968-2.233 6.735-4.411 8.446-2.819 2.221-6.351 2.694-8.84 2.694z"/><path id="J" d="M68.664 42.455c-9.371 0-19.017-8.755-21.47-11.14-.622 1.966-2.343 7.008-4.1 8.992.366-.831-.669.488-.237-.762 1.082-3.131 3.628-9.252 3.641-9.304.952-.091 12.465 11.668 22.788 11.213-.183.983-.403 1.001-.622 1.001z"/><path id="K" d="M46.964 73.708c-.311-.036-.512-.273-.494-.546.256-2.73 1.347-11.013 1.347-11.031.988.055-.084 8.356-.358 11.122-.037.273-.256.455-.494.455z"/><path id="L" d="M53.586 56.342l1.114-.561h2.784l.557-1.122 1.114-2.243h1.114l1.114.561v2.804l-1.671 2.243-2.784 1.122-2.227-1.122-1.114-1.682z"/><path id="M" d="M45.454 28.69c-.403-.2-1.995-2.439-1.995-2.439.805-.564 2.398 1.656 2.398 1.656-.201.765-.293.783-.403.783z"/><path id="N" d="M4.199 118.896c-.494-.71-.879-23.117 8.822-37.934 9.774-14.944 33.697-11.125 33.899-11.107.421.801.165 1.019-.092.983-.22-.018-23.539-3.764-32.983 10.652-9.536 14.562-9.152 36.678-9.152 36.896-.476.51-.494.51-.494.51z"/><path id="O" d="M64.633 72.724c-.732-3.113-1.297-10.519-1.297-10.556.988 0 1.553 7.37 1.791 10.01-.458.546-.476.546-.494.546z"/><path id="P" d="M55.771 73.91c-9.298 0-9.975-4.387-9.994-4.569.988-.091 1.647 3.586 9.994 3.586 8.328 0 8.767-3.659 8.767-3.695.97.273.549 4.678-8.767 4.678z"/><path id="Q" d="M176.298 150.113c-1.503-.163-2.657-.595-3.939-1.177-3.461-1.597-6.304-4.673-7.26-7.855-.676-2.249-.396-4.463.792-6.386.338-.548.758-1.061 1.154-1.562.897-1.118 1.736-2.167 1.806-3.519.059-1.189-.419-2.284-.92-3.438-.536-1.224-1.084-2.494-.991-3.939.187-2.902 1.818-5.827 4.487-8.018a20.55 20.55 0 0 1 .991-.769c.151-.116.372-.081.489.07s.082.373-.07.49a20.19 20.19 0 0 0-.955.745c-2.518 2.075-4.068 4.825-4.243 7.529-.081 1.27.408 2.412.933 3.612.513 1.177 1.037 2.401.979 3.753-.07 1.585-1.026 2.773-1.958 3.927-.385.478-.793.979-1.107 1.492-1.084 1.748-1.34 3.764-.723 5.815.898 2.995 3.601 5.908 6.888 7.423 1.223.56 2.319.968 3.694 1.119a.35.35 0 0 1 .303.385c-.023.175-.175.303-.35.303z"/></defs></svg>