<svg xmlns="http://www.w3.org/2000/svg" width="187" height="60" fill="none"><style><![CDATA[.B{fill-rule:evenodd}.C{fill:#fff}.D{fill:#000}]]></style><g clip-path="url(#B)"><g class="D"><path d="M67.424 9.876c-7.606 0-13.365 5.318-13.365 12.444s5.796 12.442 13.26 12.442c4.467 0 7.975-1.92 10.226-4.614v-.519l-4.428-3.765H72.6a7.18 7.18 0 0 1-2.362 1.702c-.895.4-1.863.612-2.844.623-3.288 0-5.871-2.474-5.871-5.869s2.584-5.871 5.871-5.871a7.17 7.17 0 0 1 5.206 2.325h.517l4.428-3.765v-.517c-2.325-2.805-5.978-4.616-10.114-4.616M81.304 34.31H99.69v-6.013H88.613v-3.384h8.345v-5.64h-8.345v-3.384H99.69V9.876H81.304V34.31zm86.905-25.903l9.635-3.617v-.517L175.299.064h-.519l-8.528 5.242v.517l1.441 2.583h.516zm13.375 17.446l-2.926-6.511-4.246-9.463h-6.719L157.466 34.31h7.68l1.372-3.683h9.122c.738 1.317 1.513 2.33 2.361 3.009 1 .752 2.218 1.125 3.768 1.125 1.218.025 2.424-.249 3.512-.798l-3.297-7.289a10.65 10.65 0 0 1-.4-.821zm-13.217-.112l2.696-7.254 2.547 7.254h-5.243zm-41.843.112l-2.919-6.511-4.244-9.463h-6.719L102.416 34.31h7.679l1.372-3.683h9.117c.739 1.317 1.516 2.33 2.364 3.009.997.752 2.216 1.125 3.766 1.125a7.42 7.42 0 0 0 3.509-.798l-3.294-7.289c-.128-.229-.261-.508-.4-.821m-13.217-.112l2.695-7.254 2.547 7.254h-5.242zm36.438-1.015c2.661-1.203 4.431-3.496 4.431-6.692 0-5-3.395-8.157-9.71-8.157h-11.372V34.31h7.316v-8.571h.592c1.624 0 3.137 3.347 4.022 4.925 1.662 2.933 3.214 4.099 6.536 4.099 1.477 0 2.991-.489 3.729-1.09l.023-.062-5.409-8.715c-.051-.057-.101-.117-.153-.169m-5.579-3.873h-3.765v-4.961h3.765c1.372 0 2.547.915 2.547 2.556 0 1.616-1.182 2.405-2.547 2.405zM61.921 42.982c.005.5-.091.996-.283 1.458s-.476.88-.835 1.229a3.96 3.96 0 0 1-2.801 1.106c-2.25 0-3.946-1.648-3.946-3.887s1.742-3.887 3.955-3.887c.595-.005 1.184.121 1.724.37s1.019.614 1.401 1.07v.139l-1.106.933h-.139a2.33 2.33 0 0 0-1.829-.887c-1.187 0-2.167.933-2.167 2.273a2.15 2.15 0 0 0 2.204 2.247c.524.01 1.033-.175 1.429-.519a1.74 1.74 0 0 0 .553-.992h-2.005v-1.324h3.688l.139.114a4.65 4.65 0 0 1 .023.553m1.2-.09c0-2.224 1.774-3.887 4.115-3.887s4.104 1.66 4.104 3.887-1.776 3.887-4.104 3.887-4.115-1.662-4.115-3.887zm6.386 0a2.27 2.27 0 0 0-2.71-2.242c-.442.087-.848.302-1.166.62a2.27 2.27 0 0 0 1.606 3.883 2.21 2.21 0 0 0 2.27-2.262zm10.267-3.608l-3.377 7.355h-1.063l-3.377-7.355.082-.139h1.843l1.982 4.819 2.053-4.819h1.774l.082.139zm3.164 1.338v1.557h2.835v1.406h-2.835v1.578h3.688v1.477h-5.487v-7.492h5.466v1.475h-3.667zm11.72 5.88l-.08.139h-1.785l-1.52-2.814h-1.049v2.814H88.43v-7.494h3.237c1.891 0 2.894.915 2.894 2.387 0 1.013-.576 1.717-1.475 2.058l1.578 2.91zm-4.426-3.909h1.443c.61 0 1.047-.368 1.047-.969a.97.97 0 0 0-1.048-1.002h-1.443v1.971zm12.86-3.448v7.529h-1.118l-3.802-4.463v4.429h-1.788v-7.494h1.118l3.79 4.463v-4.463h1.8zm1.726 3.747c0-2.224 1.774-3.887 4.115-3.887s4.104 1.66 4.104 3.887-1.777 3.887-4.104 3.887-4.115-1.662-4.115-3.887zm6.385 0a2.27 2.27 0 0 0-.377-1.266 2.28 2.28 0 0 0-1.018-.842 2.27 2.27 0 0 0-1.314-.134c-.442.087-.848.302-1.167.62a2.28 2.28 0 0 0-.625 1.164 2.27 2.27 0 0 0 2.231 2.719 2.22 2.22 0 0 0 .876-.155 2.21 2.21 0 0 0 .744-.488 2.19 2.19 0 0 0 .491-.742c.112-.278.166-.576.159-.876zm13.734-.011c0 2.261-1.518 3.759-3.942 3.759h-3.273v-7.492h3.271c2.424 0 3.942 1.498 3.942 3.733m-1.829.011c0-1.417-.876-2.27-2.17-2.27h-1.417v4.543h1.417c1.294 0 2.17-.853 2.17-2.273zm3.118 0c0-2.224 1.776-3.887 4.115-3.887s4.116 1.66 4.116 3.887-1.777 3.887-4.116 3.887-4.115-1.662-4.115-3.887zm6.388 0a2.27 2.27 0 0 0-1.396-2.108 2.27 2.27 0 0 0-1.314-.134c-.442.087-.848.302-1.166.62a2.27 2.27 0 0 0-.625 1.164c-.088.441-.044.899.128 1.315s.464.771.838 1.021.815.383 1.265.383c.299.008.597-.045.876-.155a2.21 2.21 0 0 0 .744-.488 2.22 2.22 0 0 0 .491-.742c.112-.278.166-.576.159-.876zm8.315-2.27v1.557h2.835v1.406h-2.835v1.578h3.688v1.477h-5.487v-7.492h5.466v1.475h-3.667zm4.929 4.808v-.139l.887-1.024h.128c.536.59 1.281.945 2.076.99.736 0 1.198-.3 1.198-.739 0-.631-.727-.713-1.651-1.001-1.024-.325-2.286-.901-2.286-2.286 0-1.301 1.143-2.213 2.824-2.213 1.223 0 2.27.485 2.812 1.143v.126l-.887 1.013h-.126c-.227-.247-.502-.446-.806-.587a2.55 2.55 0 0 0-.97-.232c-.599 0-1.013.256-1.013.67 0 .494.565.686 1.175.898 1.278.405 2.766.796 2.766 2.478 0 1.466-1.326 2.273-2.94 2.273-1.337 0-2.526-.53-3.201-1.349m11.226 1.188h-1.808v-6.017h-2.353v-1.475h6.514v1.475h-2.353v6.017zm10.121-.137l-.082.14h-1.829l-.542-1.315h-3.162l-.555 1.315h-1.752l-.082-.14 3.461-7.357h1.1l3.443 7.357zm-2.954-2.417l-1.047-2.547-1.084 2.547h2.131zm11.525-1.204c0 2.261-1.522 3.759-3.941 3.759h-3.272v-7.492h3.276c2.419 0 3.942 1.498 3.942 3.733m-1.829.011c0-1.417-.876-2.27-2.167-2.27h-1.418v4.543h1.418c1.291 0 2.167-.853 2.167-2.273zm3.109 0c0-2.224 1.777-3.887 4.116-3.887s4.115 1.66 4.115 3.887-1.777 3.887-4.115 3.887-4.116-1.662-4.116-3.887zm6.388 0a2.28 2.28 0 0 0-1.395-2.108c-.415-.174-.873-.22-1.315-.134s-.847.302-1.166.62a2.28 2.28 0 0 0-.625 1.164 2.27 2.27 0 0 0 .966 2.336 2.28 2.28 0 0 0 1.265.383 2.21 2.21 0 0 0 .876-.155c.279-.111.532-.277.744-.488a2.22 2.22 0 0 0 .491-.742c.112-.278.166-.576.159-.876z"/><g class="B"><path d="M34.555 10.787c-8.041-1.248-16.196-1.109-24.234.053l-.663.091 2.791-6.536.204-.032a62.49 62.49 0 0 1 9.746-.885c3.274.018 6.541.311 9.767.876l.201.032 2.862 6.504-.674-.103z"/></g></g><path d="M32.102 9.86l-.295-1.143h.046l2.142.258h.016l.528 1.196-2.437-.313m1.71-1.214l-5.149-.498h-.03l-.178-1.102h.039l4.874.51h.016l.482 1.091h-.055zm-.626-1.424l-1.799-.229h-.009l-.288-1.127h.043l1.6.206h.016l.505 1.143-.069.007zm-.649-1.477l-4.344-.457h-.025l-.197-1.157h.041l4.115.565h.016L32.6 5.75l-.064-.007zm-4.899-1.655l.199 1.166h-.041l-5.133-.178h-.032V3.818h.032a49.8 49.8 0 0 1 4.954.263l.021.007zm-5.32-.265v1.248h-.03l-4.854.169c-.11 0-.229.014-.336.023h-.039l.197-1.166h.023l5.007-.274h.032zm-5.386.304l-.185 1.157h-.025l-4.417.457h-.055l.457-1.059h.018l4.182-.565.025.009zm-4.815 1.957l1.646-.208h.043l-.297 1.143h-.021l-1.829.229h-.055l.501-1.168.011.005zm-.629 1.5l4.918-.512h.039l-.185 1.1h-.025l-5.176.498h-.055l.457-1.091.027.005zm-.606 1.422l2.154-.256h.043l-.3 1.182-2.435.299.519-1.219.018-.007zm2.229.885l.3-1.18h.021l5.8-.382h.03l-.105 1.104-6.047.457m6.356-.469l.107-1.104h.025l1.257-.032 4.433.014h.027l.105 1.088c-1.982-.056-3.963-.046-5.944.032m6.269-.023l-.103-1.088h.021l5.789.366h.023l.295 1.143-6.038-.423m5.014-3.573l.288 1.129h-.043l-5.487-.368h-.027l-.098-1.143h.037l5.306.396.025-.014zm-5.677-.412l.096 1.143h-.034c-1.727-.046-3.455-.041-5.185.014h-.229l.098-1.164h.027 5.199l.027.007zm-5.565.034l-.098 1.164h-.03l-5.487.384h-.046l.295-1.143h.021l3.299-.288 2.01-.117h.037zm-2.723 1.6l3.178-.158 2.327-.041h.032v1.113h-.03l-1.438.016-4.241.167h-.039l.188-1.097h.023zm5.88-.203l5.448.171h.025l.185 1.104h-.036l-5.62-.155h-.032V6.84h.03z" class="B C"/><g class="D B"><path d="M22.421 6.187c.622 0 .965.457 1.127.947l.784 2.355c-.75 0-2.862-.032-3.612-.018l.578-2.337c.046-.264.184-.504.389-.677s.465-.268.733-.269z"/><path d="M20.259 9.191l.165-1.34c.197-1.125.686-2.252 2.028-2.252.447-.014.883.141 1.221.434.812.722.862 2.145.967 3.148l.037.345h-.352-.395-.279l-.027-.277-.123-1.196c-.094-.606-.29-1.417-1.058-1.417-.172-.006-.342.046-.48.149-.571.439-.594 1.813-.654 2.471l-.023.277h-.284-.423-.352l.034-.343z"/></g><path d="M20.995 9.216c.091-.995.094-2.904 1.445-2.904 1.39 0 1.392 1.877 1.491 2.894h.398c-.135-1.264-.176-3.306-1.868-3.306-1.664 0-1.749 2.071-1.882 3.317h.425" class="B C"/><path d="M22.12 58.028c-.803-1.53-2.744-2.837-4.191-3.722-2.181-1.331-4.522-2.462-6.781-3.658-2.174-1.143-4.417-2.396-6.347-3.916-1.658-1.305-3.23-2.945-3.864-4.982a6.57 6.57 0 0 1-.295-1.939c0-3.064 1.079-5.814 2.238-8.603.864-2.078 2.097-4.73 1.829-7.014-.263-2.327-1.911-3.925-3.816-5.14l-.338-.215 6.379-8.093.139-.023c10.204-1.715 20.576-1.936 30.753 0l.135.025 6.365 8.075-.338.215c-1.904 1.214-3.553 2.812-3.816 5.139-.258 2.286.976 4.936 1.84 7.014 1.159 2.789 2.236 5.54 2.236 8.603 0 .657-.099 1.311-.293 1.939-.631 2.037-2.209 3.676-3.866 4.982-1.93 1.52-4.17 2.764-6.344 3.916-2.259 1.198-4.598 2.33-6.781 3.658-1.454.885-3.388 2.193-4.191 3.722l-.327.622-.327-.606z" class="B D"/><mask id="A" maskUnits="userSpaceOnUse" x="1" y="9" width="43" height="49"><path d="M7.142 11.077l-6.038 7.659c9.186 5.848-.094 12.291-.094 21.061s18.375 12.209 21.436 18.062c3.064-5.846 21.436-9.285 21.436-18.062s-9.282-15.213-.094-21.061l-6.031-7.659A79.48 79.48 0 0 0 22.92 9.705a95.2 95.2 0 0 0-15.775 1.372" class="C"/></mask><g mask="url(#A)" class="C"><path d="M44.335 9.271H0v49.626h44.335V9.271z"/></g><g class="B D"><path d="M22.191 55.186c-1.008-.922-2.112-1.733-3.294-2.417-2.225-1.372-4.575-2.515-6.877-3.722-3.048-1.621-8.256-4.392-9.323-7.84-.142-.457-.215-.932-.215-1.411 0-2.785 1.047-5.382 2.101-7.922 1.015-2.442 2.238-5.197 1.934-7.895-.249-2.199-1.445-3.905-3.128-5.315l-.27-.229L7.94 12.41l.139-.023c9.525-1.534 19.205-1.733 28.725-.016l.14.025 4.833 6.045-.272.229c-1.685 1.399-2.881 3.116-3.128 5.316-.306 2.698.915 5.453 1.934 7.895 1.054 2.54 2.101 5.137 2.101 7.922 0 4.273-6.226 7.492-9.538 9.25-2.302 1.203-4.655 2.346-6.877 3.717a19.03 19.03 0 0 0-3.294 2.426l-.256.245-.256-.254z"/><path d="M22.447 54.927a19.79 19.79 0 0 1 3.356-2.476c2.222-1.353 4.595-2.515 6.898-3.722 3.107-1.648 9.344-4.849 9.344-8.932 0-2.73-1.04-5.295-2.074-7.773s-2.273-5.318-1.964-8.082c.265-2.334 1.539-4.115 3.258-5.553l-4.527-5.661c-9.477-1.712-19.106-1.514-28.599.016l-4.515 5.645c1.719 1.429 2.993 3.219 3.258 5.553.311 2.771-.915 5.558-1.959 8.073s-2.076 5.053-2.076 7.773a4.36 4.36 0 0 0 .201 1.305c1.033 3.324 6.237 6.084 9.145 7.627 2.3 1.219 4.675 2.369 6.895 3.722a19.79 19.79 0 0 1 3.356 2.476M15.332 1.47V.359l.338-.032 2.709-.229.4-.025 1.196 1.118.75-.021V.005h.363 2.702.375v1.164l.759.018L26.118.082V.071l.398.025 2.709.215.338.034v1.123l1.946-.871.439.071 2.711.492.3.059v1.498l-.041.08-.64 1.353-.764.656-.126.096-.16-.025c-3.22-.519-6.473-.811-9.735-.873-3.922-.049-7.841.236-11.715.85l-.158.025-.135-.094-.899-.658-.617-1.335-.039-.08V1.216l.302-.057a90.57 90.57 0 0 1 2.707-.48l.437-.071 1.955.862z"/></g><g class="C B"><path d="M13.011 2.17l2.695-.332V.695l2.696-.229v1.143l2.698-.091V.379h2.698v1.155l2.693.082V.473l2.7.217v1.143l2.693.338v-1.14l2.7.489v1.104l-.457.869h-.007a76.05 76.05 0 0 0-12.017-.974 73.76 73.76 0 0 0-11.331.949l-.441-.848v-1.1a84.69 84.69 0 0 1 2.698-.476V2.17h-.018zm-4.04 18.169l-.373 1.191-1.207-.002.979.736-.375 1.189.976-.739.976.739-.377-1.189.981-.736-1.209.002-.37-1.191zm-1.017 8.098l-.37 1.191h-1.21l.979.732-.375 1.189.976-.736.976.736-.375-1.189.979-.732h-1.21l-.37-1.191zm-1.317 7.256l-.37 1.189h-1.21l.979.734-.375 1.189.976-.738.976.738-.377-1.189.981-.734H7.01l-.373-1.189zm15.729 12.625l-.373 1.191-1.207-.002.979.734-.375 1.191.976-.739.974.739-.375-1.191.981-.734-1.209.002-.37-1.191zm7.287-2.945l-.37 1.191-1.209-.002.981.736-.375 1.189.974-.738.976.738-.375-1.189.979-.736-1.21.002-.37-1.191zm-14.643 0l.37 1.191 1.209-.002-.979.736.375 1.189-.976-.738-.976.738.375-1.189-.979-.736 1.209.002.37-1.191zm-5.794-3.866l.37 1.189h1.209l-.981.734.375 1.189-.974-.736-.976.736.375-1.189-.979-.734h1.209l.37-1.189zm28.27 4.497L5.992 14.968l.329-.373 31.56 31.102-.395.306z"/></g><path d="M22.444 15.396a11.13 11.13 0 0 1 6.902 2.268c9.337 7.14 7.007 28.535-6.902 28.535-2.543.04-5.023-.787-7.033-2.346-9.218-7.209-6.754-28.457 7.033-28.457z" class="B D"/><path d="M22.312 30.887l-.635-.014a7.09 7.09 0 0 0-1.143.492c.437-.236.896-.426 1.372-.569H10.592c0-7.378 3.973-14.753 11.847-14.753 7.922 0 11.889 7.467 11.847 14.89l-11.921-.139-.055.094z" class="B C"/><g class="D B"><path d="M10.595 30.579h2.286a4.39 4.39 0 0 1 .062-.553l-2.318-.457.021-.284 2.355.457c.049-.177.109-.351.178-.521l-2.421-.983.039-.29 2.494 1.013a4.75 4.75 0 0 1 .27-.485l-2.563-1.683.064-.297 2.664 1.747c.109-.149.229-.291.359-.423l-2.684-2.636.087-.306 2.791 2.744c.138-.126.284-.243.437-.35l-2.654-3.91.135-.306 2.769 4.06c.158-.099.323-.187.494-.261l-2.341-5.524.188-.29 2.419 5.716c.175-.064.354-.118.535-.162l-1.509-7.348.242-.229 1.548 7.545c.185-.03.372-.048.56-.055l-.037-9.047.286-.16.037 9.177a4.44 4.44 0 0 1 .558.053l2.017-10.217.304-.064-2.039 10.334c.184.039.365.091.542.155L23.19 16.07l.3.02-4.458 10.746c.172.077.339.163.501.258l6.923-10.325.268.11-6.95 10.373c.154.106.301.221.441.345l9.129-9.097.215.19-9.145 9.111c.13.136.253.279.366.43l10.784-7.199.155.229-10.777 7.193a3.97 3.97 0 0 1 .274.492l11.866-4.936.096.265-11.841 4.947c.069.175.126.355.172.537l12.46-2.535.046.277-12.446 2.535a4.5 4.5 0 0 1 .062.563l12.659-.098v.284l-17.033.128h-.041v-.043h-6.63v-.29"/><path d="M17.257 26.811c2.254 0 4.083 1.744 4.083 3.887h-8.164c0-2.151 1.829-3.887 4.081-3.887z"/></g><path d="M21.951 30.88h-.274c-5.437 1.829-1.161 5.85.4 10.06.128.253.217.525.263.805a5.37 5.37 0 0 1 .041 3.096v.713h.059c1.677.03 3.337-.342 4.841-1.085s2.808-1.836 3.803-3.186c-2.586-1.322-6.173-1.6-8.164-3.688-1.962-2.058-2.378-4.326-.969-6.712" class="B C"/><path d="M10.595 30.494h11.317 2.035l-1.943.601c-1.017.316-2.316.873-2.62 1.994-.229.848.135 1.861.478 2.634.501 1.129 1.143 2.213 1.708 3.32 1.022 2.019 1.902 4.332.866 6.514-8.032 0-11.962-7.581-11.841-15.055" class="B D"/><path d="M21.912 30.796c-5.208 1.625-2.195 5.055-.391 8.843l.014.034.078.16v.018l.021.048.014.034.066.146.082.188v.011.016.021l.043.105.048.119.025.057.044.114.027.078v.028c.131.351.242.709.331 1.072v.016l.055.245v.016.016l.043.254v.03c0 .075.021.151.028.229v.027c0 .082.018.169.02.254v.192.229.176.101.018.043.062l-.011.128v.021c0 .082-.021.162-.032.245v.018l-.048.252v.016l-.064.258-.016.059-.021.064-.044.121v.014l-.103.254-.027.062-.05.105v.011l-.032.066h-.009-.082-.176c-.112 0-.229-.014-.334-.025h-.021c-.11 0-.229-.02-.325-.03h-.055l-.277-.039h-.043l-.146-.025-.128-.023h-.048l-.27-.05h-.014-.057l-.229-.057-.105-.023-.192-.053-.123-.032-.187-.057-.135-.041-.165-.055-.133-.046-.121-.043h-.016l-.046-.018c-5.297-1.996-7.933-8.025-7.922-14.058h11.258" class="B C"/><path d="M28.43 27.211c1.674-.176 1.438-3.528 4.419-3.56h.091a19.28 19.28 0 0 1 1.344 7.444H21.877l.142-.407c.311-.781.748-1.505 1.294-2.145.391-.496.839-.944 1.335-1.335.373-.281.901-.597 1.39-.517.342.058.68.134 1.013.229.295.078 1.1.316 1.372.286" class="B D"/><path d="M28.462 27.517c-.457.048-1.678-.395-2.471-.521-1.084-.171-3.201 2.428-3.676 3.793h11.975a19.34 19.34 0 0 0-1.221-6.813c-.075-.013-.152-.019-.229-.018-2.798.03-2.455 3.356-4.39 3.56" class="B C"/><g class="D B"><path d="M18.775 39.28h-.686v-.037-.37a.16.16 0 0 0-.16-.158h-.366a.16.16 0 0 0-.158.158v.37.037h-1.543c1.038-.642 2.302-1.001 3.482-1.244l.654-.133-.51-.414c-.944-.725-2.613-2.012-2.744-3.267a1.91 1.91 0 0 1 .277-1.159l.544-.96-.967.546c-2.743 1.527-2.773 4.047-1.511 6.63h-.4v-.229h-.528v.229h-.597c-.153.121-.153.272 0 .457a16.46 16.46 0 0 0 5.213 0c.038-.025.069-.059.09-.099a.28.28 0 0 0 .033-.13c0-.046-.011-.09-.033-.13s-.052-.074-.09-.099zm12.309 2.001c-2.586-1.319-6.173-1.6-8.164-3.688-2.028-2.119-2.405-4.486-.816-6.962l.096-.144 12.088.139c.039 3.887-1.029 7.812-3.201 10.654"/></g><path d="M22.369 30.796c-1.084 1.689-1.674 4.026.78 6.584 1.943 2.03 5.508 2.3 8.125 3.658 1.994-2.743 2.995-6.401 3.013-10.094l-11.918-.149z" class="B C"/><path d="M34.289 30.851h-7.398l.914-.569c.776-.506 1.48-1.115 2.092-1.811.428-.457.972-1.077 1.614-1.198.133-.024.269-.024.402 0a13.88 13.88 0 0 1 1.061.178l.915.169.146.023a20.73 20.73 0 0 1 .252 3.219" class="B D"/><path d="M34.086 27.949l-2.199-.384c-1.143-.135-1.786 1.664-3.91 2.972h6.308c-.012-.868-.079-1.733-.199-2.593" class="B C"/><g class="D B"><path d="M16.633 22.965h.407v.377h-.407v-.377zm.729 0h.405v.377h-.405v-.377z"/><path d="M17.202 21.127a.55.55 0 0 1 .544.549v.114c.165.06.308.169.41.312s.159.313.164.488v.384h-.229v.377h.29v1.18h-.336l.039.626h1.125v5.615h-3.994v-5.624h1.123l.039-.626h-.359v-1.18h.293v-.377h-.229v-.375a.88.88 0 0 1 .569-.789l-.014-.119a.55.55 0 0 1 .165-.398.55.55 0 0 1 .4-.158zm.576 1.829h-.416v.377h.405l.011-.377zm-.727 0h-.421v.377h.409l.011-.377z"/></g><path d="M16.006 25.926h.482v-.471h.485v.471h.48v-.471h.48v.471h.485v-.471h.482v1.033h-3.377v-1.033h.482v.471zm1.196-4.495c.062.004.121.031.163.076s.066.106.065.168v.023a1.38 1.38 0 0 0-.229-.021c-.084 0-.169.009-.251.025v-.027a.24.24 0 0 1 .019-.096c.013-.03.031-.058.055-.081a.24.24 0 0 1 .082-.053c.031-.012.063-.017.096-.016zm0 .551c.457 0 .812.27.812.599v.08H16.39v-.071c0-.329.366-.599.812-.599m-.871 1.664h1.74v.572h-1.742l.002-.572zm.32 1.502l.039-.626h1.047l.039.626h-1.125zm2.252 3.114h-3.377v-1.456h3.375l.002 1.456zm0 .32v1.877h-1.244v-1.024c0-.121-.048-.238-.134-.323s-.202-.134-.323-.134-.238.048-.323.134-.134.202-.134.323v1.024h-1.221v-1.877h3.379zm-1.271-.599h-.841v-.809h.839l.002.809z" class="B C"/><path d="M30.005 21.676c.099.059.183.141.246.238s.102.207.115.322a.59.59 0 0 1-.096.814c-.444.284-.915.313-1.356.457.229.709.601 1.395.578 2.151 0 .149-.021.295-.039.439-.151 1.054-.686 1.982-.857 3.004-.037.203 0 .608-.341.62s-.334-.391-.368-.592c-.128-.716-.183-1.466-.265-2.193-.073-.686-.229-1.984-.599-2.581a4.34 4.34 0 0 0-.812-.375 2.37 2.37 0 0 0-.642-.121l-.636.128-.476.128.085-.478c.044-.227.116-.447.215-.656.061-.162.161-.307.292-.421s.288-.192.458-.229c-.777-.43-1.653-.601-2.574-.867-.229-.069-.686-.13-.638-.476s.508-.288.75-.29c1.057-.046 2.113.103 3.116.439a6.39 6.39 0 0 1 1.578.834l.229-.073a6.63 6.63 0 0 0 .766-.327 3.27 3.27 0 0 1 .649-.254c.128-.013.257.014.368.078s.2.161.254.278z" class="B D"/><path d="M27.186 22.323c.851.057 1.85-.64 2.256-.716.058.001.114.017.163.048s.088.074.114.126l-.857.395.108.229.915-.437a.41.41 0 0 1 .117.149c.027.058.04.121.038.185l-.99.229.057.229 1.045-.242a.23.23 0 0 1 .01.138c-.011.046-.036.087-.072.118-.457.297-1.075.309-1.564.524.185.734.668 1.573.642 2.332 0 .078 0 .158-.014.229l-.521-1.097-.229.105.704 1.433c-.056.265-.127.527-.213.784l-.549-1.863-.24.071.654 2.195a10.89 10.89 0 0 0-.457 1.552c-.078.434 0 .53-.091.03-.258-1.447-.274-3.996-.953-4.947-.292-.181-.603-.328-.928-.439a2.79 2.79 0 0 0-.786-.151l-.723.176c.059-.345.281-1.168.935-1.086l1.429-.297zm-1.504.855a.15.15 0 0 0 .058-.007c.018-.006.036-.016.05-.029s.027-.028.036-.046.014-.037.015-.056-.001-.039-.007-.058-.016-.036-.029-.05-.029-.027-.046-.036-.037-.014-.056-.015-.038.002-.056.008-.034.016-.048.029-.025.028-.033.045-.013.036-.014.055c-.003.038.009.076.033.106s.059.049.097.054zm-2.638-2.188a8.27 8.27 0 0 1 3.002.421 6.17 6.17 0 0 1 1.228.606h-.064-.046l-1.173.242c-.901-.61-1.927-.8-2.972-1.1-.572-.167-.549-.151.032-.162" class="B C"/><path d="M26.763 36.745a4.64 4.64 0 0 1 .48-1.28l-.576.569-.178-.174.457-.457a3.2 3.2 0 0 0-.887.775l-.014.066v.08l.105 1.084.542-.565.044-.044.018-.052.009-.002zm1.509-.768l.041 1.438.229-.519v-.027-.018l-.258-.873m.062 2.019l.121 4.099v.252h-1.433l.151-4.406-.199-.457v.707h-.249v-.686l-.242.636-.229-.087.261-.672-.496.528-.181-.169.082-.085-.073-.727-.19.706-.242-.064.185-.686-.407.567-.208-.137.457-.647-.629.398-.135-.208.592-.373-.204.039-.071.128-.144-.085-.267.057-.053-.229.073-.016-.151-.142.608-.626-.745.43-.123-.213.814-.469-.915.201-.055-.24.75-.169-.766-.023v-.247l.857.03-.823-.265.078-.229.816.263-.43-.286h-.066v-.062l-.229-.146.142-.204.213.142.544-.085-.791-.087.027-.245.901.098-.814-.347.101-.229.816.352-.686-.574.165-.187.668.572-.476-.757.183-.11.048-.119.256.103-.027-.101.103-.027-.203-.149.149-.199.782.569-.578-.741.199-.151.631.812-.348-.951.229-.085.29.8-.075-.844.249-.023.085.933.185-.926.245.048-.185.915.277-.526-.091-.174.229-.114v.018l.027-.053.229.112-.11.21.295.56-.183-.915.242-.05.185.928.085-.931.249.023-.076.844.29-.8.229.085-.348.947.665-.821.199.149-.578.743.78-.567.151.197-.165.119.087.023-.032.128.229-.096.034.08v-.016l.21.13-.478.757.672-.572.162.188-.686.574.821-.352.098.229-.782.345.899-.098.027.245-.793.087.61.094.229-.151.139.203-.304.206-.416.279.819-.263.078.229-.823.265.857-.03v.247l-.768.023.748.169-.053.24-.915-.201.814.469-.123.213-.741-.416.606.627-.149.142.071.016-.053.229-.267-.057-.144.085-.064-.105-.199-.039.59.373-.135.208-.629-.398.457.647-.206.137-.407-.578.185.686-.242.064-.192-.706-.069.727.08.085-.183.169-.482-.501.261.672-.229.087-.242-.636v.686h-.252v-.706l-.224.482zm-1.143-.633l.043-1.328a6.45 6.45 0 0 0-.229.734l-.021.078v.05l.206.466zm2.103-3.201c-.242.096-.477.211-.702.343l.796-.133.041.242-.686.114c.322.008.64.062.947.16h.032l.037-.011.841-.562-1.155-.181-.091-.011-.059.039zm-1.129.341c.327-.238.685-.431 1.063-.574l.037-.018v-.039l.247-.914-.944.38-.055.02-.039.05c-.169.259-.305.538-.407.83l.686-.782.185.162-.773.885zm1.301 1.667a2.97 2.97 0 0 0-.983-.823l.523.535-.181.171-.457-.478c.166.367.294.75.382 1.143l.027.091.057.039.544.565.107-1.084v-.085l-.021-.076zm-1.589-2.147c.099-.26.226-.508.38-.741v-.03-.037l-.549-1.086-.549 1.054v.064c.201.3.36.626.473.969v-1.088h.252l-.007.894zm1.726 1.1a2.97 2.97 0 0 0-.816-.139l.599.192-.078.229-.498-.16a3.26 3.26 0 0 1 .926.867v.011l.537.107-.594-1.036-.03-.053-.046-.018zm0-2.474l.032-.121-.327.229.295-.108zm.21.181l-.112.418.316-.501-.203.082zm-2.869.537l-.034-.046-.059-.03-.933-.373.254.951.046.057c.424.159.822.382 1.177.663l-.898-.914.178-.171.686.686a3.66 3.66 0 0 0-.421-.832m-.832.8l-.064-.02-.071.014-1.091.169.86.574h.034.032a3.6 3.6 0 0 1 .937-.162l-.686-.114.043-.242.7.117-.695-.334zm.594 1.097l-.51.169-.08-.229.629-.208c-.285.012-.567.06-.839.144l-.046.027-.039.05-.594 1.036.537-.108.02-.027.025-.025a3.54 3.54 0 0 1 .894-.823m-1.529.59l-.494.508.229-.046.265-.462zm.457-3.043l-.215-.089.336.535-.121-.446zm.213-.181l.277.11-.309-.229.032.119zm4.767 3.681l.229.046-.492-.503.263.457z" class="B D"/><g class="C B"><path d="M27.529 34.936v.345l.496.366v-.391l-.457-.341-.039.021zM27.3 41.69l-.014.375.044.032h.519l-.549-.407zm.025-.755l-.011.377.889.659v-.391l-.878-.645zm.025-.755v.377l.846.629-.014-.395-.832-.611zm.027-.754v.377l.796.592L28.16 40l-.782-.574zm.025-.752l-.011.375.745.556-.014-.395-.72-.535zm.025-.752l-.014.375.686.517-.014-.395-.658-.496zm.025-.754v.377l.638.475-.011-.395-.626-.457zm.028-.754l-.014.375.59.439v-.393l-.576-.421zm.025-.755v.377l.537.402v-.395l-.537-.384zm-12.102 3.55c-1.498-3.011-.844-5.075 1.347-6.299-.994 1.763.43 3.176 2.531 4.819-1.484.302-2.835.743-3.887 1.479"/></g><path d="M11.715 4.488l-.899-.658c8.089-1.276 15.073-1.248 23.231.025l-.764.656c-7.141-1.171-14.425-1.179-21.569-.023z" class="B D"/><path d="M30.273 1.568l1.239-.542v.702l-1.239-.16zm-16.886-.542v.716l1.274-.158-1.274-.558zm6.104.192l-.713-.686v.704l.713-.027m5.928-.011l.7-.656v.686c-.229 0-.457-.018-.7-.025" class="B C"/><path d="M16.973 8.857l-1.049.069-.94.075.085-.915.256-2.188.021-.194.107-.162c.343-.519.967-.88 1.6-.711.189.052.364.146.511.275s.262.291.337.472l.085.197-.023.208-.284 2.204-.082.62-.624.05z" class="B D"/><path d="M16.937 8.468l-1.047.069-.469.039.043-.457.256-2.19v-.096l.053-.082c.249-.375.704-.686 1.175-.546.131.037.253.103.354.194s.181.205.231.332l.043.096-.011.107-.284 2.202-.041.309-.304.025z" class="B C"/><g class="D B"><path d="M16.898 8.082l.284-2.204c-.208-.471-.745-.405-1.07.08l-.254 2.193 1.04-.069zm10.821.775l1.054.069.935.075-.085-.915-.256-2.188-.018-.194-.108-.162c-.343-.519-.969-.88-1.6-.711a1.28 1.28 0 0 0-.846.748l-.087.197.027.208.284 2.204.078.62.622.05z"/></g><path d="M27.751 8.468l1.047.069.457.039-.041-.457-.256-2.19v-.096l-.055-.082c-.247-.375-.702-.686-1.173-.546-.132.036-.253.103-.355.194s-.181.205-.232.332l-.041.096v.107l.284 2.202.039.309.327.025z" class="B C"/><path d="M27.79 8.082l-.284-2.204c.206-.471.745-.405 1.068.08l.256 2.193-1.04-.069z" class="B D"/></g><defs><clipPath id="B"><path d="M0 0h187v60H0z" class="C"/></clipPath></defs></svg>
