<svg xmlns="http://www.w3.org/2000/svg" xmlns:xlink="http://www.w3.org/1999/xlink" width="187" height="60" fill="none"><style><![CDATA[.B{fill:#fff}.C{fill-rule:evenodd}.D{fill:#ead7b1}.E{fill:#405965}.F{fill:#facb13}]]></style><path d="M67.055 9.905c-7.63 0-13.407 5.332-13.407 12.477s5.813 12.474 13.301 12.474c4.481 0 7.999-1.925 10.258-4.626v-.52l-4.442-3.775h-.518a7.19 7.19 0 0 1-2.369 1.707c-.898.401-1.869.614-2.853.625-3.298 0-5.889-2.48-5.889-5.884s2.591-5.887 5.889-5.887a7.2 7.2 0 0 1 2.853.625c.899.401 1.704.982 2.369 1.707h.518l4.442-3.775v-.518c-2.332-2.813-5.997-4.628-10.145-4.628m13.917 24.495h18.443v-6.029h-11.11V24.98h8.368v-5.655h-8.368v-3.393h11.109V9.905H80.979v24.497zm87.173-25.969l9.664-3.629v-.518l-2.555-4.22h-.518l-8.556 5.256v.518l1.444 2.593h.521zm13.414 17.49l-2.936-6.528-4.258-9.488h-6.74l-10.258 24.495h7.703l1.376-3.693h9.15c.741 1.32 1.518 2.336 2.369 3.017 1.002.754 2.225 1.128 3.779 1.128 1.222.025 2.432-.249 3.523-.8l-3.307-7.308c-.128-.229-.261-.509-.401-.823zm-13.258-.112l2.704-7.273 2.555 7.273h-5.259zm-41.972.112l-2.929-6.528-4.256-9.488h-6.74l-10.258 24.495h7.703l1.376-3.693h9.146c.741 1.32 1.52 2.336 2.371 3.017 1 .754 2.222 1.128 3.777 1.128a7.45 7.45 0 0 0 3.52-.8l-3.304-7.308c-.129-.229-.262-.509-.402-.823m-13.257-.112l2.704-7.273 2.554 7.273h-5.258zm36.551-1.018c2.669-1.206 4.444-3.505 4.444-6.709 0-5.013-3.406-8.179-9.74-8.179h-11.406v24.497h7.338v-8.594h.594c1.628 0 3.146 3.356 4.034 4.938 1.667 2.941 3.224 4.11 6.556 4.11 1.482 0 3-.491 3.741-1.093l.023-.062-5.426-8.738c-.051-.057-.101-.117-.154-.17m-5.595-3.883h-3.777v-4.974h3.777c1.375 0 2.554.917 2.554 2.563 0 1.621-1.185 2.411-2.554 2.411zM61.535 43.097a3.7 3.7 0 0 1-.284 1.462 3.72 3.72 0 0 1-.837 1.232 3.97 3.97 0 0 1-2.809 1.109c-2.257 0-3.958-1.653-3.958-3.897s1.747-3.897 3.967-3.897a4.05 4.05 0 0 1 1.729.371c.542.25 1.022.616 1.406 1.073v.14l-1.11.935h-.14a2.34 2.34 0 0 0-1.835-.889c-1.19 0-2.174.935-2.174 2.279a2.16 2.16 0 0 0 .14.868c.106.277.267.528.475.74a2.15 2.15 0 0 0 .731.489 2.16 2.16 0 0 0 .865.157 2.12 2.12 0 0 0 1.433-.52 1.75 1.75 0 0 0 .555-.995h-2.011v-1.327h3.699l.14.115c.019.184.026.369.023.555m1.204-.094c0-2.23 1.78-3.897 4.128-3.897s4.116 1.664 4.116 3.897-1.782 3.897-4.116 3.897-4.128-1.667-4.128-3.897zm6.405 0c.002-.451-.129-.893-.379-1.269a2.28 2.28 0 0 0-4.136.811 2.28 2.28 0 0 0 2.237 2.726 2.22 2.22 0 0 0 .879-.156c.279-.111.533-.278.746-.489s.381-.465.493-.744a2.22 2.22 0 0 0 .159-.878zm10.3-3.618l-3.387 7.374h-1.066l-3.387-7.374.083-.14h1.851l1.988 4.832 2.057-4.832h1.782l.08.14zm3.175 1.342v1.561h2.844v1.41h-2.844v1.584h3.699v1.478h-5.504v-7.512H86.3v1.479h-3.676zm11.753 5.895l-.08.14h-1.791l-1.525-2.822h-1.053v2.822h-1.805v-7.514h3.247c1.897 0 2.903.917 2.903 2.393 0 1.015-.578 1.721-1.479 2.063l1.582 2.918zm-4.44-3.92h1.447c.612 0 1.05-.369 1.05-.972.005-.137-.02-.274-.072-.401a.97.97 0 0 0-.229-.336c-.099-.095-.217-.167-.346-.214s-.267-.064-.403-.053h-1.447v1.976zm12.902-3.456v7.551h-1.121l-3.816-4.474v4.438h-1.793v-7.514h1.121l3.804 4.474v-4.474h1.805zm1.729 3.757c0-2.23 1.78-3.897 4.128-3.897s4.117 1.664 4.117 3.897-1.782 3.897-4.117 3.897-4.128-1.667-4.128-3.897zm6.405 0a2.27 2.27 0 0 0-.378-1.269 2.28 2.28 0 0 0-1.021-.844c-.417-.174-.876-.221-1.319-.134a2.28 2.28 0 0 0-1.796 1.789 2.27 2.27 0 0 0 .129 1.318 2.28 2.28 0 0 0 2.108 1.408 2.22 2.22 0 0 0 1.625-.645c.213-.212.381-.465.493-.744a2.22 2.22 0 0 0 .159-.878zm13.776-.012c0 2.267-1.522 3.768-3.953 3.768h-3.284v-7.512h3.281c2.431 0 3.954 1.502 3.954 3.743m-1.835.011c0-1.421-.878-2.276-2.176-2.276h-1.422v4.555h1.422c1.298 0 2.176-.855 2.176-2.279zm3.128.002c0-2.23 1.782-3.897 4.128-3.897s4.128 1.664 4.128 3.897-1.782 3.897-4.128 3.897-4.128-1.667-4.128-3.897zm6.407 0a2.27 2.27 0 0 0-.378-1.269 2.28 2.28 0 0 0-2.34-.978 2.28 2.28 0 0 0-1.17.621 2.27 2.27 0 0 0-.497 2.485 2.28 2.28 0 0 0 2.108 1.408 2.22 2.22 0 0 0 1.625-.645c.213-.212.381-.465.493-.744a2.22 2.22 0 0 0 .159-.878zm8.342-2.276v1.561h2.846v1.41h-2.846v1.584h3.702v1.478h-5.507v-7.512h5.484v1.479h-3.679zm4.944 4.821v-.14l.889-1.027h.129c.537.591 1.285.948 2.082.993.738 0 1.202-.3 1.202-.74 0-.633-.73-.715-1.656-1.004-1.027-.325-2.293-.903-2.293-2.292 0-1.304 1.146-2.219 2.832-2.219 1.227 0 2.277.486 2.821 1.146v.126l-.89 1.016h-.126a2.56 2.56 0 0 0-.809-.588c-.306-.141-.637-.22-.973-.232-.601 0-1.016.257-1.016.672 0 .495.566.688 1.179.901 1.282.406 2.774.798 2.774 2.485 0 1.469-1.33 2.278-2.949 2.278-1.341 0-2.534-.532-3.21-1.352m11.262 1.189h-1.814v-6.033h-2.359v-1.479h6.533v1.479h-2.36v6.033zm10.149-.138l-.082.14h-1.835l-.543-1.318h-3.172l-.557 1.318h-1.757l-.082-.14 3.472-7.376h1.103l3.453 7.377zm-2.963-2.423l-1.05-2.554-1.087 2.554h2.137zm11.561-1.208c0 2.267-1.527 3.768-3.953 3.768h-3.282v-7.512h3.286c2.427 0 3.954 1.502 3.954 3.743m-1.835.011c0-1.421-.878-2.276-2.174-2.276h-1.421v4.555h1.421c1.296 0 2.174-.855 2.174-2.279zm3.12.002c0-2.23 1.781-3.897 4.127-3.897s4.128 1.664 4.128 3.897-1.782 3.897-4.128 3.897-4.127-1.667-4.127-3.897zm6.407 0a2.28 2.28 0 0 0-.379-1.269c-.249-.376-.604-.67-1.021-.844a2.28 2.28 0 0 0-3.115 1.654c-.088.443-.043.901.129 1.318a2.28 2.28 0 0 0 2.109 1.408c.3.008.599-.045.879-.156a2.22 2.22 0 0 0 .746-.489c.213-.212.381-.465.493-.744a2.22 2.22 0 0 0 .159-.878z" class="E"/><path d="M39.706 24.257c.261-2.333 1.913-3.938 3.825-5.153l.339-.215-6.382-8.11-.133-.025-2.293-.399-5.412-.662-1.186-.096h-.039l-.358-.027h-.094-.094l-2.642-.131h-.319-.264a99.8 99.8 0 0 0-8.104.165l-6.098.596-.138.018-3.928.591L0 18.877l.339.215c1.908 1.215 3.561 2.82 3.825 5.153.257 2.292-.979 4.951-1.835 7.035C1.167 34.077.085 36.837.085 39.908c0 .658.1 1.313.296 1.942.633 2.047 2.213 3.691 3.873 4.997 1.936 1.524 4.183 2.774 6.361 3.931l6.797 3.668c1.459.889 3.399 2.201 4.203 3.734l.328.626.326-.626c.805-1.534 2.752-2.845 4.204-3.734 2.188-1.329 4.531-2.466 6.797-3.668 2.179-1.146 4.426-2.407 6.364-3.931 1.66-1.307 3.238-2.95 3.873-4.997a6.53 6.53 0 0 0 .294-1.942c0-3.072-1.08-5.831-2.243-8.628-.867-2.084-2.103-4.745-1.835-7.035" class="B"/><path d="M29.742 1.545l1.289.197.012-.777-1.3.58zM18.238.511l-.014.752.748-.048-.734-.704zm6.641.692l.75.05L25.613.5l-.734.704z" class="C D"/><mask id="A" maskUnits="userSpaceOnUse" x="9" y="0" width="26" height="4"><path d="M20.495.131c-.039.001-.077.016-.105.044s-.044.065-.044.105v1.022l-2.41.085V.378c0-.02-.005-.04-.013-.059s-.02-.035-.035-.049-.033-.026-.053-.033-.041-.01-.062-.008l-2.717.229c-.038.003-.073.02-.098.047s-.04.064-.039.102v1.015l-2.293.282V.876c-.001-.022-.005-.043-.014-.063s-.022-.037-.038-.052-.036-.023-.057-.029-.043-.007-.064-.003l-1.812.351-1.023.206c-.034.006-.066.024-.088.051s-.035.061-.036.095v1.112c.001.023.006.046.016.066l.445.855c.012.021.029.039.049.052a.15.15 0 0 0 .068.023c.023.005.046.005.069 0a73.22 73.22 0 0 1 11.356-.96c3.843-.014 7.611.458 12.086 1.146h.023c.036-.001.07-.013.099-.034.016-.014.029-.031.038-.051s.014-.04.015-.062v-.138l.362-.688.087-.158a.19.19 0 0 0 .014-.069v-1.1c-.001-.035-.013-.068-.035-.094s-.052-.045-.086-.052l-.459-.089L31.32.756c-.021-.003-.042-.002-.063.004s-.04.015-.056.029-.03.03-.039.049-.015.04-.016.061l-.023.601v.36c-.626-.085-1.22-.147-1.835-.213l-.498-.053V.582c0-.037-.015-.073-.04-.101s-.06-.045-.098-.048L25.935.204c-.021-.001-.042.002-.061.009s-.038.018-.053.032a.14.14 0 0 0-.037.05c-.008.019-.012.04-.012.06v1.004l-2.41-.073V.277a.15.15 0 0 0-.012-.058.15.15 0 0 0-.033-.049c-.014-.014-.031-.025-.05-.033s-.039-.011-.059-.011h-2.715" class="B"/></mask><g mask="url(#A)"><path d="M34.223.121H9.49v3.613h24.733V.121z" fill="url(#M)"/></g><mask id="B" maskUnits="userSpaceOnUse" x="9" y="2" width="25" height="3"><path d="M9.992 3.693l1.062 1.041s5.476-.917 10.694-.917 11.028.917 11.028.917l.736-.688.209-.353s-4.83-1.029-11.466-1.029A76.67 76.67 0 0 0 9.982 3.693" class="B"/></mask><g mask="url(#B)"><path d="M33.72 2.664H9.991v2.072H33.72V2.664z" fill="url(#N)"/></g><mask id="C" maskUnits="userSpaceOnUse" x="9" y="3" width="26" height="8"><path d="M11.964 4.688l-2.458 5.859s6.155-.72 12.778-.862 12.113.871 12.154.917c-.025-.05-2.589-5.948-2.589-5.948s-4.392-.568-9.623-.697l-1.121-.014a60.8 60.8 0 0 0-9.141.745z" class="B"/></mask><g mask="url(#C)"><path d="M34.429 3.943H9.506v6.65h24.923v-6.65z" fill="url(#O)"/></g><path d="M23.613 9.565l-3.711.046s.069-1.577.229-2.088.511-1.082.917-1.332a1.57 1.57 0 0 1 .657-.26 1.56 1.56 0 0 1 .705.056c.449.153.821.473 1.039.894.26.469.426.985.489 1.517a4.67 4.67 0 0 1 0 1.192l-.326-.025zm3.855-4.579c-.592.034-1.124.403-1.082.887l.326 2.721 2.387.174-.436-3.079s-.603-.74-1.195-.706" class="C D"/><mask id="D" maskUnits="userSpaceOnUse" x="2" y="11" width="40" height="45"><path d="M7.464 12.702l-4.545 5.685c1.729 1.435 3.013 3.237 3.279 5.584.314 2.794-.917 5.6-1.972 8.131s-2.089 5.084-2.089 7.835a4.48 4.48 0 0 0 .2 1.314c1.039 3.347 6.281 6.123 9.21 7.677 2.314 1.233 4.704 2.379 6.939 3.755 1.131.688 2.426 1.472 3.44 2.45a18.85 18.85 0 0 1 3.316-2.45c2.238-1.362 4.626-2.522 6.939-3.748 3.13-1.66 9.402-4.88 9.402-8.99 0-2.751-1.046-5.332-2.087-7.835s-2.254-5.329-1.949-8.128c.264-2.349 1.555-4.096 3.284-5.531l-4.587-5.765c-4.588-.819-9.241-1.226-13.902-1.217-4.985.015-9.96.428-14.879 1.236z" class="B"/></mask><g mask="url(#D)"><path d="M41.59 11.466H2.137v43.659H41.59V11.466z" fill="url(#P)"/></g><path d="M8.301 20.346l-.374 1.199-1.215-.002.986.74-.378 1.199.982-.743.984.743-.378-1.199.984-.74-1.215.002-.374-1.199zM7.279 28.5l-.374 1.199-1.215-.005.986.74-.378 1.199.982-.743.982.743-.378-1.199.986-.74-1.215.005-.374-1.199zm-1.326 7.303l-.374 1.199L4.364 37l.984.74-.376 1.197.982-.743.984.743-.378-1.197.984-.74-1.215.002-.374-1.199zm15.831 12.711l-.374 1.199-1.216-.002.986.738-.378 1.199.982-.743.984.743-.378-1.199.984-.738-1.213.002-.376-1.199zm7.336-2.964l-.374 1.199-1.218-.002.986.738-.378 1.199.984-.743.982.743-.378-1.199.984-.738-1.213.002-.374-1.199zm-14.739 0l.374 1.199 1.215-.002-.986.738.378 1.199-.982-.743-.984.743.378-1.199-.984-.738 1.213.002.376-1.199zM8.55 41.655l.374 1.199 1.215-.002-.986.74.378 1.199-.982-.743-.984.743.378-1.199-.986-.74 1.218.002.374-1.199z" class="B C"/><mask id="E" maskUnits="userSpaceOnUse" x="9" y="16" width="25" height="16"><path d="M9.939 31.445h23.836c.195-7.61-3.789-15.42-11.925-15.42s-12.115 7.81-11.925 15.42" class="B"/></mask><g mask="url(#E)"><path d="M33.973 16.025H9.744v15.422h24.228V16.025z" fill="url(#Q)"/></g><g class="C"><g fill="#caa52e"><path d="M9.935 30.654h6.708v.284H9.931v-.291"/><path d="M9.991 29.355l6.687 1.307-.057.28-6.651-1.3c0-.096.014-.19.021-.286z"/><path d="M10.139 28.002l6.566 2.673-.112.264-6.492-2.645c0-.099.025-.195.039-.291z"/><path d="M10.404 26.549l6.325 4.154-.158.229-6.233-4.092.067-.3"/><path d="M10.842 24.915l5.91 5.804-.204.199-5.802-5.696.096-.307z"/><path d="M11.548 23.079l5.224 7.668-.241.158-5.125-7.516.138-.309"/><path d="M12.663 21.047l4.128 9.724-.266.108-4.052-9.533.19-.294"/><path d="M14.36 18.984l2.426 11.817-.282.053-2.389-11.617.245-.243"/><path d="M16.731 17.256l.055 13.584h-.289l-.048-13.423.287-.16"/><path d="M19.66 16.234l-2.89 14.645-.282-.055 2.867-14.528.305-.062z"/><path d="M22.914 16.069l-6.15 14.836-.266-.108 6.114-14.748.303.023"/><path d="M26.169 16.866l-9.421 14.061-.243-.156 9.402-14.015.273.11"/><path d="M29.022 18.687L16.723 30.95l-.206-.199 12.29-12.252.216.188z"/><path d="M31.202 21.277l-14.507 9.692-.163-.229 14.514-9.692.156.229z"/><path d="M32.673 24.319L16.663 30.98l-.112-.264 16.023-6.666.099.268z"/><path d="M33.507 27.551l-16.876 3.438-.06-.28 16.888-3.438.048.28z"/><path d="M33.784 30.854l-17.186.128v-.284l17.184-.128v.284"/><path d="M16.642 26.522a4.36 4.36 0 0 1 3.094 1.252c.408.402.733.88.956 1.407s.34 1.093.344 1.666h-8.797c.004-.573.121-1.14.345-1.668s.549-1.007.958-1.408a4.36 4.36 0 0 1 3.1-1.249z"/></g><path d="M16.642 26.895c2.231 0 4.041 1.726 4.041 3.858h-8.081c0-2.132 1.809-3.858 4.041-3.858z" class="F"/></g><mask id="F" maskUnits="userSpaceOnUse" x="9" y="30" width="23" height="16"><path d="M9.931 30.945l.076 1.694c2.752.089 6.318-.073 6.405.458 0 .071.158.034.284 0s.243-.076.174 0c-1.264 1.401.303 3.817 1.901 5.057 4.967 3.849 3.151 6.013-.874 6.877a11.11 11.11 0 0 0 3.96.688c4.587 0 7.845-2.457 9.783-5.96-2.981-1.178-8.008-1.793-9.173-4.436-.385-.869 1.988-2.522 2.357-3.223.716-1.375-3.942-1.082-3.816-1.178l-10.992-.06c.037 0 0 .027-.085.073" class="B"/></mask><g mask="url(#F)"><path d="M31.644 30.734H9.934v14.989h21.71V30.734z" fill="url(#R)"/></g><mask id="G" maskUnits="userSpaceOnUse" x="9" y="30" width="14" height="16"><path d="M9.932 30.875v-.078c-.617 3.266.803 8.33 3.766 11.493 2.431 2.597 5.882 3.711 7.286 3.514.095-.01.19-.01.284 0 .151.011.271.025.326-.08 3.057-5.76-8.093-12.206-.172-14.767.544-.174-.459-.229-2.08-.229-2.752 0-7.29.154-9.402.154" class="B"/></mask><g mask="url(#G)"><path d="M24.651 30.721H9.315v15.28h15.335v-15.28z" fill="url(#S)"/></g><mask id="H" maskUnits="userSpaceOnUse" x="21" y="23" width="13" height="8"><path d="M32.336 23.991c-2.818.03-2.559 3.319-4.502 3.523-.459.048-1.605-.339-2.406-.458-1.078-.172-3.188 2.386-3.683 3.773h12.037c.001-2.326-.415-4.633-1.229-6.813-.067-.012-.136-.018-.204-.018l-.014-.007z" class="B"/></mask><g mask="url(#H)"><path d="M33.784 23.991H21.746v6.829h12.037v-6.829z" fill="url(#T)"/></g><path d="M14.859 39.367c-1.585-3.209-.773-5.215 1.433-6.444-1.002 1.772.459 3.269 2.578 4.924-1.497.305-2.905.747-3.956 1.49l-.055.03z" class="B C"/><mask id="I" maskUnits="userSpaceOnUse" x="20" y="30" width="14" height="12"><path d="M22.57 37.502c1.956 2.042 5.543 2.315 8.178 3.668 1.984-2.721 2.993-6.368 3.032-10.035v-.124l-11.994-.142c-1.094 1.703-1.686 4.055.784 6.629" class="B"/></mask><g mask="url(#I)"><path d="M33.782 30.872H20.103v10.304h13.679V30.872z" fill="url(#U)"/></g><mask id="J" maskUnits="userSpaceOnUse" x="27" y="27" width="7" height="4"><path d="M31.126 27.622c-1.016.117-1.706 1.77-3.69 2.998h6.345c-.011-.874-.078-1.746-.199-2.611l-2.227-.387h-.229z" class="B"/></mask><g mask="url(#J)"><path d="M33.779 27.62h-6.348v2.998h6.348V27.62z" fill="url(#V)"/></g><path d="M17.383 22.842h-1.598v.834h1.598v-.834z" class="F"/><g class="B C"><path d="M22.382 21.027c1.037-.018 2.08.014 3.052.364.755.273 1.046.261 1.741.917l-1.057.663c-1.064-1.178-2.396-1.375-3.768-1.779-.573-.165-.553-.151.032-.163"/><path d="M26.707 22.301c.855.057 1.835-.587 2.245-.665.138-.025.395.229.273.337-.218.118-.443.224-.674.316a4.72 4.72 0 0 1 .741-.325c.209.034.337.371.245.442l-.86.268a3.94 3.94 0 0 1 .86-.268c.11 0 .229.339.08.44-.459.298-1.082.312-1.576.527.188.738.674 1.582.649 2.347-.037 1.19-.688 2.304-.897 3.418-.08.436-.023.548-.115.044-.262-1.456-.36-4.034-1.041-4.99a3.67 3.67 0 0 0-.83-.445 3.27 3.27 0 0 0-.798-.105l-.823.202c.062-.346.335-1.325.993-1.242l1.527-.3z"/></g><path d="M27.023 35.001l-.025.385.511.374v-.438l-.459-.342-.027.021zm-.229 6.797l-.014.381.043.032h.523l-.553-.413zm.025-.759l-.014.387.897.662v-.399l-.883-.651zm.028-.759l-.021.397.865.626-.021-.408-.823-.614zm.025-.756l-.021.387.809.61v-.422l-.789-.575zm.025-.761l-.018.404.761.555-.018-.419-.725-.539zm.027-.759l-.023.399.709.53-.014-.429-.672-.5zm.023-.759l-.021.415.656.477-.014-.431-.621-.461zm.027-.759l-.025.406.608.445-.014-.426-.569-.424zm.023-.768l-.027.415.566.41-.018-.438-.521-.387z" fill="#ab9276" class="C"/><mask id="K" maskUnits="userSpaceOnUse" x="14" y="25" width="5" height="6"><path d="M14.878 25.357v5.297h3.532l-.009-5.297h-3.523z" class="B"/></mask><g mask="url(#K)"><path d="M18.412 25.357h-3.534v5.297h3.534v-5.297z" fill="url(#W)"/></g><mask id="L" maskUnits="userSpaceOnUse" x="15" y="21" width="3" height="5"><path d="M16.63 21.392c-.213 0-.323.268-.491.474a2.54 2.54 0 0 1-.339.355l-.016 2.166.08.099-.048.768 1.502.021-.05-.788.328-.069-.037-.754-.044-1.24a5.86 5.86 0 0 1-.525-.589c-.138-.199-.048-.458-.358-.458l-.002.016z" class="B"/></mask><g mask="url(#L)"><path d="M17.582 21.392h-1.798v3.883h1.798v-3.883z" fill="url(#X)"/></g><path d="M17.315 22.881h-1.436v.665h1.436v-.665z" class="F"/><path d="M16.193 4.974c.592.034 1.126.403 1.082.887l-.326 2.721-2.387.174.436-3.067s.603-.74 1.195-.706" class="C D"/><g fill="#6e4e32"><path d="M15.586 5.966l-.257 2.196 1.043-.066.282-2.21c-.204-.472-.745-.406-1.069.08zm12.747 2.197l-.257-2.198c-.323-.484-.864-.548-1.071-.078l.284 2.207 1.043.069zm-4.911 1.332l-.021-.298c-.09-1.048-.167-2.721-1.479-2.721s-1.344 1.735-1.436 2.762l-.014.248 2.949.009z"/><path d="M21.93 6.068c1.706 0 1.75 2.04 1.883 3.315a.64.64 0 0 1 .014.064l-.016.039h.333v-.099l-.117-1.089.787.018.105 1.089.023.078h.303v-.066l-.103-1.096 1.41.055.055.433.631.06 1.053.071.94.073-.044-.481 1.816.16.294 1.146.039.177h.305l-.048-.293-.257-1.011 2.208.266.482 1.096.046.105.034.085.376.053v-.076l-2.438-5.467.851.131.894-.752.64-1.359c.11-.229.044-1.252.044-1.582L31.013.587l-1.952.878V.335L25.608.062v.011l-1.19 1.112-.761-.018V0h-3.456v1.169l-.752.023L18.249.069l-3.456.284v1.114L12.842.601c-.229-.03-2.951.513-3.454.61 0 .33-.069 1.357.039 1.579.803 1.639.229 1.038 1.647 2.093l.665-.101-2.355 5.522c-.016.044 0 .03-.016.03v.078l.353-.053.046-.076h-.018l.548-1.261h.018l2.204-.259-.3 1.185-.014.039-.021.229h.287l.142-.559.229-.931 1.637-.147-.039.436.94-.073 1.053-.071.631-.06.073-.403 1.605-.066-.083.862-.034.408h.31l.014-.138a.18.18 0 0 1 0-.034l.105-1.107.809-.021.048-.309-2.734.115.142-1.109 2.928-.133c-.335.72-.417 1.65-.491 2.379l-.03.296h.316l.014-.156c.131-1.254.213-3.328 1.883-3.328m4.587-.864l-4.403-.131V4l5.045.211.101.589-.124.025a1.27 1.27 0 0 0-.615.378m-.296.779l.085.66-1.335-.057-.099-1.146 1.445.064-.037.08-.085.195.025.204zm2.082 2.57l-1.048-.069-.317-.03-.039-.312-.284-2.207-.014-.105.041-.096a.9.9 0 0 1 .569-.53c.459-.126.917.172 1.176.55l.053.083v.096l.257 2.196.041.458-.436-.034zm.564-2.657l-.018-.195-.032-.011 1.413.149.289 1.128-1.566-.144-.105-.917m4.513 2.764h-.055l-4.185-.431-.014-.133-.11-.963 3.883.438.481 1.089zm-.628-1.43h-.057l-1.821-.229-.289-1.132 1.663.218.505 1.144zm-.651-1.479h-.055l-3.417-.364c-.262-.328-.641-.54-1.057-.591l-.094-.552 4.169.477.454 1.032zm-1.066-4.756l-.016.729-1.229-.188 1.245-.541zM25.608.546v.688l-.702-.028.702-.66zm-7.359 0l.713.688-.713.028V.546zm-5.407.475l1.277.557-1.277.163v-.72zm-2.635 2.455c-.564-1.073-.445-.688-.445-1.96l2.704-.477v1.128l2.704-.332V.688L17.873.47v1.16l2.704-.094V.371h2.701v1.162l2.706.08V.468l2.701.213v1.146l2.704.335V1.038l2.706.488c0 1.313.122.86-.459 1.978a76.5 76.5 0 0 0-12.065-.979c-3.805.021-7.604.335-11.361.94l-.005.009zm.968 1.018l-.899-.662c8.105-1.279 15.117-1.252 23.286.025l-.766.658-3.951-.518a66.92 66.92 0 0 0-17.67.497zm.965.229c1.413-.199 2.825-.364 4.243-.484l-.094.548c-.247-.004-.492.051-.714.16s-.414.27-.562.468l-3.318.348.445-1.041zm-.585 1.375h.016l1.695-.213-.296 1.146-1.915.229.5-1.162zm2.981 1.999l-.018.176a81.01 81.01 0 0 0-4.075.426l.459-1.098h.018a80.71 80.71 0 0 1 3.715-.415 20.47 20.47 0 0 0-.105.917m.257-2.196c-.03.326-.071.649-.112.972l-1.376.131.296-1.158 1.215-.124-.023.179zm2.254.039l-.287 2.207-.039.312-.314.03c-.349.032-.702.039-1.05.069l-.459.039.041-.458c.066-.736.188-1.462.257-2.196v-.096l.055-.083c.25-.378.704-.688 1.179-.55a.89.89 0 0 1 .587.53l.044.096-.014.101zm.112-.711a1.24 1.24 0 0 0-.566-.378l.108-.633c1.691-.136 3.389-.207 5.093-.213v1.073a86.87 86.87 0 0 0-4.635.151zm1.713 1.375l-1.523.069.089-.688.025-.211-.085-.195-.007-.064 1.617-.08-.117 1.169zm.335-.005l.099-1.169c1.752-.057 3.511-.066 5.275 0l.096 1.146-1.188-.023a2.19 2.19 0 0 1 .177.312l2.706.108.145 1.112-2.523-.096.021.133c-.193-1.206-.642-2.363-2.064-2.363-.302-.014-.603.054-.87.195s-.492.352-.65.609l-1.222.037z"/></g><path d="M17.105 27.248h-.839v.811h.839v-.811zm1.147 12.596c.038-.025.069-.059.09-.099s.033-.085.033-.13a.27.27 0 0 0-.033-.13c-.022-.04-.053-.074-.09-.099h-.688v-.039-.369a.16.16 0 0 0-.048-.112c-.03-.029-.071-.046-.113-.046h-.365c-.042 0-.083.017-.113.046a.16.16 0 0 0-.048.112v.369.039h-1.543c1.037-.644 2.307-1.004 3.488-1.247l.658-.133-.527-.41c-.931-.731-2.605-2.02-2.734-3.278a1.92 1.92 0 0 1 .277-1.162l.546-.96-.972.543c-2.752 1.533-2.782 4.06-1.516 6.648h-.399v-.229h-.53v.229h-.598c-.158.121-.158.27 0 .458 1.73.278 3.494.278 5.224 0zm-2.032-6.84c-1 1.767.429 3.184 2.536 4.83-1.488.305-2.839.745-3.887 1.483-1.502-3.019-.846-5.091 1.351-6.313zm8.978-10.061c-.02-.001-.039.001-.058.007a.15.15 0 0 0-.101.131c-.001.02.001.039.007.058a.15.15 0 0 0 .075.086c.018.009.037.014.056.015s.039-.001.057-.007.035-.016.049-.029.026-.029.034-.046.013-.036.013-.056 0-.039-.006-.057-.015-.036-.027-.051-.028-.027-.045-.036-.036-.014-.055-.016zm14.508 1.314c.261-2.334 1.915-3.936 3.825-5.153l.339-.215-6.382-8.11-.133-.025-2.293-.399-5.414-.665-1.183-.094h-.041l-.355-.025h-.094-.094l-2.642-.131h-.314-.266a99.89 99.89 0 0 0-8.107.165l-6.095.596-.138.018-3.928.591L0 18.877l.339.216c1.908 1.217 3.561 2.819 3.825 5.153.257 2.292-.979 4.954-1.835 7.035-1.163 2.797-2.245 5.556-2.245 8.63A6.47 6.47 0 0 0 .38 41.85c.635 2.045 2.213 3.691 3.873 4.997 1.936 1.524 4.183 2.774 6.361 3.931l6.8 3.668c1.456.889 3.396 2.201 4.201 3.734l.328.626.326-.626c.805-1.534 2.752-2.845 4.204-3.734 2.188-1.329 4.531-2.466 6.797-3.668 2.179-1.146 4.426-2.407 6.362-3.931 1.663-1.307 3.238-2.952 3.876-4.997a6.54 6.54 0 0 0 .294-1.939c0-3.074-1.082-5.834-2.243-8.63-.867-2.081-2.103-4.747-1.835-7.035M21.935 58.013C18.864 52.149.445 48.704.445 39.904s9.304-15.26.094-21.121l6.05-7.675c10.841-1.823 21.074-1.823 30.698 0l6.045 7.681c-9.21 5.861.094 12.326.094 21.121s-18.42 12.239-21.489 18.11" class="E"/><path d="M12.827 1.758l1.346-.174L12.827 1v.759z" class="C D"/><path d="M39.84 31.956c-1.016-2.45-2.243-5.215-1.938-7.92.248-2.205 1.447-3.924 3.135-5.327l.275-.229-4.855-6.061-.138-.025c-9.54-1.722-19.25-1.522-28.797.018l-.142.023-4.834 6.047.271.229c1.69 1.403 2.887 3.122 3.135 5.327.305 2.705-.917 5.469-1.938 7.92-1.057 2.547-2.108 5.151-2.108 7.945a4.76 4.76 0 0 0 .216 1.412c1.073 3.459 6.286 6.237 9.347 7.86 2.309 1.213 4.667 2.359 6.896 3.734 1.185.69 2.292 1.505 3.302 2.432l.257.248.257-.248a19.01 19.01 0 0 1 3.302-2.432c2.231-1.359 4.587-2.501 6.894-3.725 3.323-1.76 9.563-4.988 9.563-9.272 0-2.794-1.05-5.398-2.108-7.945m-7.63 16.887c-2.307 1.224-4.685 2.379-6.914 3.734a19.65 19.65 0 0 0-3.364 2.483c-1.031-.945-2.159-1.777-3.367-2.483-2.227-1.355-4.605-2.51-6.912-3.734-2.917-1.545-8.136-4.314-9.173-7.647-.133-.423-.2-.864-.2-1.307 0-2.739 1.046-5.311 2.08-7.807s2.28-5.316 1.968-8.096c-.264-2.338-1.543-4.126-3.266-5.566l2.58-3.227 6.336 6.246c-4.02 6.767-3.059 17.612 2.981 22.345a11.05 11.05 0 0 0 6.96 2.322c4.394 0 7.614-2.159 9.671-5.325l5.371 5.297a48.93 48.93 0 0 1-4.761 2.764M23.01 16.124a1.07 1.07 0 0 1 .128.018 10.62 10.62 0 0 1 2.523.559c.073.025.154.057.243.092l.041.014.268.112.06.027.076.032.062.027c.784.355 1.52.806 2.192 1.343l.018.014c.105.085.264.215.436.369l.131.119.039.039a12.02 12.02 0 0 1 1.802 2.127l.025.06.156.229v.016c.007.009.013.019.018.03.466.745.865 1.529 1.193 2.345h-.092c-1.376.014-2.064.736-2.587 1.534-.016.025-.156.271-.252.424-.201.375-.431.734-.688 1.073.048-.192.089-.387.119-.584.011-.089.023-.179.03-.268s0-.323 0-.323c-.021-.704-.367-1.341-.578-2.006.459-.142.917-.172 1.358-.459a.59.59 0 0 0 .096-.816c-.012-.072-.029-.142-.053-.211-.03-.056-.063-.111-.099-.163a.69.69 0 0 0-.211-.188.61.61 0 0 0-.253-.29c-.113-.067-.245-.096-.376-.082-.225.061-.443.147-.649.257-.25.125-.507.234-.771.328-.076.025-.156.051-.229.071a6.75 6.75 0 0 0-.878-.534 7.33 7.33 0 0 0-.39-.177c-.094-.037-.19-.078-.287-.11a7.45 7.45 0 0 0-2.002-.413c-.229-.016-.445-.021-.761-.03h-.362c-.245 0-.706-.055-.752.291s.404.408.637.477h.03c.19.05.057.018.67.183.652.152 1.284.383 1.88.688a1.03 1.03 0 0 0-.752.653l-.067.156a3.65 3.65 0 0 0-.167.596l-.066.387.475-.131c.2-.053.436-.08.637-.131a2.57 2.57 0 0 1 .645.126h.014c.162.057.32.123.475.197l.037.016a.81.81 0 0 1 .321.206c0 .012.011.021.016.03.248.458.388 1.208.472 1.834v.041c0 .069.023.176.037.291l.037.319.018.156-.482-.128-.126-.034h-.03c-.156-.041-.475-.119-.644-.158-.108-.023-.213-.046-.321-.062-.493-.078-1.023.229-1.397.523a7.33 7.33 0 0 0-.349.287 9.47 9.47 0 0 0-.791.811l-.121.145c-.2.243-.369.458-.557.731a6.43 6.43 0 0 0-.229.346c-.096.154-.177.293-.229.404a5.38 5.38 0 0 0-.271.557h-2.878v-5.33h-1.126l-.039-.628h.337v-1.183h-.291v-.376h.229v-.387c-.008-.176-.068-.346-.173-.488s-.25-.249-.416-.308l.014-.115a.55.55 0 0 0-.383-.52c-.05-.014-.102-.022-.154-.023h-.135a.55.55 0 0 0-.44.555v.122a.88.88 0 0 0-.569.777v.387h.229v.376h-.277v1.183h.355l-.037.628h-1.126v5.359h-4.632v-.229a1.58 1.58 0 0 1 0-.275c.016-.289.028-.367.057-.715a.57.57 0 0 1 .016-.165c.016-.055 0-.085 0-.131a13.14 13.14 0 0 1 .17-1.375l.046-.268a13.38 13.38 0 0 1 .229-1.073c.037-.163.071-.293.103-.426l.014-.046.149-.541a10.55 10.55 0 0 1 .229-.72c.057-.17.119-.339.181-.507l.018-.046a7.64 7.64 0 0 1 .436-1.041.79.79 0 0 0 .037-.078 15.14 15.14 0 0 1 .821-1.517c.23-.393.492-.767.782-1.119l.14-.179.037-.048c.299-.392.634-.754 1-1.084.008-.01.017-.018.028-.025a10.51 10.51 0 0 1 1.585-1.242c.011-.01.022-.018.034-.025a5.92 5.92 0 0 1 .658-.383c.056-.032.113-.061.172-.087a10.11 10.11 0 0 1 1.908-.743h.037c.27-.079.545-.142.823-.188.714-.134 1.439-.201 2.165-.2h.135a5.4 5.4 0 0 1 .459.014h.154l.344.018zM10.039 30.874h11.347a8.81 8.81 0 0 0-1.03.39l-.09.044-.266.137c-.099.057-.195.112-.284.172-.892.582-1.241 1.291-1.25 2.098.004.389.063.774.177 1.146l.037.126V35c.044.142.094.287.149.431.183.477.406.938.633 1.391l.516.977c.759 1.419 1.605 2.904 1.94 4.493a5.11 5.11 0 0 1-.122 2.826v.014a5.47 5.47 0 0 1-.122.3c-.044.101-.069.151-.108.229h-.016c-.296 0-.589-.028-.881-.057-1.586-.156-3.115-.671-4.472-1.506-4.378-2.728-6.313-8.314-6.162-13.203v-.016l.002-.005zm5.912-4.885v-.477h.484v.477h.484v-.477h.484v.477h.482v-.477h.484v1.036h-3.383V25.51h.482v.477l.484.002zm.713-3.956c.445 0 .812.27.812.601v.08h-1.624v-.08c0-.33.365-.601.812-.601zm-.257-.298a.25.25 0 0 1 .25-.25.25.25 0 0 1 .25.25v.025a1.17 1.17 0 0 0-.229-.021c-.085 0-.171.007-.255.023l-.016-.027zm.826 1.297v.376h-.397v-.376h.397zm-.732.376h-.406v-.376h.406v.376zm1.037.878h-1.745v-.573h1.745v.573zm-.296.933h-1.131l.039-.628h1.05l.041.628zm1.126 3.124h-3.383v-1.46h3.383v1.46zm0 .321v1.882h-1.254V29.52a.46.46 0 0 0-.459-.458.46.46 0 0 0-.459.458v1.027h-1.211v-1.882h3.383zm3.545 17.011c1.027-2.164.245-4.355-.805-6.418-.603-1.192-1.293-2.347-1.777-3.438-.314-.713-.654-1.632-.523-2.439a2.1 2.1 0 0 1 .933-1.424c.407-.259.841-.473 1.293-.64l.048-.016.183-.064c-1.22 2.292-.764 4.479 1.128 6.453 1.076 1.126 2.612 1.728 4.204 2.249l-.085 2.522h1.436v-.252c0-.617-.027-1.235-.048-1.852.921.274 1.819.62 2.685 1.036a10.53 10.53 0 0 1-3.813 3.194c-1.508.745-3.172 1.118-4.854 1.089l-.007.002zm5.946-10.001l.47.479.181-.17-.525-.536a2.98 2.98 0 0 1 .986.825l.018.073v.083l-.108 1.089-.543-.566-.06-.041-.025-.089a6 6 0 0 0-.385-1.146m.174 1.33l-.229.518-.044-1.442c.103.275.174.559.259.876v.016l.014.032zm.282-1.655l.498.163.078-.229-.601-.197a3.28 3.28 0 0 1 .819.142l.055.028.03.053.596 1.041-.537-.11v-.011a3.27 3.27 0 0 0-.917-.871m.956-.355l-.037.011h-.032c-.307-.101-.627-.156-.949-.163l.688-.115-.041-.243-.798.135c.226-.134.462-.249.706-.344l.066-.032.094.012 1.147.183-.844.555zm-.17-2.251l-.296.119.328-.241-.032.122zm-.08.3l-.248.917v.039l-.037.018a4.56 4.56 0 0 0-1.069.575l.787-.894-.188-.163-.688.784c.101-.293.239-.572.411-.83l.037-.053.055-.021.94-.374zm-2.22 8.39l.016-.378.869.646v.392l-.885-.66zm.539.788h-.521l-.044-.032.014-.378.55.41zm.172-6.074l.011.397-.541-.403.012-.378.518.385zm-.502-.761v-.346l.016-.021.459.339v.394l-.475-.367zm.527 1.556v.394l-.592-.44.014-.378.578.424zm.023.791l.014.399-.642-.479.011-.378.617.459zm.028.795l.014.399-.688-.518v-.378l.674.497zm.027.795l.014.397-.78-.571v-.376l.766.55zm.025.793l.011.397-.798-.594.011-.376.775.573zm.023.793l.011.394-.846-.628.014-.376.821.61zm.096-7.532a3.76 3.76 0 0 0-.383.745v-.901h-.25v1.093c-.111-.345-.27-.673-.472-.974v-.064l.55-1.057.571 1.091v.037l-.016.03zm-.904.917l-.688-.688-.181.172.901.917a4.25 4.25 0 0 0-1.181-.662l-.041-.057-.257-.956.933.376.06.027.034.048a3.65 3.65 0 0 1 .422.832m-1.53-1.584l-.03-.11.31.229-.28-.119zm.154 1.533l.069-.011.062.018.665.305-.702-.117-.044.243.688.115c-.319.013-.635.067-.94.163h-.032-.034l-.862-.573 1.131-.142zm-.158 1.057l.037-.048.048-.027a3.36 3.36 0 0 1 .839-.147l-.628.209.08.229.509-.172c-.344.223-.647.503-.897.828l-.025.027-.021.025-.539.11.596-1.034zm.229.981a3.25 3.25 0 0 1 .887-.779l-.459.458.177.174.58-.571c-.223.403-.385.837-.482 1.288l-.021.053-.041.044-.541.566-.108-1.089v-.078l.007-.066zm.952.587c.061-.25.138-.495.229-.736l-.046 1.332-.204-.458v-.053l.021-.085zm1.376 3.166l-.064-1.935.229-.507v.711h.25v-.674l.243.635.229-.087-.259-.676.484.504.184-.17-.085-.085.073-.731.19.708.243-.062-.186-.688.41.582.206-.142-.459-.646.605.374.135-.209-.594-.376.2.041.071.128.147-.083.268.055.053-.243-.073-.014.151-.144-.608-.626.743.429.128-.213-.819-.47.917.202.055-.229-.75-.167.768-.025v-.248l-.858.03.823-.266-.078-.229-.819.264.417-.28.307-.206-.14-.204-.229.151-.612-.094.796-.087-.027-.248-.901.099.814-.348-.101-.229-.823.332.674-.575-.165-.186-.672.573.479-.761-.211-.131v.016l-.034-.08-.241.099.034-.131-.087-.021.163-.122-.149-.199-.782.573.58-.745-.2-.151-.633.811.349-.949-.229-.085-.293.802.078-.848-.25-.023-.083.938-.188-.931-.255.062.184.917-.294-.564.11-.211-.229-.112-.027.053v-.018l-.229.115.092.174-.277.529.186-.917-.245-.048-.186.928-.085-.935-.25.023.076.846-.291-.8-.229.082.346.954-.631-.814-.2.149.58.745-.784-.571-.147.2.204.149-.106.027.027.101-.257-.103-.05.119-.184.11.482.761-.672-.573-.163.186.674.575-.819-.351-.101.229.814.348-.901-.099-.027.248.796.087-.546.085-.229-.142-.138.204.229.147v.06h.067l.431.289-.816-.264-.078.229.826.266-.86-.03v.248l.771.025-.752.167.055.229.917-.202-.816.47.126.213.743-.429-.608.626.151.145-.073.014.053.243.268-.055.147.083.071-.128.2-.041-.592.376.135.209.631-.401-.459.646.206.142.408-.582-.183.688.229.062.19-.708.073.731-.085.085.183.17.484-.504-.259.676.229.087.245-.635v.674h.25v-.711l.197.458-.053 1.582c-1.525-.504-2.981-1.084-3.988-2.141-2.316-2.418-1.926-4.635-.963-6.301v-.012-.039-.016l.041-.071v-.011l.041-.069.039-.057v-.011h.564l11.384.131c-.018 3.695-1.023 7.374-3.022 10.125a18.7 18.7 0 0 0-2.883-1.112m2.027-4.094l.493.509-.229-.046-.264-.463zm-.651-2.604l.112-.422.202-.08-.314.502zm-3.963 0l-.339-.539.229.089.11.449zm-.573 2.604l-.264.459-.229.046.493-.504zm9.129-5.32H27.47c2.128-1.318 2.763-3.122 3.917-2.98.658.076 1.592.305 2.204.383.122.855.19 1.716.204 2.579v.018zm-.397-2.941c-.305-.05-.608-.112-.917-.172-.351-.067-.709-.135-1.064-.179-.134-.016-.271-.012-.404.014-.644.119-1.192.75-1.605 1.203-.615.696-1.322 1.306-2.101 1.813l-.493.266-4.901-.057c.638-1.414 2.557-3.668 3.568-3.503.493.078 1.147.28 1.692.41.06.573.112 1.146.213 1.717.037.204.023.607.372.596s.303-.419.339-.621c.142-.624.329-1.237.56-1.834 1.245-.812 1.293-3.289 3.704-3.315a1.17 1.17 0 0 1 .218.016c.447 1.186.772 2.415.97 3.668l-.151-.023zm-8.166-5.015l1.442-.296c.855.06 1.858-.642 2.264-.718.058.001.114.018.163.049s.088.074.114.126l-.842.399.108.229.917-.438c.05.04.09.091.117.149s.04.122.039.186l-.991.229.055.229 1.048-.245c.017.044.021.092.01.138a.23.23 0 0 1-.072.119c-.459.298-1.078.312-1.566.525.186.738.67 1.577.647 2.336 0 .08 0 .158-.018.229l-.539-1.121-.229.105.702 1.437c-.055.266-.124.528-.209.786l-.553-1.866-.229.069.654 2.2c-.192.507-.346 1.028-.459 1.559-.078.435 0 .532-.094.03-.259-1.449-.275-4.009-.954-4.96-.292-.183-.605-.332-.931-.442a2.79 2.79 0 0 0-.789-.149c-.188.048-.539.124-.725.174.06-.346.282-1.171.938-1.091m-2.752-1.469c-.571-.163-.548-.149.034-.16a8.26 8.26 0 0 1 3.006.422c.432.156.845.36 1.231.607h-.108l-1.177.229c-.903-.61-1.933-.8-2.981-1.105M37.38 45.804l-5.515-5.437c4.077-6.806 3.046-17.783-3.112-22.492a11.01 11.01 0 0 0-6.829-2.246c-4.396 0-7.625 2.189-9.682 5.387l-6.293-6.203 1.635-2.045c9.515-1.533 19.167-1.733 28.666-.016l4.543 5.68c-1.722 1.43-3.002 3.228-3.266 5.566-.312 2.781.917 5.577 1.963 8.096s2.082 5.068 2.082 7.807c0 2.276-1.938 4.282-4.194 5.896" class="E"/><defs><linearGradient id="M" x1="8.584" y1="1.524" x2="35.319" y2="1.524" xlink:href="#Y"><stop stop-color="#d8b56d"/><stop offset=".51" stop-color="#edd9b1"/><stop offset=".53" stop-color="#ecd8af"/><stop offset="1" stop-color="#d8b56b"/></linearGradient><linearGradient id="N" x1="9.959" y1="3.954" x2="33.991" y2="3.954" xlink:href="#Y"><stop stop-color="#b79644"/><stop offset=".51" stop-color="#c7a865"/><stop offset="1" stop-color="#b89642"/></linearGradient><linearGradient id="O" x1="9.371" y1="7.303" x2="34.668" y2="7.303" xlink:href="#Y"><stop stop-color="#dbb872"/><stop offset=".51" stop-color="#e0c28b"/><stop offset="1" stop-color="#dbb872"/></linearGradient><radialGradient id="P" cx="0" cy="0" r="1" gradientTransform="translate(22.074 33.868) scale(22.4884 22.1654)" xlink:href="#Y"><stop stop-color="#01a668"/><stop offset=".39" stop-color="#029d5f"/><stop offset="1" stop-color="#038647"/></radialGradient><radialGradient id="Q" cx="0" cy="0" r="1" gradientTransform="translate(17.7241 29.4264) scale(16.2339 15.9948)" xlink:href="#Y"><stop stop-color="#e0f0e0"/><stop offset=".14" stop-color="#d7ede1"/><stop offset=".37" stop-color="#bee5e3"/><stop offset=".65" stop-color="#96d7e7"/><stop offset=".99" stop-color="#5ec5ed"/><stop offset="1" stop-color="#5cc4ed"/></radialGradient><linearGradient id="R" x1="8.792" y1="37.593" x2="32.104" y2="37.593" xlink:href="#Y"><stop stop-color="#fff"/><stop offset=".18" stop-color="#fffbf6"/><stop offset=".48" stop-color="#feefdd"/><stop offset=".86" stop-color="#fcdbb5"/><stop offset="1" stop-color="#fbd3a4"/></linearGradient><linearGradient id="S" x1="9.465" y1="38.09" x2="25.122" y2="38.09" xlink:href="#Y"><stop stop-color="#00aeb4"/><stop offset=".18" stop-color="#09b0b6"/><stop offset=".47" stop-color="#22b5ba"/><stop offset=".84" stop-color="#4abec2"/><stop offset="1" stop-color="#5ec2c6"/></linearGradient><linearGradient id="T" x1="27.672" y1="23.56" x2="27.672" y2="30.844" xlink:href="#Y"><stop stop-color="#19a576"/><stop offset=".33" stop-color="#149d6d"/><stop offset=".87" stop-color="#068654"/><stop offset="1" stop-color="#027f4d"/></linearGradient><linearGradient id="U" x1="19.632" y1="35.445" x2="33.847" y2="35.445" xlink:href="#Y"><stop stop-color="#e9b68b"/><stop offset=".3" stop-color="#e4af82"/><stop offset=".8" stop-color="#d69c69"/><stop offset="1" stop-color="#cf935d"/></linearGradient><linearGradient id="V" x1="30.046" y1="27.702" x2="30.046" y2="30.962" xlink:href="#Y"><stop stop-color="#19a576"/><stop offset=".33" stop-color="#149d6d"/><stop offset=".87" stop-color="#068654"/><stop offset="1" stop-color="#027f4d"/></linearGradient><linearGradient id="W" x1="15.106" y1="28.464" x2="18.634" y2="28.464" xlink:href="#Y"><stop stop-color="#dbdad9"/><stop offset=".35" stop-color="#e2e2e2"/><stop offset=".92" stop-color="#f7f9fb"/><stop offset="1" stop-color="#fafdff"/></linearGradient><linearGradient id="X" x1="15.827" y1="23.388" x2="17.622" y2="23.388" xlink:href="#Y"><stop stop-color="#dbdad9"/><stop offset=".35" stop-color="#e2e2e2"/><stop offset=".92" stop-color="#f7f9fb"/><stop offset="1" stop-color="#fafdff"/></linearGradient><linearGradient id="Y" gradientUnits="userSpaceOnUse"/></defs></svg>
