<svg xmlns="http://www.w3.org/2000/svg" width="224" height="176" fill="none"><path d="M196.641 62.48c0 19.469-15.757 35.245-35.204 35.245s-35.203-15.776-35.203-35.244 15.757-35.244 35.203-35.244 35.204 15.775 35.204 35.244z" fill="#fefaed"/><g fill="#f5c51b"><rect x="157.076" y="41.274" width="7.656" height="30.99" rx="3.828"/><circle cx="4.003" cy="4.003" r="4.003" transform="matrix(-1 0 0 1 165.007 76.4177)"/></g><path d="M161.753 94.072c-14.413 0-27.181-10.201-30.335-24.274-.055-.22.082-.439.315-.494.22-.055.439.082.494.316 3.085 13.689 15.51 23.629 29.54 23.629 16.689 0 30.28-13.593 30.28-30.315 0-16.709-13.577-30.315-30.28-30.315-10.711 0-20.407 5.478-25.947 14.677a.4.4 0 0 1-.563.137c-.192-.11-.26-.371-.136-.563 5.691-9.432 15.647-15.075 26.646-15.075 17.142 0 31.103 13.963 31.103 31.139s-13.975 31.139-31.117 31.139z" fill="#0f0f0f"/><path d="M75.529 80.142l3.127 9.428s2.898-9.553 11.047-12.654c8.161-3.101 12.636-2.184 12.636-2.184s-2.416-1.645-2.11-3.741c.317-2.097 3.826-3.754 3.826-3.754l13.361.477s3.127 1.155 3.331 3.465c.19 2.31-1.666 3.565-1.666 3.565s7.17-.364 11.327 1.519c4.157 1.87 9.929 4.13 13.005 13.32 3.077 9.177 3.382 19.609 3.382 19.609l13.996 3.515s3.966 2.373 3.356 3.867l-2.86 15.629s-3.051 13.082-12.865 13.069-12.344-7.156-12.344-7.156 2.797 20.501 4.996 25.811H80.627s4.462-16.91 5.822-30.531c0 0 1.36-10.533.712-14.7 0 0-1.284 11.323-9.433 13.219s-13.107-2.637-15.967-9.303-4.551-18.843-5.136-22.496l-2.644-16.76s-.407-2.762 9.598-4.18c10.017-1.394 11.149-1.155 11.95.967z" fill="#47a5e6"/><path d="M146.795 109.557c.343-.489.61-15.943-6.127-26.162-6.789-10.307-21.853-8.938-21.993-8.926-.292.552-.114.703.064.678.152-.013 14.797-1.331 21.356 8.612 6.624 10.043 6.357 25.296 6.357 25.447a3.96 3.96 0 0 0 .343.351z" fill="#0f0f0f"/><path d="M146.279 114.462s2.604-4.956 2.435-6.124-2.293-3.854-3.35-4.864c-1.07-1.011-.965-2.891.216-3.446s2.931.184 4.563 1.784c1.633 1.586 3.633 4.014 4.409 4.025 0 0 6.215-4.051 8.78-4.531s3.767-.544 4.336.524c0 0 2.1.244 2.49 1.741 0 0 1.811-.251 2.391.867s-.439 3.142-2.623 4.451-5.497 2.951-7.869 3.406-3.622 5.559-3.622 5.559-7.814-.73-12.156-3.392z" fill="#9f5c2c"/><g fill="#0f0f0f"><path d="M146.186 114.946c.921-2.697 2.64-6.539 2.124-7.464-.673-1.237-1.453-2.003-2.21-2.73l-.827-.832c-1.561-1.708-1.09-2.924-.821-3.36.525-.847 1.694-1.214 2.821-.904 2.041.555 4.377 3.117 6.261 5.172 1.252 1.362 5.363 1.62 6.853 1.625.191-.013.347.148.348.337-.569.341-6.033.326-7.534-1.328-1.895-2.069-4.242-4.657-6.096-5.163-.839-.229-1.695.02-2.063.613-.411.653-.138 1.589.744 2.55l.803.805c.757.727 1.609 1.56 2.341 2.889.834 1.524-1.867 6.612-2.414 7.609-.071.122-.19.19-.33.181z"/><path d="M158.413 118.204c-.239-.053-.355-.224-.318-.41.052-.223 1.203-5.371 3.893-5.818 2.6-.428 9.449-3.219 10.364-6.419.129-.432.038-.815-.249-1.11-.407-.416-1.123-.574-1.886-.395-1.551.355-7.36 3.211-7.413 3.245-.282.02-5.861-.996-8.541 1.527 2.269-3.065 7.457-2.324 8.327-2.182.815-.401 5.939-2.885 7.464-3.242.995-.227 1.962-.003 2.536.587.455.469.606 1.107.424 1.775-1.062 3.732-8.638 6.527-10.903 6.901-1.854.311-3.037 3.935-3.339 5.299-.035.149-.181.253-.359.242z"/><path d="M157.693 106.953c.81-1.131 9.2-5.536 10.81-5.221 1.437.241 1.926 1.391 1.979 1.961-.688.007-.836-1.084-2.096-1.302-1.071-.192-7.009 2.68-10.513 4.523-.053.035-.117.043-.18.039z"/><path d="M154.366 106.177c-.006-.717 3.48-2.675 4.306-3.051l1.379-.668c1.762-.883 3.959-1.99 5.512-1.968 2.139.008 2.486 1.388 2.507 1.453-.681.095-.933-.763-2.512-.774-1.387-.024-3.584 1.096-5.201 1.9l-1.406.679c-.799.352-4.364 2.367-4.404 2.39a.29.29 0 0 1-.181.039zm-32.461-51.331s2.695-10.257-2.301-11.675c0 0-2.009-2.147-3.89-2.963 0 0 4.678-5.662 3.521-8.75s-4.449-3.854-8.428-3.904c-3.979-.038-8.365 1.155-8.62 4.193s3.738 8.373 3.738 8.373-5.835 1.481-6.102 6.277c-.267 4.808.407 7.984.407 7.984l1.347.979 19.361 1.155.967-1.67z"/></g><path d="M101.818 61.764s-5.352 1.619-5.453-3.364c0 0 .225-1.482 1.329-2.469 2.115-1.392 3.524-1.624 3.994-1.16l.47-.232s3.233.509 7.759-2.629l7.03-5.361 3.089 6.478.013 2.435s4.335-1.331 5.123 2.938c0 0-.013 3.402-2.771 3.666s-2.632-.502-2.632-.502-.635 5.247-3.61 6.767l.292 3.854s-2.097 1.896-6.076 1.431-5.213-1.519-5.213-1.519l.229-3.766s-2.885-1.883-3.572-6.566z" fill="#9f5c2c"/><g fill="#0f0f0f"><path d="M161.123 112.695l-1.233.277-1.182 4.82s5.161.151 5.441-1.23c.292-1.381-3.026-3.867-3.026-3.867zm-12.867-3.139l-1.208 4.595s-4.602-2.36-3.534-4.118 4.742-.477 4.742-.477zM70.459 78.372s.686 3.892 1.411 4.356c.712.464 4.043-1.494 3.471-3.088-.559-1.582-4.882-1.268-4.882-1.268zm-12.678 2.01s1.716 3.49 1.564 4.909c0 0-5.047.025-5.352-1.921-.242-1.544 3.788-2.988 3.788-2.988zM99.807 54.77s-.428-3.851.144-8.071c.267-4.808 6.102-6.277 6.102-6.277s-3.991-5.335-3.737-8.373c.216-2.561 3.381-3.816 6.763-4.118-1.793 2.021-5.378 7.193.191 11.964 0 0-5.365 2.096-4.551 8.085.826 5.988 9.421.758 9.421.758s-3.055 2.32-6.814 4.64l-5.404 1.16-2.115.232zm15.791.603c-.279-.038-.457.075-.534 1.042-.089 1.092.204 1.28.445 1.268s.496-.339.483-1.117c-.012-.766-.038-1.13-.394-1.193zm-9.394.09c-.28-.038-.458.088-.509 1.067-.063 1.092.229 1.268.483 1.255.242-.013.483-.364.458-1.13-.038-.778-.064-1.142-.432-1.193zm15.409 7.017c1.296-.075 2.25-.54 2.936-1.306a3.79 3.79 0 0 0 .966-2.8c-.063-1.029-.534-1.971-1.322-2.661-.788-.678-1.767-1.042-2.835-.954-.419.025-.826.113-1.207.264.572.502.902.427 1.245.402.852-.038 1.691.226 2.339.791s1.03 1.343 1.081 2.197a3.15 3.15 0 0 1-.801 2.31 3.27 3.27 0 0 1-2.224 1.08c-.585.025-1.17-.088-1.691-.351.267.879.89 1.029 1.513 1.029zm.787-1.734c.204-.603-1.843-2.172-1.843-2.172l2.301-1.682c-.407-.54-3.077 1.406-3.077 1.406 0 .54 2.403 2.373 2.403 2.373a.35.35 0 0 0 .216.075z"/><path d="M99.937 62.479a4.1 4.1 0 0 0 1.805-.427c-.839-.339-1.411-.214-2.008-.251a3.22 3.22 0 0 1-2.225-1.08 3.15 3.15 0 0 1 .293-4.507c.648-.565 1.475-.829 2.339-.791.369.025.725.1 1.055.251-.139-.791-.571-.891-1.016-.929-1.043-.063-2.047.276-2.835.954s-1.246 1.632-1.322 2.661c-.064 1.029.28 2.021.966 2.8s1.653 1.23 2.695 1.306c.089.013.165.013.254.013zm-.787-1.732c.203-.075 2.619-1.908 2.619-1.908 0-.54-2.67-2.486-2.67-2.486-.407.54 1.894 2.222 1.894 2.222l-2.047 1.569c0 .552.102.603.203.603zm-25.033 72.01l1.119-.038c5.886-.452 12.14-4.971 12.013-16.295-.572 10.859-6.496 15.19-12.077 15.617a14.79 14.79 0 0 1-1.042.038c-11.619 0-14.378-15.63-15.306-20.865l-4.513-27.681c-.648.301 2.441 19.923 3.826 27.794.979 5.373 3.801 21.43 15.98 21.43zm9.192-20.953c.216-.012.356-.188.343-.364-.432-4.77-1.335-9.177-2.009-12.039-2.67-11.298-5.962-19.797-5.987-19.873-.61.326 2.67 8.775 5.326 20.036.674 2.837 1.564 7.219 1.996 11.951.013.164.165.289.331.289zm27.471-41.73c1.716 0 4.182-.326 6.14-1.871 1.513-1.18 2.517-3.088 3.064-5.825.369-1.808.445-7.507.407-9.365-.534-.326-.687-.176-.687.013.038 1.996-.063 7.545-.394 9.227-.508 2.574-1.436 4.344-2.809 5.423-1.806 1.419-4.107 1.72-5.721 1.72-.343.515-.191.678 0 .678z"/><path d="M110.78 70.074c-.369-.155.427-.535 0-.669-2.148.104-4.318-.635-5.72-1.729-1.373-1.08-2.301-2.862-2.81-5.423-.318-1.607-.381-5.587-.343-7.859-.712 1.582-.699 6.139-.331 7.997.547 2.737 1.551 4.645 3.064 5.825 1.958 1.531 4.411 1.858 6.14 1.858z"/><path d="M102.023 54.735c6.509 0 13.208-6.038 14.912-7.683.432 1.356 1.627 4.833 2.847 6.202-.253-.573.465.337.165-.525-.752-2.16-2.52-6.381-2.529-6.417-.661-.063-8.657 8.047-15.827 7.733.127.678.28.69.432.69zM116.4 72.296c.216-.025.356-.188.343-.377l-.242-3.615c-.686.038-.635 1.77-.445 3.678.026.188.178.314.344.314zm-11.239-.161c.509-2.147.56-3.779.56-3.804-.687 0-.738 1.607-.903 3.427l.343.377zm16.682-16.71c.419-.527 2.453-7.193.368-10.683a4.07 4.07 0 0 0-2.631-1.933c-.42-.552-2.352-2.925-5.67-3.49-4.716-.828-12.179.339-14.009 5.461-.814 2.297-.826 4.921-.013 10.031-.114-5.084-.114-7.633.661-9.805 1.691-4.758 8.759-5.8 13.247-5.021 3.394.59 5.275 3.289 5.301 3.314 1.246.364 1.996.891 2.53 1.783 1.932 3.239-.089 9.83-.102 9.905.254.439.279.439.318.439zm19.231 108.842c-1.424-3.955-8.111-38.403-5.899-48.282 2.25-10.069-1.36-20.099-1.398-20.2-.61.326 2.936 10.182.724 20.049-2.224 9.968 4.526 44.742 6.268 48.244.063.113.178.189.305.189zm-60.447 0c2.047-3.679 8.797-38.453 6.572-48.433-2.199-9.88 1.335-19.722 1.373-19.823-.686-.126-4.284 9.905-2.047 19.973 2.199 9.88-4.475 44.328-6.204 47.793.203.477.254.49.305.49zM59.588 85.665c1.742 0 3.699-.188 5.721-.552 4.996-.891 9.293-2.712 10.234-4.331.28-.49.229-.879.14-1.13-.674-1.833-3.369-1.833-5.505-1.532 1.64.439 4.31.289 4.856 1.758.064.163.025.352-.089.565-.839 1.431-5.034 3.151-9.763 4.005-2.822.502-5.53.653-7.627.439-1.907-.201-3.115-.716-3.229-1.356-.114-.603 1.004-1.77 3.343-2.825-2.237.264-4.246 1.67-4.017 2.95.178 1.004 1.513 1.67 3.827 1.908.661.075 1.36.1 2.11.1z"/></g><path d="M71.231 82.772l-1.256-5.55s2.401-2.641 1.332-8.12-4.766-4.52-4.766-4.52-1.985-5.484-2.5-8.36-2.196-6.411-4.63-6.059-2.955 4.148-2.369 7.154 1.971 7.418 1.971 7.418-2.622-2.459-3.654-2.432-3.166.77-3.785 2.023-.868 2.523-.868 2.523-2.095.996-2.253 3.024 1.177 4.252 6.447 7.765c0 0 .737 2.761 3.703 3.276l.577 4.84s3.558-.161 6.397-1.009l5.653-1.974z" fill="#9f5c2c"/><g fill="#0f0f0f"><path d="M59.184 65.471c-2.313-5.26-3.596-11.88-1.705-14.494.572-.803 1.391-1.179 2.433-1.144 3.048.142 3.983 4.106 4.971 8.312.531 2.274 1.083 4.625 1.986 6.276-1.55-1.417-2.113-3.818-2.654-6.131-.924-3.939-1.807-7.662-4.309-7.779-.813-.038-1.424.248-1.86.856-1.47 2.043-.846 7.777 1.49 13.642-.263.453-.301.464-.352.461z"/><path d="M71.215 83.112c-.319-.266-1.575-5.817-1.575-5.817.985-.922 2.621-7.645.197-11.339-1.248-1.906-8.661-.931-12.934 1.195-1.85.919-2.747 1.883-2.464 2.638.419 1.113 1.26 1.906 2.486 2.365 2.315.849 5.801.32 8.857-1.36-2.897 2.353-6.6 2.91-9.103 1.989-1.401-.518-2.413-1.47-2.9-2.761-.306-.806-.057-2.051 2.796-3.477 4.299-2.137 12.211-3.416 13.814-.953 2.496 3.798 1.094 10.394-.062 11.735L71.54 82.7c-.261.403-.286.414-.325.412z"/><path d="M62.39 76.692a7.14 7.14 0 0 1-1.415-.217c-1.798-.473-3.608-1.513-5.727-3.283-1.286-1.078-2.438-2.3-3.433-3.628-.61-.833-1.417-2.102-1.274-3.528a3.86 3.86 0 0 1 .349-1.215c.717-1.462 2.377-2.956 4.079-2.877 1.078.075 1.776.673 2.449 1.245l2.496 2.165c-1.213-.182-1.849-.74-2.719-1.471-.833-.705-1.42-1.21-2.207-1.259-1.41-.066-2.843 1.212-3.476 2.49-.156.332-.26.666-.288.992-.093.913.269 1.885 1.143 3.057.958 1.289 2.074 2.472 3.324 3.51 2.033 1.703 3.769 2.701 5.453 3.144 1.006.26 1.959.28 2.773.028.426-.131 1.011-.393 1.416-.902.811-1.018.32-2.235-.045-2.868 1.365 1.019 1.369 2.301.585 3.282-.406.522-1.022.907-1.746 1.138-.529.164-1.118.225-1.74.196z"/><path d="M60.334 79.853l-.659-.056c-1.833-.261-3.768-1.08-6.078-2.583-1.408-.92-2.707-1.986-3.847-3.195-.716-.75-1.667-1.912-1.689-3.359-.006-.415.064-.826.198-1.248.325-.965 1.034-2.252 2.45-2.864-.918 1.139-1.517 2.242-1.811 3.083-.118.346-.172.696-.162 1.023.021.918.5 1.845 1.506 2.91 1.104 1.17 2.353 2.208 3.725 3.089 2.223 1.448 4.07 2.238 5.802 2.482 1.024.148 1.983.042 2.763-.299.403-.17.952-.496 1.296-1.058s.414-.974.237-1.535c.878.544.786 1.168.345 1.889-.344.562-.901 1.026-1.602 1.333-.714.294-1.56.43-2.474.388z"/><path d="M59.202 86.096c-.318-.279-1.086-4.839-1.086-4.839-1.617-.54-2.643-1.732-3.733-3.454 1.632 1.308 2.597 2.433 4.13 2.869.242.275 1.039 5.025 1.039 5.025-.311.4-.337.399-.349.398zm88.179 59.541c2.594 0 4.933-.678 6.967-2.022 5.199-3.427 7.22-10.369 7.958-14.198.317-1.619.686-3.879 1.08-6.264l1.106-6.541c-.47-.427-.635-.301-.674-.113l-1.118 6.553-1.081 6.252c-.724 3.729-2.67 10.483-7.666 13.772-2.758 1.82-6.114 2.335-9.953 1.544-2.123-.44-7.157-2.159-8.085-8.675.343 7.219 6.178 8.976 7.945 9.34 1.22.226 2.39.352 3.521.352zm-10.426-16.66l6.775-18.643c-.673-.15-3.915 8.386-7.106 18.203.267.44.305.44.331.44z"/><path d="M160.602 118.131c2.059 0 3.559-.439 3.877-1.469-1.042 1.08-5.619 1.268-11.543-.502-4.602-1.368-8.568-3.553-9.229-5.072-.102-.226-.102-.414-.026-.565.674-1.33 2.848-1.067 4.539-.627.178.063.368-.063.419-.239-3.063-1.167-4.856-.828-5.568.565-.114.239-.216.628.013 1.143.75 1.707 4.805 4.004 9.661 5.461 2.708.778 5.607 1.305 7.857 1.305zm3.546-1.232c.686-1.431-1.208-3.314-3.179-4.494 1.717 1.807 3.039 3.427 2.848 4.055.267.426.305.439.331.439zm-46.186-62.566c-.292-2.122-2.631-2.611-4.03-2.297-.216.59-.038.703.153.665 1.144-.251 3.102.176 3.56 1.418.05.126.178.213.317.213zm-8.86 7.957c-.801 0-1.449.201-1.5.226.229.64 1.894.126 2.962.841.559.377.877 1.055.941 2.009.61-1.218.19-2.059-.56-2.574-.572-.389-1.245-.502-1.843-.502zm4.082-.188c.343-.188 1.411-1.155 1.436-2.159.013-.377-.127-.716-.394-.979-.305-.314-.674-.465-1.08-.465-.445 0-.865.188-1.17.389-.203-1.871-.356-4.482.025-5.047-1.258.665-.737 4.896-.635 5.737.75.025 1.284-.402 1.767-.402.216 0 .419.088.597.264.178 1.092-.521 1.833-.788 2.071.064.552.153.59.242.59zm4.958-16.861c.279-.138 1.385-1.682 1.385-1.682-.559-.389-1.665 1.142-1.665 1.142.14.527.203.54.28.54zm-39.487 44.67c1.017-2.297 3.42-6.114 3.432-6.151 6.56-9.955 20.073-8.7 20.213-8.687-.076-.691-13.997-1.984-20.785 8.323-.102.163-2.466 3.929-3.178 6.063.254.452.28.452.318.452zm37.07-49.35c.47-.364 5.377-6.063 3.597-9.917-1.004-2.159-3.89-3.251-8.568-3.251s-7.551 1.079-8.53 3.226c-1.754 3.829 3.242 9.491 3.458 9.729.47-.502-4.399-6.026-2.835-9.453.852-1.87 3.521-2.825 7.907-2.825 4.399 0 7.068.967 7.945 2.85 1.602 3.452-3.178 9.014-3.229 9.076.089.527.166.565.255.565zm-4.918 33.38c6.458 0 6.928-3.026 6.941-3.151-.686-.063-1.144 2.473-6.941 2.473-5.784 0-6.089-2.523-6.089-2.548-.674.188-.382 3.226 6.089 3.226zm6.342 2.136c2.53-1.117 3.954-2.925 3.954-4.896 0-1.155-.674-2.762-3.865-3.892 2.034 1.444 3.178 2.536 3.178 3.892 0 1.695-1.271 3.289-3.407 4.256-.114.565 0 .64.14.64z"/><path d="M110.489 77.268c.978 0 1.906-.05 2.771-.163-.928-.565-1.831-.515-2.771-.515-6.446 0-9.916-2.787-9.916-5.411 0-1.368 1.309-2.561 3.699-3.364-2.911.264-4.386 1.695-4.386 3.364 0 2.95 3.712 6.089 10.603 6.089zm8.288 2.926c.216-.013.356-.176.343-.364-.292-3.804.395-5.273.407-5.298-.648-.226-1.385 1.318-1.08 5.348 0 .176.152.314.33.314z"/><path d="M102.391 80.191c.648-4.331-.102-5.85-.127-5.913-.61.314.076 1.757-.216 5.549l.343.364z"/></g></svg>
